<?xml version="1.0" standalone="no"?>
<!DOCTYPE svg PUBLIC "-//W3C//DTD SVG 1.1//EN" "http://www.w3.org/Graphics/SVG/1.1/DTD/svg11.dtd" >
<svg xmlns="http://www.w3.org/2000/svg" xmlns:xlink="http://www.w3.org/1999/xlink" version="1.1">
<metadata>
Created by FontForge 20170731 at Fri Apr 19 13:39:46 2019
 By Aleksey,,,
</metadata>
<defs>
<font id="Bont-Regular" horiz-adv-x="0" >
  <font-face 
    font-family="Bont"
    font-weight="400"
    font-stretch="normal"
    units-per-em="1000"
    panose-1="0 0 0 0 0 0 0 0 0 0"
    ascent="800"
    descent="-200"
    x-height="516"
    cap-height="715"
    bbox="-231 -444 1418 1174"
    underline-thickness="50"
    underline-position="-200"
    unicode-range="U+000D-FEFC"
  />
<missing-glyph horiz-adv-x="500" 
 />
    <glyph glyph-name="uniFEF5" unicode="&#xfedf;&#xfe82;" horiz-adv-x="578" arabic-form="isolated" 
d="M260 752l10 -36l-1 -1q-59 -39 -110 -39q-41 0 -81 40q-13 -5 -75 -58l-3 -3l-14 39l1 1q45 40 82 64l2 2l2 -2q43 -36 94 -36q43 0 89 28zM51 553l60 53l2 -2q165 -135 237 -223q2 2 2 3q2 2 2 3q2 2 2 3q31 66 38 172q1 21 1 179v3h75v-104q0 -205 -63 -311
q-2 -4 -3 -5l2 -4q101 -142 143 -229v-1l-39 -90h-440l-31 84l1 6l2 1q80 43 140 93.5t127 126.5q2 2 3 2l1 3l-4 4q-131 134 -255 231zM132 85h349q-2 2 -4 4.5t-3 3.5l-21 39q-54 88 -91 130l-3 3q-4 -3 -11 -11t-10 -11q-30 -43 -90.5 -87.5t-115.5 -70.5z" />
    <glyph glyph-name="uniFEF6" unicode="&#xfee0;&#xfe82;" horiz-adv-x="643" arabic-form="final" 
d="M285 703l10 -40l-1 -1q-56 -37 -110 -37q-41 0 -81 38q-8 -3 -75 -56l-3 -3l-15 37l2 1q7 6 20 17.5t20 17.5q37 29 42 32l2 2l2 -2q42 -39 94 -39q40 0 89 30zM658 90l6 -7v-77l-6 -6h-38q-65 0 -98 28t-58 91l-2 -2q0 -1 -1 -1l-1 -2q-1 0 -3 -2q-141 -123 -373 -154
h-2l-32 84l2 5h2q138 17 227 48q3 0 7 2l-2 6q-52 188 -176 406l-1 2l72 41l2 -3q89 -163 138 -327l6 -24l8 -32q6 -27 12 -46q36 18 54 28q31 18 49 35v561h75v-495q0 -39 3.5 -63.5t15 -48.5t36 -35.5t63.5 -11.5h15z" />
    <glyph glyph-name="uniFEF7" unicode="&#xfedf;&#xfe84;" horiz-adv-x="580" arabic-form="isolated" 
d="M203 727l4 -41l-2 -1q-45 -11 -101 -11h-90v44l57 -2q-1 2 -3.5 5t-3.5 4t-4.5 6t-4.5 8q-10 17 -10 34q0 34 16 66l2 2q35 11 69 11q24 0 52 -5l2 -1l-3 -37h-3q-29 3 -56 3q-28 0 -39 -5q-1 -3 -3 -13q0 -55 24 -79h3q55 0 90 11zM53 553l59 53l2 -2q164 -133 238 -223
q2 2 2 3l3 3q0 1 1 3q31 68 38 172q1 20 1 179v3h75v-104q0 -205 -63 -311q-2 -4 -3 -5l2 -4q101 -142 143 -229v-1l-39 -90h-440l-31 84l1 6l2 1q80 43 140 93.5t127 126.5q2 2 3 2l1 3l-4 4q-131 134 -255 231zM131 85h352q-3 3 -7 9q-5 8 -16 27.5t-17 29.5
q-27 44 -81 111l-2 2q-92 -113 -220 -175z" />
    <glyph glyph-name="uniFEF8" unicode="&#xfee0;&#xfe84;" horiz-adv-x="645" arabic-form="final" 
d="M654 90l7 -7v-77l-7 -6h-33q-65 0 -98 28t-58 91l-2 -2l-1 -1q0 -2 -1 -2t-3 -2q-141 -123 -373 -154h-2l-32 84l2 5h2q138 17 227 48q3 0 7 2l-2 6q-52 188 -176 406l-1 2l72 41l2 -3q87 -157 138 -327q4 -15 11.5 -46.5t12.5 -46.5l3 -9q4 3 24 14q56 25 78 49v561h75
v-495q0 -43 3.5 -68t16 -48.5t38.5 -33t69 -9.5h1zM222 667l4 -40l-2 -1q-47 -10 -101 -10h-90v42l57 -2q-26 34 -26 60q0 31 16 63l2 2q35 11 69 11q24 0 52 -5l2 -1l-3 -36h-3q-29 3 -56 3t-39 -4q-1 -3 -3 -13q0 -55 24 -81h3q55 0 90 11z" />
    <glyph glyph-name="uniFEF9" unicode="&#xfedf;&#xfe88;" horiz-adv-x="580" arabic-form="isolated" 
d="M250 -221l4 -40l-2 -1q-47 -10 -101 -10h-90v42l57 -2q-6 8 -8 10l-9 15q-9 15 -9 35q0 33 16 63l2 2q36 11 71 11q22 0 50 -5l2 -1l-3 -35h-3q-27 3 -54 3q-13 0 -22 -1q-15 -2 -19 -3q-1 -2 -3 -13q0 -55 24 -82h3q55 0 90 11zM53 553l59 53l2 -2q164 -133 238 -223
q2 2 2 3l3 3q0 1 1 3q29 63 36 172q1 21 1 179v3h77v-104q0 -203 -65 -311q-2 -4 -3 -5l1 -2l1 -2q103 -139 145 -229v-1l-39 -90h-440l-31 84l1 6l2 1q81 45 142.5 96t124.5 124q2 2 3 2l1 3l-4 4q-119 123 -255 231zM130 85h353q-3 3 -7 9q-40 73 -114 168l-2 2
q-89 -111 -221 -175z" />
    <glyph glyph-name="uniFEFA" unicode="&#xfee0;&#xfe88;" horiz-adv-x="641" arabic-form="final" 
d="M355 -225l4 -40l-2 -1q-47 -10 -98 -10h-92v42l59 -2q-6 8 -8 10l-9 15q-9 15 -9 35q0 33 16 63l2 2q35 11 68 11q22 0 50 -5l2 -1l-3 -35h-3q-27 3 -54 3t-38 -4q-1 -2 -3 -13q0 -57 24 -82h2q54 0 88 11zM654 90l6 -7v-77l-6 -6h-35q-65 0 -98 28t-58 91l-2 -2l-1 -1
q0 -2 -1 -2t-3 -2q-141 -123 -373 -154h-2l-32 84l2 5h2q135 16 227 48q3 0 7 2l-2 6q-49 184 -176 406l-1 2l72 41l2 -3q87 -157 138 -327q4 -15 11.5 -46.5t12.5 -46.5l3 -9q8 6 51 28q34 20 51 35v561h75v-495q0 -39 3 -63t14 -48.5t35.5 -36t63.5 -11.5h14z" />
    <glyph glyph-name="uniFEFB" unicode="&#xfedf;&#xfe8e;" horiz-adv-x="580" arabic-form="isolated" 
d="M53 553l59 53l2 -2q164 -133 238 -223q2 2 2 3l3 3q0 1 1 3q29 63 36 172q1 21 1 179v3h77v-104q0 -203 -65 -311q-2 -4 -3 -5l1 -2l1 -2q103 -139 145 -229v-1l-39 -90h-440l-31 84l1 6l2 1q81 45 142.5 96t124.5 124q2 2 3 2l1 3l-4 4q-119 123 -255 231zM130 85h353
q-3 3 -7 9q-40 73 -114 168l-2 2q-89 -111 -221 -175z" />
    <glyph glyph-name="uniFEFC" unicode="&#xfee0;&#xfe8e;" horiz-adv-x="641" arabic-form="final" 
d="M654 90l6 -7v-77l-6 -6h-35q-65 0 -98 28t-58 91l-2 -2l-1 -1q0 -2 -1 -2t-3 -2q-141 -123 -373 -154h-2l-32 84l2 5h2q135 16 227 48q3 0 7 2l-2 6q-49 184 -176 406l-1 2l72 41l2 -3q87 -157 138 -327q4 -15 11.5 -46.5t12.5 -46.5l3 -9q8 6 51 28q34 20 51 35v561h75
v-495q0 -39 3 -63t14 -48.5t35.5 -36t63.5 -11.5h14z" />
    <glyph glyph-name="uni06440671" unicode="&#xfedf;&#xfb51;" horiz-adv-x="579" 
d="M-1 674l-16 37l2 1q32 28 77 58l2 2l2 -2q1 -1 9.5 -7.5t14.5 -11.5q2 -1 5.5 -3.5t5.5 -4t4 -2.5l6 -3q0 -1 2 -1q5 -3 6 -3q1 1 1 3t1 3q8 20 32.5 45.5t42.5 25.5q21 0 35 -16t14 -37q0 -31 -25.5 -53.5t-57.5 -22.5q-42 0 -90 48q-20 -6 -70 -53zM199 729q16 3 16 18
q0 9 -8.5 15t-19.5 6q-15 0 -31 -16l-12 -15q-1 -2 -4 -5t-4 -5q33 -3 34 -3q19 0 29 5zM52 553l61 53l2 -2q173 -144 236 -223q18 18 29 76t15 106q1 20 1 178v3h75v-104q0 -205 -63 -311q-2 -4 -3 -5l2 -4q101 -142 143 -229v-1l-39 -90h-440l-31 84l1 6l2 1
q80 43 140 93.5t127 126.5q2 2 3 2l1 3l-4 4q-131 134 -255 231zM131 85h351q-3 3 -7 9q-54 96 -112 168l-2 3l-3 -3q-54 -63 -103.5 -101.5t-123.5 -75.5z" />
    <glyph glyph-name="uni06440671.fina" unicode="&#xfee0;&#xfb51;" horiz-adv-x="643" 
d="M23 617l-16 35l2 1q39 35 77 61l2 2l2 -2q9 -8 27 -22q18 -12 26 -17q11 25 33.5 51.5t43.5 26.5t35 -15t14 -36q0 -32 -25.5 -54.5t-57.5 -22.5q-46 0 -90 46q-18 -6 -70 -51zM239 691q0 9 -8.5 15t-19.5 6q-15 0 -31 -16q-2 -2 -6 -8t-6 -8q-1 -2 -3.5 -6t-4.5 -6
q33 -3 34 -3q45 0 45 26zM647 90l6 -7v-77l-6 -6h-27q-65 0 -98 28t-58 91l-2 -2q0 -1 -1 -1l-1 -2q-1 0 -3 -2q-141 -123 -373 -154h-2l-32 84l2 5h2q138 17 227 48q3 0 7 2l-2 6q-52 188 -176 406l-1 2l72 41l2 -3q89 -163 138 -327l6 -24l8 -32q6 -27 12 -46q36 18 54 28
q31 18 49 35v561h75v-495q0 -83 22.5 -120.5t99.5 -38.5z" />
    <glyph glyph-name="uni066E.init" unicode="&#x66e;" horiz-adv-x="314" 
d="M162 391h75v-391h-248l-10 10v72l10 8h173v301z" />
    <glyph glyph-name="uni066E.medi" unicode="&#x66e;" horiz-adv-x="356" 
d="M372 90l6 -7v-77l-6 -6h-30q-31 0 -62.5 17t-53.5 41l-3 3l-1 1q0 2 -1 2t-1 1t-1 2l-38 -67h-193l-10 10v72l10 8h181v268h76v-242h1l2 -1q36 -17 57 -21t66 -4h1z" />
    <glyph glyph-name="uni066E.fina" unicode="&#x66e;" horiz-adv-x="879" 
d="M893 90l6 -7v-77l-6 -6h-26q-30 0 -67 20t-54 45l-41 -65h-394q-257 0 -257 218q0 54 21 120l1 2l64 12l-1 -5q-15 -53 -15 -107q0 -38 11.5 -66t29.5 -44t46.5 -25t56.5 -12t66 -3h360v268h76v-242h1q1 -1 2 -1q34 -16 56 -20.5t63 -4.5h1z" />
    <glyph glyph-name="dotlessqafar.fina" unicode="&#x66f;" horiz-adv-x="786" 
d="M54 20q0 60 25 144l1 1l62 14l-1 -5q-16 -66 -16 -125q0 -61 20.5 -102t59.5 -61.5t83.5 -28t105.5 -7.5q136 0 216 30h3q5 9 12 55t7 61v5h-7q-200 6 -304 107l-1 1v1q6 53 28 111t66.5 107t97.5 49q48 0 86.5 -29.5t60 -75.5t33 -93t11.5 -89h96l5 -8v-73l-6 -9h-96
q0 -63 -34 -169l-2 -2q-129 -68 -295 -68q-143 0 -230 61.5t-87 197.5zM389 147q84 -57 230 -57h11q-33 196 -130 196q-39 0 -68 -44.5t-43 -94.5z" />
    <glyph glyph-name="dotlessfehar.init" unicode="&#x6a1;" horiz-adv-x="509" 
d="M422 0h-434l-7 10v69l7 11h383l2 59q-193 0 -301 92l-1 1v1q5 38 18 80t35 85.5t57.5 71.5t77.5 28q49 0 87 -32.5t58 -81.5t29.5 -97.5t9.5 -91.5q0 -107 -20 -203zM250 416q-69 0 -108 -134l-1 -4q51 -35 101 -44.5t130 -9.5q-31 192 -122 192z" />
    <glyph glyph-name="dotlessfehar.medi" unicode="&#x6a1;" horiz-adv-x="526" 
d="M536 90l6 -5v-80l-6 -5h-53q-103 0 -178 37q-12 5 -17 5q-4 0 -22 -7q-78 -35 -204 -35h-74l-6 9v71l7 10h220q-88 66 -127 138v2q12 36 29.5 68t42.5 62.5t59.5 48.5t73.5 18q74 0 118 -49.5t44 -121.5q0 -39 -11 -66.5t-36 -61.5q-18 -22 -28 -34q53 -4 161 -4h1z
M154 245l3 -4q59 -94 144 -127q1 0 2.5 -1t2.5 -1v1l2 2q35 31 52.5 56.5t17.5 61.5q0 48 -29.5 78t-77.5 30q-67 0 -117 -96z" />
    <glyph glyph-name="dotlessfehar.fina" unicode="&#x6a1;" horiz-adv-x="989" 
d="M76 340l63 12l-1 -5q-15 -66 -15 -107q0 -38 11.5 -66t29.5 -44t46.5 -25t56.5 -12t66 -3h346q-85 54 -130 138v2q25 79 77.5 138.5t126.5 59.5q72 0 117 -50t45 -120q0 -87 -74 -164q55 -4 166 -4h1l6 -5v-80l-6 -5h-55q-81 0 -156 27q-2 1 -9 4t-12 5q-12 6 -18 6
q-5 0 -18 -5q-6 -3 -21 -9q-83 -28 -195 -28h-212q-259 0 -259 218q0 56 22 120zM619 246l4 -4q59 -94 148 -128l5 -2v1l2 2q36 30 51.5 55t15.5 65q0 45 -30.5 75.5t-76.5 30.5q-36 0 -67.5 -28t-51.5 -67z" />
    <glyph glyph-name="uniFB51" unicode="&#x671;" horiz-adv-x="276" arabic-form="final" 
d="M8 743l-16 35l2 1q39 35 77 61l2 2l2 -2q9 -8 27 -22q18 -12 26 -17q11 25 33.5 52t43.5 27t35 -15.5t14 -36.5q0 -32 -25.5 -54.5t-57.5 -22.5q-46 0 -90 46q-18 -6 -70 -51zM224 817q0 9 -8.5 15t-19.5 6q-15 0 -31 -16q-2 -2 -6 -7.5t-6 -8.5q-2 -2 -4 -6t-4 -6
q33 -3 34 -3q45 0 45 26zM163 90h136l7 -8v-75l-7 -7h-214v676h78v-586z" />
    <glyph glyph-name="uniFB6B" unicode="&#x6a4;" horiz-adv-x="989" arabic-form="final" 
d="M795 540q-20 0 -33 14.5t-13 33.5q0 18 13.5 32t32.5 14t32.5 -14t13.5 -32q0 -19 -13 -33.5t-33 -14.5zM720 640q-19 0 -33 13.5t-14 32.5q0 20 13.5 33.5t33.5 13.5t33 -14t13 -33q0 -18 -13.5 -32t-32.5 -14zM644 540q-20 0 -33 14.5t-13 33.5q0 18 13.5 32t32.5 14
t33.5 -13.5t14.5 -32.5t-14.5 -33.5t-33.5 -14.5zM76 340l63 12l-1 -5q-15 -66 -15 -107q0 -38 11.5 -66t29.5 -44t46.5 -25t56.5 -12t66 -3h346q-85 54 -130 138v2q25 79 77.5 138.5t126.5 59.5q72 0 117 -50t45 -120q0 -87 -74 -164q55 -4 167 -4h1l6 -5v-80l-6 -5h-56
q-81 0 -156 27q-2 1 -9 4t-12 5q-12 6 -18 6q-5 0 -18 -5q-6 -3 -21 -9q-83 -28 -195 -28h-212q-259 0 -259 218q0 56 22 120zM619 246l4 -4q59 -94 148 -128l5 -2v1l2 2q36 30 51.5 55t15.5 65q0 45 -30.5 75.5t-76.5 30.5q-36 0 -67.5 -28t-51.5 -67z" />
    <glyph glyph-name="uniFB6C" unicode="&#x6a4;" horiz-adv-x="509" arabic-form="initial" 
d="M314 608q-19 0 -32.5 14t-13.5 32q0 19 13.5 33.5t32.5 14.5t33.5 -15t14.5 -33q0 -19 -14.5 -32.5t-33.5 -13.5zM239 708q-19 0 -32.5 14t-13.5 31q0 18 13.5 32t32.5 14t32.5 -14t13.5 -32q0 -17 -13.5 -31t-32.5 -14zM165 608q-19 0 -32.5 14t-13.5 32q0 19 13.5 33.5
t32.5 14.5q18 0 31.5 -15t13.5 -33t-13.5 -32t-31.5 -14zM422 0h-440l-7 10v69l7 11h389l2 59q-193 0 -301 92l-1 1v1q5 38 18 80t35 85.5t57.5 71.5t77.5 28q49 0 87 -32.5t58 -81.5t29.5 -97.5t9.5 -91.5q0 -107 -20 -203zM250 416q-69 0 -108 -134l-1 -4
q51 -35 101 -44.5t130 -9.5q-31 192 -122 192z" />
    <glyph glyph-name="uniFB6D" unicode="&#x6a4;" horiz-adv-x="526" arabic-form="medial" 
d="M338 540q-20 0 -33 14.5t-13 33.5q0 18 13.5 32t32.5 14q20 0 34 -13.5t14 -32.5q0 -20 -14 -34t-34 -14zM263 640q-19 0 -32.5 14t-13.5 32q0 19 13 33t33 14t33 -14t13 -33q0 -18 -13.5 -32t-32.5 -14zM188 540q-19 0 -32 14.5t-13 33.5q0 18 13.5 32t31.5 14
q19 0 32.5 -14t13.5 -32q0 -19 -13 -33.5t-33 -14.5zM545 90l6 -5v-80l-6 -5h-62q-105 0 -178 37q-12 5 -17 5q-4 0 -22 -7q-78 -35 -204 -35h-81l-6 9v71l7 10h227q-88 66 -127 138v2q12 36 29.5 68t42.5 62.5t59.5 48.5t73.5 18q74 0 118 -49.5t44 -121.5q0 -39 -11 -66.5
t-36 -61.5q-18 -22 -28 -34q58 -4 170 -4h1zM154 245l3 -4q57 -93 144 -127q1 0 2.5 -1t2.5 -1v1l2 2q35 31 52.5 56.5t17.5 61.5q0 48 -29.5 78t-77.5 30q-67 0 -117 -96z" />
    <glyph glyph-name="uniFB9F" unicode="&#x6ba;" horiz-adv-x="645" arabic-form="final" 
d="M80 247l63 10l-1 -5q-17 -66 -17 -132q0 -101 51.5 -148.5t155.5 -47.5q82 0 133 21v400h75v-235q37 -14 58.5 -17t67.5 -3h1l6 -7v-77l-6 -6h-25q-43 0 -102 43v-146l-2 -1q-119 -58 -227 -58q-126 0 -191.5 67t-65.5 190q0 75 25 150z" />
    <glyph glyph-name="uniFC31" unicode="&#xfc31;" horiz-adv-x="1070" arabic-form="isolated" 
d="M779 636q-19 0 -32.5 14t-13.5 32q0 19 13 33.5t33 14.5t33 -14.5t13 -33.5q0 -18 -13.5 -32t-32.5 -14zM434 67l28 72l3 -1q99 -48 217 -48h251l2 59q-194 0 -301 91l-1 1v1q5 38 17.5 81.5t34.5 88.5t57.5 74.5t77.5 29.5q53 0 96 -45q45 -46 66.5 -119.5t21.5 -146.5
q0 -107 -20 -203l-1 -2h-246q-25 0 -51 8q-7 2 -22.5 7t-24.5 7l-10 -17q1 0 1 -0.5t1 -0.5l3 -3q62 -51 99 -99l1 -1l-23 -83l-2 -1q-147 -72 -339 -72q-316 0 -316 245q0 77 27 146l1 2l63 10l-1 -5q-19 -61 -19 -129q0 -55 22 -92.5t62.5 -55.5t83 -25t97.5 -7
q165 0 270 41l2 1l1 1q1 1 2 1h1l2 1q-52 63 -105 106t-126 80zM701 282l-1 -4q49 -34 103 -44t131 -10q-5 32 -13 61t-22 63.5t-37.5 55t-52.5 20.5q-23 0 -41.5 -13.5t-32 -39.5t-20 -44t-14.5 -45z" />
    <glyph glyph-name="uniFC32" unicode="&#xfc32;" horiz-adv-x="1070" arabic-form="isolated" 
d="M796 637q-19 0 -32.5 14t-13.5 32q0 19 13 33.5t33 14.5t33 -14.5t13 -33.5q0 -18 -13.5 -32t-32.5 -14zM434 67l28 72l3 -1q99 -48 217 -48h251l2 59q-194 0 -301 91l-1 1v1q5 38 17.5 81.5t34.5 88.5t57.5 74.5t77.5 29.5q53 0 96 -45q45 -46 66.5 -119.5t21.5 -146.5
q0 -107 -20 -203l-1 -2h-246q-25 0 -51 8q-7 2 -22.5 7t-24.5 7l-10 -17q1 0 1 -0.5t1 -0.5l3 -3q62 -51 99 -99l1 -1l-23 -83l-2 -1q-147 -72 -339 -72q-316 0 -316 245q0 77 27 146l1 2l63 10l-1 -5q-19 -61 -19 -129q0 -55 22 -92.5t62.5 -55.5t83 -25t97.5 -7
q165 0 270 41l2 1l1 1q1 1 2 1h1l2 1q-52 63 -105 106t-126 80zM701 282l-1 -4q49 -34 103 -44t131 -10q-5 32 -13 61t-22 63.5t-37.5 55t-52.5 20.5q-23 0 -41.5 -13.5t-32 -39.5t-20 -44t-14.5 -45zM448 -444q-19 0 -32.5 14.5t-13.5 33.5q0 18 13.5 31.5t32.5 13.5
q18 0 31.5 -13.5t13.5 -31.5t-13.5 -33t-31.5 -15zM296 -444q-19 0 -32.5 14.5t-13.5 33.5q0 18 13.5 31.5t32.5 13.5t32.5 -13.5t13.5 -31.5q0 -19 -13.5 -33.5t-32.5 -14.5z" />
    <glyph glyph-name="uniFC35" unicode="&#xfc35;" horiz-adv-x="1070" arabic-form="isolated" 
d="M853 625q-19 0 -32.5 14t-13.5 32q0 19 13 33.5t33 14.5t33 -14.5t13 -33.5q0 -18 -13.5 -32t-32.5 -14zM703 625q-18 0 -32.5 14t-14.5 32q0 20 14 34t33 14q20 0 33 -14.5t13 -33.5q0 -18 -13.5 -32t-32.5 -14zM434 67l28 72l3 -1q99 -48 217 -48h251l2 59
q-194 0 -301 91l-1 1v1q5 38 17.5 81.5t34.5 88.5t57.5 74.5t77.5 29.5q53 0 96 -45q45 -46 66.5 -119.5t21.5 -146.5q0 -107 -20 -203l-1 -2h-246q-25 0 -51 8q-7 2 -22.5 7t-24.5 7l-10 -17q1 0 1 -0.5t1 -0.5l3 -3q62 -51 99 -99l1 -1l-23 -83l-2 -1q-147 -72 -339 -72
q-316 0 -316 245q0 77 27 146l1 2l63 10l-1 -5q-19 -61 -19 -129q0 -55 22 -92.5t62.5 -55.5t83 -25t97.5 -7q165 0 270 41l2 1l1 1q1 1 2 1h1l2 1q-52 63 -105 106t-126 80zM701 282l-1 -4q49 -34 103 -44t131 -10q-5 32 -13 61t-22 63.5t-37.5 55t-52.5 20.5
q-23 0 -41.5 -13.5t-32 -39.5t-20 -44t-14.5 -45z" />
    <glyph glyph-name="uniFC36" unicode="&#xfc36;" horiz-adv-x="1070" arabic-form="isolated" 
d="M851 623q-19 0 -32.5 14t-13.5 32q0 19 13 33.5t33 14.5t33 -14.5t13 -33.5q0 -18 -13.5 -32t-32.5 -14zM701 623q-19 0 -33 13.5t-14 32.5q0 20 14 34t33 14q20 0 33 -14.5t13 -33.5q0 -18 -13.5 -32t-32.5 -14zM434 67l28 72l3 -1q99 -48 217 -48h251l2 59
q-194 0 -301 91l-1 1v1q5 38 17.5 81.5t34.5 88.5t57.5 74.5t77.5 29.5q53 0 96 -45q45 -46 66.5 -119.5t21.5 -146.5q0 -107 -20 -203l-1 -2h-246q-25 0 -51 8q-7 2 -22.5 7t-24.5 7l-10 -17q1 0 1 -0.5t1 -0.5l3 -3q62 -51 99 -99l1 -1l-23 -83l-2 -1q-147 -72 -339 -72
q-316 0 -316 245q0 77 27 146l1 2l63 10l-1 -5q-19 -61 -19 -129q0 -55 22 -92.5t62.5 -55.5t83 -25t97.5 -7q165 0 270 41l2 1l1 1q1 1 2 1h1l2 1q-52 63 -105 106t-126 80zM701 282l-1 -4q49 -34 103 -44t131 -10q-5 32 -13 61t-22 63.5t-37.5 55t-52.5 20.5
q-23 0 -41.5 -13.5t-32 -39.5t-20 -44t-14.5 -45zM448 -444q-19 0 -32.5 14.5t-13.5 33.5q0 18 13.5 31.5t32.5 13.5q18 0 31.5 -13.5t13.5 -31.5t-13.5 -33t-31.5 -15zM296 -444q-19 0 -32.5 14.5t-13.5 33.5q0 18 13.5 31.5t32.5 13.5t32.5 -13.5t13.5 -31.5
q0 -19 -13.5 -33.5t-32.5 -14.5z" />
    <glyph glyph-name="uniFC3D" unicode="&#xfc3d;" horiz-adv-x="1224" arabic-form="isolated" 
d="M599 364l353 374l39 -73l-311 -311q118 24 194 24q282 0 293 -284v-1l-50 -93h-381q-26 0 -50 8q-8 2 -23.5 7t-23.5 7l-10 -17q1 0 1 -0.5t1 -0.5l3 -3q62 -51 99 -99l1 -1l-23 -83l-2 -1q-147 -72 -339 -72q-316 0 -316 245q0 77 27 146l1 2l63 10l-1 -5
q-19 -61 -19 -129q0 -55 22 -92.5t62.5 -55.5t83 -25t97.5 -7q164 0 270 41l2 1l1 1q1 1 2 1h1l2 1q-52 63 -105 106t-126 80l-3 2l28 72l3 -1q99 -48 217 -48h415v6q0 39 -16 79q-27 74 -89.5 100t-157.5 26q-98 0 -201 -14h-2z" />
    <glyph glyph-name="uniFC3E" unicode="&#xfc3e;" horiz-adv-x="1224" arabic-form="isolated" 
d="M439 -436q-20 0 -34 14t-14 33t14 32.5t34 13.5q19 0 32.5 -14t13.5 -32t-14 -32.5t-32 -14.5zM287 -436q-18 0 -31.5 14.5t-13.5 32.5t13.5 32t31.5 14q19 0 32.5 -14t13.5 -32t-14 -32.5t-32 -14.5zM599 364l353 374l39 -73l-311 -311q118 24 194 24q282 0 293 -284v-1
l-50 -93h-381q-26 0 -50 8q-8 2 -23.5 7t-23.5 7l-10 -17q1 0 1 -0.5t1 -0.5l3 -3q62 -51 99 -99l1 -1l-23 -83l-2 -1q-147 -72 -339 -72q-316 0 -316 245q0 77 27 146l1 2l63 10l-1 -5q-19 -61 -19 -129q0 -55 22 -92.5t62.5 -55.5t83 -25t97.5 -7q164 0 270 41l2 1l1 1
q1 1 2 1h1l2 1q-52 63 -105 106t-126 80l-3 2l28 72l3 -1q99 -48 217 -48h415v6q0 39 -16 79q-27 74 -89.5 100t-157.5 26q-98 0 -201 -14h-2z" />
    <glyph glyph-name="uniFC43" unicode="&#xfc43;" horiz-adv-x="967" arabic-form="isolated" 
d="M434 67l28 72l3 -1q99 -48 217 -48h119v654h80v-744h-144q-25 0 -51 8q-7 2 -22.5 7t-24.5 7l-10 -17q1 0 1 -0.5t1 -0.5l3 -3q62 -51 99 -99l1 -1l-23 -83l-2 -1q-147 -72 -339 -72q-316 0 -316 245q0 77 27 146l1 2l63 10l-1 -5q-19 -61 -19 -129q0 -55 22 -92.5
t62.5 -55.5t83 -25t97.5 -7q165 0 270 41l2 1l1 1q1 1 2 1h1l2 1q-52 63 -105 106t-126 80z" />
    <glyph glyph-name="uniFC44" unicode="&#xfc44;" horiz-adv-x="967" arabic-form="isolated" 
d="M435 -444q-20 0 -34 14t-14 34q0 19 14 32.5t34 13.5q19 0 32.5 -14t13.5 -32q0 -19 -13.5 -33.5t-32.5 -14.5zM283 -444q-18 0 -31.5 15t-13.5 33t13.5 32t31.5 14q19 0 32.5 -14t13.5 -32q0 -19 -13.5 -33.5t-32.5 -14.5zM434 67l28 72l3 -1q99 -48 217 -48h119v654h80
v-744h-144q-25 0 -51 8q-7 2 -22.5 7t-24.5 7l-10 -17q1 0 1 -0.5t1 -0.5l3 -3q62 -51 99 -99l1 -1l-23 -83l-2 -1q-147 -72 -339 -72q-316 0 -316 245q0 77 27 146l1 2l63 10l-1 -5q-19 -61 -19 -129q0 -55 22 -92.5t62.5 -55.5t83 -25t97.5 -7q165 0 270 41l2 1l1 1
q1 1 2 1h1l2 1q-52 63 -105 106t-126 80z" />
    <glyph glyph-name="uniFC68" unicode="&#xfc68;" horiz-adv-x="892" arabic-form="final" 
d="M754 192q21 -54 50.5 -78t84.5 -24h21l6 -7v-77l-6 -6h-46q-42 0 -74.5 16.5t-51.5 39t-34 60.5t-21.5 65t-14.5 68l-1 8q-159 -34 -159 -114q0 -87 157 -174q5 -3 27 -15.5t34 -20.5l1 -1l-20 -85l-2 -1q-158 -75 -334 -75q-66 0 -120.5 12t-100.5 39t-72 76.5
t-26 117.5q0 73 28 146l1 2l67 11l-2 -5q-22 -58 -22 -130q0 -45 16 -78t41 -52t61.5 -30.5t71.5 -15.5t78 -4q61 0 137 10.5t118 30.5q-69 28 -140 98.5t-71 134.5q0 152 250 213q18 5 36 5h3v-3q8 -103 29 -157zM717 495l4 -40l-2 -1q-46 -10 -100 -10h-90v42l57 -2
q-1 2 -3.5 5t-3.5 4l-9 15q-10 17 -10 33q0 37 16 66l2 2q35 11 69 11q24 0 51 -5l2 -1l-3 -36h-3q-27 3 -55 3q-27 0 -39 -4q-1 -4 -3 -14q0 -54 24 -80h3q55 0 89 11z" />
    <glyph glyph-name="uniFC69" unicode="&#xfc69;" horiz-adv-x="892" arabic-form="final" 
d="M446 -411q-20 0 -34 13.5t-14 32.5t14 32t34 13q19 0 32.5 -13.5t13.5 -31.5t-13.5 -32t-32.5 -14zM294 -411q-18 0 -31.5 14t-13.5 32t13 31.5t32 13.5t32.5 -13.5t13.5 -31.5t-13.5 -32t-32.5 -14zM754 192q21 -54 50.5 -78t84.5 -24h17l6 -7v-77l-6 -6h-42
q-42 0 -74.5 16.5t-51.5 39t-34 60.5t-21.5 65t-14.5 68l-1 8q-159 -34 -159 -114q0 -87 157 -174q5 -3 27 -15.5t34 -20.5l1 -1l-20 -85l-2 -1q-158 -75 -334 -75q-66 0 -120.5 12t-100.5 39t-72 76.5t-26 117.5q0 73 28 146l1 2l67 11l-2 -5q-22 -58 -22 -130
q0 -45 16 -78t41 -52t61.5 -30.5t71.5 -15.5t78 -4q61 0 137 10.5t118 30.5q-69 28 -140 98.5t-71 134.5q0 152 250 213q18 5 36 5h3v-3q8 -103 29 -157zM717 495l4 -40l-2 -1q-46 -10 -100 -10h-90v42l57 -2q-1 2 -3.5 5t-3.5 4l-9 15q-10 17 -10 33q0 37 16 66l2 2
q35 11 69 11q24 0 51 -5l2 -1l-3 -36h-3q-27 3 -55 3q-27 0 -39 -4q-1 -4 -3 -14q0 -54 24 -80h3q55 0 89 11z" />
    <glyph glyph-name="uniFC74" unicode="&#xfc74;" horiz-adv-x="895" arabic-form="final" 
d="M703 486q-19 0 -33 13t-14 32q0 20 14 34t33 14t32.5 -14.5t13.5 -33.5q0 -17 -13.5 -31t-32.5 -14zM552 486q-18 0 -32 14t-14 31q0 19 13.5 33.5t32.5 14.5t32.5 -14.5t13.5 -33.5q0 -17 -14 -31t-32 -14zM906 90l6 -7v-77l-6 -6h-39q-42 0 -74.5 16.5t-51.5 39
t-34 60.5t-21.5 65t-14.5 68l-1 8q-159 -34 -159 -114q0 -87 157 -174q5 -3 27 -15.5t34 -20.5l1 -1l-20 -85l-2 -1q-158 -75 -334 -75q-66 0 -120 12.5t-100 39.5t-72 76t-26 117q0 76 27 146l1 2l67 11l-2 -5q-22 -58 -22 -130q0 -44 16 -77t41 -52.5t61.5 -31t71.5 -15.5
t78 -4q60 0 136.5 10.5t118.5 30.5q-69 28 -140 98.5t-71 134.5q0 50 27.5 90.5t72.5 66t91.5 40.5t94.5 21h3v-3q8 -103 29 -157t50.5 -78t85.5 -24h13z" />
    <glyph glyph-name="uniFC75" unicode="&#xfc75;" horiz-adv-x="892" arabic-form="final" 
d="M696 486q-19 0 -33 13t-14 32q0 20 14 34t33 14t32.5 -14.5t13.5 -33.5q0 -17 -14 -31t-32 -14zM545 486q-19 0 -32.5 14t-13.5 31q0 19 13.5 33.5t32.5 14.5t32.5 -14.5t13.5 -33.5q0 -17 -13.5 -31t-32.5 -14zM754 192q21 -54 50.5 -78t84.5 -24h14l6 -7v-77l-6 -6h-39
q-42 0 -74.5 16.5t-51.5 39t-34 60.5t-21.5 65t-14.5 68l-1 8q-159 -34 -159 -114q0 -87 157 -174q5 -3 27 -15.5t34 -20.5l1 -1l-20 -85l-2 -1q-158 -75 -334 -75q-66 0 -120.5 12t-100.5 39t-72 76.5t-26 117.5q0 73 28 146l1 2l67 11l-2 -5q-22 -58 -22 -130
q0 -45 16 -78t41 -52t61.5 -30.5t71.5 -15.5t78 -4q61 0 137 10.5t118 30.5q-69 28 -140 98.5t-71 134.5q0 152 250 213q18 5 36 5h3v-3q8 -103 29 -157zM456 -415q-19 0 -32.5 14.5t-13.5 33.5q0 18 13.5 31.5t32.5 13.5q18 0 31.5 -13.5t13.5 -31.5t-13.5 -33t-31.5 -15z
M304 -415q-19 0 -32.5 14.5t-13.5 33.5q0 18 13.5 31.5t32.5 13.5t32.5 -13.5t13.5 -31.5q0 -19 -13.5 -33.5t-32.5 -14.5z" />
    <glyph glyph-name="uniFC7A" unicode="&#xfc7a;" horiz-adv-x="893" arabic-form="final" 
d="M669 473q-19 0 -32.5 14t-13.5 32t13.5 32.5t32.5 14.5t33 -14t14 -33t-14 -32.5t-33 -13.5zM519 473q-19 0 -32.5 14t-13.5 32t13.5 32.5t32.5 14.5t32.5 -14.5t13.5 -32.5t-13.5 -32t-32.5 -14zM594 583q-19 0 -32.5 14t-13.5 32t13.5 32t32.5 14t32.5 -14t13.5 -32
t-13.5 -32t-32.5 -14zM904 90l6 -7v-77l-6 -6h-39q-42 0 -74.5 16.5t-51.5 39t-34 60.5t-21.5 65t-14.5 68l-1 8q-159 -34 -159 -114q0 -87 157 -174q5 -3 27 -15.5t34 -20.5l1 -1l-20 -85l-2 -1q-158 -75 -334 -75q-66 0 -120 12.5t-100 39.5t-72 76t-26 117q0 76 27 146
l1 2l67 11l-2 -5q-22 -58 -22 -130q0 -44 16 -77t41 -52.5t61.5 -31t71.5 -15.5t78 -4q60 0 136.5 10.5t118.5 30.5q-69 28 -140 98.5t-71 134.5q0 50 27.5 90.5t72.5 66t91.5 40.5t94.5 21h3v-3q8 -103 29 -157t50.5 -78t85.5 -24h13z" />
    <glyph glyph-name="uniFC7B" unicode="&#xfc7b;" horiz-adv-x="892" arabic-form="final" 
d="M668 473q-19 0 -32.5 14t-13.5 32t13.5 32.5t32.5 14.5t33 -14t14 -33t-14 -32.5t-33 -13.5zM518 473q-19 0 -32.5 14t-13.5 32t13.5 32.5t32.5 14.5t32.5 -14.5t13.5 -32.5t-13.5 -32t-32.5 -14zM593 583q-19 0 -32.5 14t-13.5 32t13.5 32t32.5 14t32.5 -14t13.5 -32
t-13.5 -32t-32.5 -14zM449 -411q-20 0 -34 13.5t-14 32.5t14 32t34 13q19 0 32.5 -13.5t13.5 -31.5t-13.5 -32t-32.5 -14zM297 -411q-18 0 -31.5 14t-13.5 32t13 31.5t32 13.5t32.5 -13.5t13.5 -31.5t-13.5 -32t-32.5 -14zM754 192q21 -54 50.5 -78t84.5 -24h14l6 -7v-77
l-6 -6h-39q-42 0 -74.5 16.5t-51.5 39t-34 60.5t-21.5 65t-14.5 68l-1 8q-159 -34 -159 -114q0 -87 157 -174q5 -3 27 -15.5t34 -20.5l1 -1l-20 -85l-2 -1q-158 -75 -334 -75q-66 0 -120.5 12t-100.5 39t-72 76.5t-26 117.5q0 73 28 146l1 2l67 11l-2 -5q-22 -58 -22 -130
q0 -45 16 -78t41 -52t61.5 -30.5t71.5 -15.5t78 -4q61 0 137 10.5t118 30.5q-69 28 -140 98.5t-71 134.5q0 152 250 213q18 5 36 5h3v-3q8 -103 29 -157z" />
    <glyph glyph-name="uniFC83" unicode="&#xfc83;" horiz-adv-x="1274" arabic-form="final" 
d="M599 364l353 374l39 -73l-311 -311q118 24 194 24q133 0 207.5 -65.5t84.5 -194.5v-4h1q1 -1 2 -1q33 -15 54.5 -19t62.5 -4h1l6 -7v-77l-6 -6h-25q-28 0 -62.5 16.5t-53.5 38.5l-29 -55h-381q-26 0 -50 8q-8 2 -23.5 7t-23.5 7l-10 -17q1 0 1 -0.5t1 -0.5l3 -3
q62 -51 99 -99l1 -1l-23 -83l-2 -1q-147 -72 -339 -72q-316 0 -316 245q0 77 27 146l1 2l63 10l-1 -5q-19 -61 -19 -129q0 -55 22 -92.5t62.5 -55.5t83 -25t97.5 -7q166 0 270 41l2 1l1 1q1 1 2 1h1l2 1q-52 63 -105 106t-126 80l-3 2l28 72l3 -1q99 -48 217 -48h415v6
q0 32 -14 71q-27 80 -88 107t-161 27q-98 0 -201 -14h-2z" />
    <glyph glyph-name="uniFC84" unicode="&#xfc84;" horiz-adv-x="1274" arabic-form="final" 
d="M435 -443q-20 0 -34 14t-14 34q0 19 14 32.5t34 13.5q19 0 32.5 -14t13.5 -32q0 -19 -13.5 -33.5t-32.5 -14.5zM283 -443q-18 0 -31.5 15t-13.5 33t13.5 32t31.5 14q19 0 32.5 -14t13.5 -32q0 -19 -13.5 -33.5t-32.5 -14.5zM599 364l353 374l39 -73l-311 -311
q118 24 194 24q133 0 207.5 -65.5t84.5 -194.5v-4h1q1 -1 2 -1q33 -15 55 -19t63 -4h1l6 -7v-77l-6 -6h-26q-28 0 -62.5 16.5t-53.5 38.5l-29 -55h-381q-26 0 -50 8q-8 2 -23.5 7t-23.5 7l-10 -17q1 0 1 -0.5t1 -0.5l3 -3q62 -51 99 -99l1 -1l-23 -83l-2 -1
q-147 -72 -339 -72q-316 0 -316 245q0 77 27 146l1 2l63 10l-1 -5q-19 -61 -19 -129q0 -55 22 -92.5t62.5 -55.5t83 -25t97.5 -7q166 0 270 41l2 1l1 1q1 1 2 1h1l2 1q-52 63 -105 106t-126 80l-3 2l28 72l3 -1q99 -48 217 -48h415v6q0 32 -14 71q-27 80 -88 107t-161 27
q-98 0 -201 -14h-2z" />
    <glyph glyph-name="uniFC86" unicode="&#xfc86;" horiz-adv-x="992" arabic-form="final" 
d="M886 744v-626l1 -1q28 -27 117 -27h1l6 -7v-77l-6 -6h-19q-60 0 -121 56q-2 1 -6 5l-37 -61h-85q-25 0 -51 8q-7 2 -22.5 7t-24.5 7l-10 -17q1 0 1 -0.5t1 -0.5l3 -3q68 -56 99 -99l1 -1l-23 -83l-2 -1q-147 -72 -339 -72q-316 0 -316 245q0 77 27 146l1 2l63 10l-1 -5
q-19 -61 -19 -129q0 -55 22 -92.5t62.5 -55.5t83 -25t97.5 -7q168 0 270 41l2 1l1 1q1 1 2 1h1l2 1q-52 64 -105 106.5t-126 79.5l-3 2l28 72l3 -1q99 -48 217 -48h127v654h77z" />
    <glyph glyph-name="uniFC87" unicode="&#xfc87;" horiz-adv-x="992" arabic-form="final" 
d="M436 -444q-20 0 -34 14t-14 34q0 19 14 32.5t34 13.5q19 0 32.5 -14t13.5 -32q0 -19 -13.5 -33.5t-32.5 -14.5zM284 -444q-18 0 -31.5 15t-13.5 33t13.5 32t31.5 14q19 0 32.5 -14t13.5 -32q0 -19 -13.5 -33.5t-32.5 -14.5zM886 744v-626l1 -1q28 -27 117 -27h1l6 -7v-77
l-6 -6h-19q-60 0 -121 56q-2 1 -6 5l-37 -61h-85q-25 0 -51 8q-7 2 -22.5 7t-24.5 7l-10 -17q1 0 1 -0.5t1 -0.5l3 -3q68 -56 99 -99l1 -1l-23 -83l-2 -1q-147 -72 -339 -72q-316 0 -316 245q0 77 27 146l1 2l63 10l-1 -5q-19 -61 -19 -129q0 -55 22 -92.5t62.5 -55.5
t83 -25t97.5 -7q168 0 270 41l2 1l1 1q1 1 2 1h1l2 1q-52 64 -105 106.5t-126 79.5l-3 2l28 72l3 -1q99 -48 217 -48h127v654h77z" />
    <glyph glyph-name="uniFC8E" unicode="&#xfc8e;" horiz-adv-x="895" arabic-form="final" 
d="M582 485q-18 0 -32 13.5t-14 31.5q0 19 13.5 33.5t32.5 14.5t32.5 -14.5t13.5 -33.5q0 -18 -14 -31.5t-32 -13.5zM907 90l6 -7v-77l-6 -6h-40q-42 0 -74.5 16.5t-51.5 39t-34 60.5t-21.5 65t-14.5 68l-1 8q-159 -34 -159 -114q0 -87 157 -174q5 -3 27 -15.5t34 -20.5
l1 -1l-20 -85l-2 -1q-158 -75 -334 -75q-66 0 -120 12.5t-100 39.5t-72 76t-26 117q0 76 27 146l1 2l67 11l-2 -5q-22 -58 -22 -130q0 -44 16 -77t41 -52.5t61.5 -31t71.5 -15.5t78 -4q60 0 136.5 10.5t118.5 30.5q-69 28 -140 98.5t-71 134.5q0 50 27.5 90.5t72.5 66
t91.5 40.5t94.5 21h3v-3q8 -103 29 -157t50.5 -78t85.5 -24h14z" />
    <glyph glyph-name="uniFC8F" unicode="&#xfc8f;" horiz-adv-x="895" arabic-form="final" 
d="M450 -412q-20 0 -34 13.5t-14 32.5t14 32t34 13q19 0 32.5 -13.5t13.5 -31.5t-13.5 -32t-32.5 -14zM298 -412q-18 0 -31.5 14t-13.5 32t13 31.5t32 13.5t32.5 -13.5t13.5 -31.5t-13.5 -32t-32.5 -14zM582 487q-18 0 -32 13.5t-14 31.5q0 19 13.5 33.5t32.5 14.5
t32.5 -14.5t13.5 -33.5q0 -18 -14 -31.5t-32 -13.5zM907 90l6 -7v-77l-6 -6h-40q-42 0 -74.5 16.5t-51.5 39t-34 60.5t-21.5 65t-14.5 68l-1 8q-159 -34 -159 -114q0 -87 157 -174q5 -3 27 -15.5t34 -20.5l1 -1l-20 -85l-2 -1q-158 -75 -334 -75q-66 0 -120 12.5t-100 39.5
t-72 76t-26 117q0 76 27 146l1 2l67 11l-2 -5q-22 -58 -22 -130q0 -44 16 -77t41 -52.5t61.5 -31t71.5 -15.5t78 -4q60 0 136.5 10.5t118.5 30.5q-69 28 -140 98.5t-71 134.5q0 50 27.5 90.5t72.5 66t91.5 40.5t94.5 21h3v-3q8 -103 29 -157t50.5 -78t85.5 -24h14z" />
    <glyph glyph-name="uniFCCC" unicode="&#xfccc;" horiz-adv-x="309" arabic-form="initial" 
d="M122 744h74v-554q0 -84 37 -120q6 -6 17.5 -16.5t16.5 -15.5q18 -17 31 -35l1 -2l-51 -69l-3 2q-63 43 -113.5 54.5t-141.5 11.5h-1l-6 7v75l5 8h41q71 0 113 -30l13 16q-33 25 -33 111v557z" />
    <glyph glyph-name="uniFCFB" unicode="&#xfcfb;" horiz-adv-x="1349" arabic-form="isolated" 
d="M1004 57l-6 4l-43 -60q-27 -8 -62 -8q-171 0 -223 265q-161 -34 -161 -115q0 -27 16.5 -55t36.5 -48t56 -43.5t55.5 -34.5t53.5 -29l2 -2l-21 -84l-2 -1q-157 -76 -333 -76q-66 0 -120.5 12.5t-100.5 39.5t-72 76.5t-26 117.5q0 73 28 146l1 2l62 10l-1 -5
q-19 -61 -19 -129q0 -44 16 -77t41 -52.5t61.5 -31t71.5 -15.5t78 -4q59 0 139 11t117 31h-3l-1 1q-75 38 -141.5 105.5t-66.5 133.5q0 49 27 89t71 64.5t90 39t93 20.5h3v-4q19 -157 61 -212q25 -32 58 -44t81 -12q7 0 17 2l29 249l77 9l3 -3l-29 -223q12 -12 77.5 -19.5
t103.5 -7.5h11l-1 8q-27 186 -47 282l-1 3l77 18l1 -3q33 -172 48 -302v-1l-60 -95h-2q-128 0 -221 57z" />
    <glyph glyph-name="uniFCFC" unicode="&#xfcfc;" horiz-adv-x="1349" arabic-form="isolated" 
d="M446 -411q-20 0 -34 13.5t-14 32.5t14 32t34 13q19 0 32.5 -13.5t13.5 -31.5t-13.5 -32t-32.5 -14zM294 -411q-18 0 -31.5 14t-13.5 32t13 31.5t32 13.5t32.5 -13.5t13.5 -31.5t-13.5 -32t-32.5 -14zM1004 57l-6 4l-43 -60q-27 -8 -62 -8q-171 0 -223 265
q-161 -34 -161 -115q0 -27 16.5 -55t36.5 -48t56 -43.5t55.5 -34.5t53.5 -29l2 -2l-21 -84l-2 -1q-157 -76 -333 -76q-66 0 -120.5 12.5t-100.5 39.5t-72 76.5t-26 117.5q0 73 28 146l1 2l62 10l-1 -5q-19 -61 -19 -129q0 -44 16 -77t41 -52.5t61.5 -31t71.5 -15.5t78 -4
q59 0 139 11t117 31h-3l-1 1q-75 38 -141.5 105.5t-66.5 133.5q0 49 27 89t71 64.5t90 39t93 20.5h3v-4q19 -157 61 -212q25 -32 58 -44t81 -12q7 0 17 2l29 249l77 9l3 -3l-29 -223q12 -12 77.5 -19.5t103.5 -7.5h11l-1 8q-27 186 -47 282l-1 3l77 18l1 -3q33 -172 48 -302
v-1l-60 -95h-2q-128 0 -221 57z" />
    <glyph glyph-name="uniFCFD" unicode="&#xfcfd;" horiz-adv-x="1349" arabic-form="isolated" 
d="M1061 493q-19 0 -32.5 13.5t-13.5 31.5q0 19 13 33.5t33 14.5t33 -14.5t13 -33.5q0 -18 -13.5 -31.5t-32.5 -13.5zM909 493q-19 0 -32.5 13.5t-13.5 31.5q0 19 13 33.5t33 14.5t34 -14t14 -34q0 -19 -14 -32t-34 -13zM986 603q-19 0 -32.5 14t-13.5 32q0 19 13.5 33.5
t32.5 14.5t32.5 -14.5t13.5 -33.5q0 -18 -13.5 -32t-32.5 -14zM1004 57l-6 4l-43 -60q-27 -8 -62 -8q-171 0 -223 265q-161 -34 -161 -115q0 -27 16.5 -55t36.5 -48t56 -43.5t55.5 -34.5t53.5 -29l2 -2l-21 -84l-2 -1q-157 -76 -333 -76q-66 0 -120.5 12.5t-100.5 39.5
t-72 76.5t-26 117.5q0 73 28 146l1 2l62 10l-1 -5q-19 -61 -19 -129q0 -44 16 -77t41 -52.5t61.5 -31t71.5 -15.5t78 -4q59 0 139 11t117 31h-3l-1 1q-75 38 -141.5 105.5t-66.5 133.5q0 49 27 89t71 64.5t90 39t93 20.5h3v-4q19 -157 61 -212q25 -32 58 -44t81 -12
q7 0 17 2l29 249l77 9l3 -3l-29 -223q12 -12 77.5 -19.5t103.5 -7.5h11l-1 8q-27 186 -47 282l-1 3l77 18l1 -3q33 -172 48 -302v-1l-60 -95h-2q-128 0 -221 57z" />
    <glyph glyph-name="uniFCFE" unicode="&#xfcfe;" horiz-adv-x="1349" arabic-form="isolated" 
d="M1065 498q-19 0 -32.5 13.5t-13.5 31.5q0 19 13 33.5t33 14.5t33 -14.5t13 -33.5q0 -18 -13.5 -31.5t-32.5 -13.5zM913 498q-19 0 -32.5 13.5t-13.5 31.5q0 19 13 33.5t33 14.5t34 -14t14 -34q0 -19 -14 -32t-34 -13zM990 608q-19 0 -32.5 14t-13.5 32q0 19 13.5 33.5
t32.5 14.5t32.5 -14.5t13.5 -33.5q0 -18 -13.5 -32t-32.5 -14zM448 -411q-20 0 -34 13.5t-14 32.5t14 32t34 13q19 0 32.5 -13.5t13.5 -31.5t-13.5 -32t-32.5 -14zM296 -411q-18 0 -31.5 14t-13.5 32t13 31.5t32 13.5t32.5 -13.5t13.5 -31.5t-13.5 -32t-32.5 -14zM1004 57
l-6 4l-43 -60q-27 -8 -62 -8q-171 0 -223 265q-161 -34 -161 -115q0 -27 16.5 -55t36.5 -48t56 -43.5t55.5 -34.5t53.5 -29l2 -2l-21 -84l-2 -1q-157 -76 -333 -76q-66 0 -120.5 12.5t-100.5 39.5t-72 76.5t-26 117.5q0 73 28 146l1 2l62 10l-1 -5q-19 -61 -19 -129
q0 -44 16 -77t41 -52.5t61.5 -31t71.5 -15.5t78 -4q59 0 139 11t117 31h-3l-1 1q-75 38 -141.5 105.5t-66.5 133.5q0 49 27 89t71 64.5t90 39t93 20.5h3v-4q19 -157 61 -212q25 -32 58 -44t81 -12q7 0 17 2l29 249l77 9l3 -3l-29 -223q12 -12 77.5 -19.5t103.5 -7.5h11l-1 8
q-27 186 -47 282l-1 3l77 18l1 -3q33 -172 48 -302v-1l-60 -95h-2q-128 0 -221 57z" />
    <glyph glyph-name="uniFD05" unicode="&#xfd05;" horiz-adv-x="1309" arabic-form="isolated" 
d="M1247 95l-67 -95h-274q-51 0 -89 13t-62 33t-41 54.5t-25.5 67t-17.5 81.5l-1 8q-159 -33 -159 -114q0 -28 14 -54t40.5 -49t47 -37t50.5 -32q23 -14 66 -38l1 -2l-20 -85l-2 -1q-158 -75 -334 -75q-66 0 -120.5 12.5t-100.5 39.5t-71.5 76.5t-25.5 117.5q0 76 27 146
l1 2l67 11l-2 -5q-22 -58 -22 -130q0 -44 16 -77t41 -52.5t61.5 -31t71.5 -15.5t78 -4q61 0 137.5 11t118.5 31q-71 28 -141.5 100.5t-70.5 138.5q0 40 19.5 73.5t49 56t69 40t75.5 27t73 14.5h3v-3q3 -33 11 -110q74 63 163 116.5t151 53.5q56 0 101 -47q93 -92 93 -266v-1
zM921 90h251v6q0 16 -3 31q-5 29 -10 50t-16.5 50t-25 47.5t-35.5 32t-49 13.5q-62 0 -144 -48q-20 -12 -130 -88l-5 -3l1 -2l1 -1v-1v-2q9 -27 26 -45t40.5 -26t46 -11t52.5 -3z" />
    <glyph glyph-name="uniFD06" unicode="&#xfd06;" horiz-adv-x="1309" arabic-form="isolated" 
d="M450 -411q-20 0 -34 13.5t-14 32.5t14 32t34 13q19 0 32.5 -13.5t13.5 -31.5t-13.5 -32t-32.5 -14zM298 -411q-18 0 -31.5 14t-13.5 32t13 31.5t32 13.5t32.5 -13.5t13.5 -31.5t-13.5 -32t-32.5 -14zM1247 95l-67 -95h-274q-51 0 -89 13t-62 33t-41 54.5t-25.5 67
t-17.5 81.5l-1 8q-159 -33 -159 -114q0 -28 14 -54t40.5 -49t47 -37t50.5 -32q23 -14 66 -38l1 -2l-20 -85l-2 -1q-158 -75 -334 -75q-66 0 -120.5 12.5t-100.5 39.5t-71.5 76.5t-25.5 117.5q0 76 27 146l1 2l67 11l-2 -5q-22 -58 -22 -130q0 -44 16 -77t41 -52.5t61.5 -31
t71.5 -15.5t78 -4q61 0 137.5 11t118.5 31q-71 28 -141.5 100.5t-70.5 138.5q0 40 19.5 73.5t49 56t69 40t75.5 27t73 14.5h3v-3q3 -33 11 -110q74 63 163 116.5t151 53.5q56 0 101 -47q93 -92 93 -266v-1zM921 90h251v6q0 16 -3 31q-5 29 -10 50t-16.5 50t-25 47.5
t-35.5 32t-49 13.5q-62 0 -144 -48q-20 -12 -130 -88l-5 -3l1 -2l1 -1v-1v-2q9 -27 26 -45t40.5 -26t46 -11t52.5 -3z" />
    <glyph glyph-name="uniFD07" unicode="&#xfd07;" horiz-adv-x="1309" arabic-form="isolated" 
d="M942 548q-20 0 -34 14t-14 34q0 19 14 32.5t34 13.5q19 0 32.5 -14t13.5 -32q0 -19 -13.5 -33.5t-32.5 -14.5zM1247 95l-67 -95h-274q-51 0 -89 13t-62 33t-41 54.5t-25.5 67t-17.5 81.5l-1 8q-159 -33 -159 -114q0 -28 14 -54t40.5 -49t47 -37t50.5 -32q23 -14 66 -38
l1 -2l-20 -85l-2 -1q-158 -75 -334 -75q-66 0 -120.5 12.5t-100.5 39.5t-71.5 76.5t-25.5 117.5q0 76 27 146l1 2l67 11l-2 -5q-22 -58 -22 -130q0 -44 16 -77t41 -52.5t61.5 -31t71.5 -15.5t78 -4q61 0 137.5 11t118.5 31q-71 28 -141.5 100.5t-70.5 138.5q0 40 19.5 73.5
t49 56t69 40t75.5 27t73 14.5h3v-3q3 -33 11 -110q74 63 163 116.5t151 53.5q56 0 101 -47q93 -92 93 -266v-1zM921 90h251v6q0 16 -3 31q-5 29 -10 50t-16.5 50t-25 47.5t-35.5 32t-49 13.5q-62 0 -144 -48q-20 -12 -130 -88l-5 -3l1 -2l1 -1v-1v-2q9 -27 26 -45t40.5 -26
t46 -11t52.5 -3z" />
    <glyph glyph-name="uniFD08" unicode="&#xfd08;" horiz-adv-x="1309" arabic-form="isolated" 
d="M447 -411q-20 0 -34 13.5t-14 32.5t14 32t34 13q19 0 32.5 -13.5t13.5 -31.5t-13.5 -32t-32.5 -14zM295 -411q-18 0 -31.5 14t-13.5 32t13 31.5t32 13.5t32.5 -13.5t13.5 -31.5t-13.5 -32t-32.5 -14zM942 547q-20 0 -34 14t-14 34q0 19 14 32.5t34 13.5q19 0 32.5 -14
t13.5 -32q0 -19 -13.5 -33.5t-32.5 -14.5zM1247 95l-67 -95h-274q-51 0 -89 13t-62 33t-41 54.5t-25.5 67t-17.5 81.5l-1 8q-159 -33 -159 -114q0 -28 14 -54t40.5 -49t47 -37t50.5 -32q23 -14 66 -38l1 -2l-20 -85l-2 -1q-158 -75 -334 -75q-66 0 -120.5 12.5t-100.5 39.5
t-71.5 76.5t-25.5 117.5q0 76 27 146l1 2l67 11l-2 -5q-22 -58 -22 -130q0 -44 16 -77t41 -52.5t61.5 -31t71.5 -15.5t78 -4q61 0 137.5 11t118.5 31q-71 28 -141.5 100.5t-70.5 138.5q0 40 19.5 73.5t49 56t69 40t75.5 27t73 14.5h3v-3q3 -33 11 -110q74 63 163 116.5
t151 53.5q56 0 101 -47q93 -92 93 -266v-1zM921 90h251v6q0 16 -3 31q-5 29 -10 50t-16.5 50t-25 47.5t-35.5 32t-49 13.5q-62 0 -144 -48q-20 -12 -130 -88l-5 -3l1 -2l1 -1v-1v-2q9 -27 26 -45t40.5 -26t46 -11t52.5 -3z" />
    <glyph glyph-name="uniFD17" unicode="&#xfd17;" horiz-adv-x="1385" arabic-form="final" 
d="M83 164l62 10l-1 -5q-19 -61 -19 -129q0 -180 268 -180q61 0 139.5 10.5t116.5 31.5h-3l-1 1q-75 38 -141.5 105t-66.5 134q0 49 27 89t71 64.5t90 39t93 20.5h3v-4q19 -155 61 -212q25 -32 58 -44t81 -12q7 0 17 2l29 249l77 9l3 -3l-29 -223q12 -12 77.5 -19.5
t103.5 -7.5h11l-1 8q-27 186 -47 282l-1 3l77 18l1 -3q39 -198 45 -281v-3h1q1 -1 2 -1q47 -23 110 -23h1l6 -7v-77l-6 -6h-19q-57 0 -116 57l-36 -57h-2q-126 0 -221 56q-5 5 -6 5l-43 -60q-27 -8 -62 -8q-171 0 -223 265q-161 -34 -161 -115q0 -29 14 -55t40 -49
t46.5 -36.5t51.5 -31.5q11 -6 33.5 -19t33.5 -19l1 -2l-21 -84l-2 -1q-157 -76 -333 -76q-66 0 -120.5 12.5t-100.5 39.5t-72 76.5t-26 117.5q0 73 28 146z" />
    <glyph glyph-name="uniFD18" unicode="&#xfd18;" horiz-adv-x="1391" arabic-form="final" 
d="M448 -411q-20 0 -34 13.5t-14 32.5t14 32t34 13q19 0 32.5 -13.5t13.5 -31.5t-13.5 -32t-32.5 -14zM296 -411q-18 0 -31.5 14t-13.5 32t13 31.5t32 13.5t32.5 -13.5t13.5 -31.5t-13.5 -32t-32.5 -14zM83 164l62 10l-1 -5q-19 -61 -19 -129q0 -44 16 -77t41 -52.5
t61.5 -31t71.5 -15.5t78 -4q61 0 139.5 10.5t116.5 31.5h-3l-1 1q-75 38 -141.5 105t-66.5 134q0 49 27 89t71 64.5t90 39t93 20.5h3v-4q19 -155 61 -212q25 -32 58 -44t81 -12q7 0 17 2l29 249l77 9l3 -3l-29 -223q12 -12 77.5 -19.5t103.5 -7.5h11l-1 8q-27 186 -47 282
l-1 3l77 18l1 -3q39 -199 45 -280v-3l1 -1h2q49 -24 113 -24h1l6 -7v-77l-6 -6h-22q-57 0 -116 57l-36 -57h-2q-126 0 -221 56q-5 5 -6 5l-43 -60q-27 -8 -62 -8q-171 0 -223 265q-161 -34 -161 -115q0 -27 16.5 -55t36.5 -48t56 -43.5t55.5 -34.5t53.5 -29l2 -2l-21 -84
l-2 -1q-157 -76 -333 -76q-66 0 -120.5 12.5t-100.5 39.5t-72 76.5t-26 117.5q0 73 28 146z" />
    <glyph glyph-name="uniFD19" unicode="&#xfd19;" horiz-adv-x="1391" arabic-form="final" 
d="M1062 498q-19 0 -32.5 13.5t-13.5 31.5q0 19 13 33.5t33 14.5t33 -14.5t13 -33.5q0 -18 -13.5 -31.5t-32.5 -13.5zM910 498q-19 0 -32.5 13.5t-13.5 31.5q0 19 13 33.5t33 14.5t34 -14t14 -34q0 -19 -14 -32t-34 -13zM987 608q-19 0 -32.5 14t-13.5 32q0 19 13.5 33.5
t32.5 14.5t32.5 -14.5t13.5 -33.5q0 -18 -13.5 -32t-32.5 -14zM83 164l62 10l-1 -5q-19 -61 -19 -129q0 -180 268 -180q61 0 139.5 10.5t116.5 31.5h-3l-1 1q-75 38 -141.5 105t-66.5 134q0 49 27 89t71 64.5t90 39t93 20.5h3v-4q19 -155 61 -212q25 -32 58 -44t81 -12
q7 0 17 2l29 249l77 9l3 -3l-29 -223q12 -12 77.5 -19.5t103.5 -7.5h11l-1 8q-27 186 -47 282l-1 3l77 18l1 -3q39 -199 45 -280v-3l1 -1h2q32 -16 54.5 -20t63.5 -4h1l6 -7v-77l-6 -6h-27q-57 0 -116 57l-36 -57h-2q-126 0 -221 56q-5 5 -6 5l-43 -60q-27 -8 -62 -8
q-171 0 -223 265q-161 -34 -161 -115q0 -29 14 -55t40 -49t46.5 -36.5t51.5 -31.5q11 -6 33.5 -19t33.5 -19l1 -2l-21 -84l-2 -1q-157 -76 -333 -76q-66 0 -120.5 12.5t-100.5 39.5t-72 76.5t-26 117.5q0 73 28 146z" />
    <glyph glyph-name="uniFD1A" unicode="&#xfd1a;" horiz-adv-x="1391" arabic-form="final" 
d="M1061 498q-19 0 -32.5 13.5t-13.5 31.5q0 19 13 33.5t33 14.5t33 -14.5t13 -33.5q0 -18 -13.5 -31.5t-32.5 -13.5zM909 498q-19 0 -32.5 13.5t-13.5 31.5q0 19 13 33.5t33 14.5t34 -14t14 -34q0 -19 -14 -32t-34 -13zM986 608q-19 0 -32.5 14t-13.5 32q0 19 13.5 33.5
t32.5 14.5t32.5 -14.5t13.5 -33.5q0 -18 -13.5 -32t-32.5 -14zM448 -411q-20 0 -34 13.5t-14 32.5t14 32t34 13q19 0 32.5 -13.5t13.5 -31.5t-13.5 -32t-32.5 -14zM296 -411q-18 0 -31.5 14t-13.5 32t13 31.5t32 13.5t32.5 -13.5t13.5 -31.5t-13.5 -32t-32.5 -14zM83 164
l62 10l-1 -5q-19 -61 -19 -129q0 -180 268 -180q61 0 139.5 10.5t116.5 31.5h-3l-1 1q-75 38 -141.5 105t-66.5 134q0 49 27 89t71 64.5t90 39t93 20.5h3v-4q19 -155 61 -212q25 -32 58 -44t81 -12q7 0 17 2l29 249l77 9l3 -3l-29 -223q12 -12 77.5 -19.5t103.5 -7.5h11
l-1 8q-27 186 -47 282l-1 3l77 18l1 -3q39 -199 45 -280v-3l1 -1h2q32 -16 55 -20t64 -4h1l6 -7v-77l-6 -6h-28q-57 0 -116 57l-36 -57h-2q-126 0 -221 56q-5 5 -6 5l-43 -60q-27 -8 -62 -8q-171 0 -223 265q-161 -34 -161 -115q0 -29 14 -55t40 -49t46.5 -36.5t51.5 -31.5
q11 -6 33.5 -19t33.5 -19l1 -2l-21 -84l-2 -1q-157 -76 -333 -76q-66 0 -120.5 12.5t-100.5 39.5t-72 76.5t-26 117.5q0 73 28 146z" />
    <glyph glyph-name="uniFD21" unicode="&#xfd21;" horiz-adv-x="1353" arabic-form="final" 
d="M1367 90l6 -7v-77l-6 -6h-26q-37 0 -67 20q-9 5 -27 19l-24 21l-43 -60h-274q-51 0 -89 13t-62 33t-41 54.5t-25.5 67t-17.5 81.5l-1 8q-159 -33 -159 -114q0 -28 14 -54t40.5 -49t47 -37t50.5 -32q23 -14 66 -38l1 -2l-20 -85l-2 -1q-158 -75 -334 -75
q-66 0 -120.5 12.5t-100.5 39.5t-71.5 76.5t-25.5 117.5q0 76 27 146l1 2l67 11l-2 -5q-22 -58 -22 -130q0 -44 16 -77t41 -52.5t61.5 -31t71.5 -15.5t78 -4q61 0 137.5 11t118.5 31q-71 28 -141.5 100.5t-70.5 138.5q0 40 19.5 73.5t49 56t69 40t75.5 27t73 14.5h3v-3
q3 -33 11 -110q74 63 163 116.5t151 53.5q49 0 87.5 -29.5t60 -76.5t32.5 -93.5t13 -90.5v-4l1 -1h2q33 -15 55.5 -19.5t61.5 -4.5h1zM921 90h251v6q0 16 -3 31q-5 29 -10 50t-16.5 50t-25 47.5t-35.5 32t-49 13.5q-62 0 -144 -48q-20 -12 -130 -88l-5 -3l1 -2l1 -1v-1v-2
q9 -27 26 -45t40.5 -26t46 -11t52.5 -3z" />
    <glyph glyph-name="uniFD22" unicode="&#xfd22;" horiz-adv-x="1353" arabic-form="final" 
d="M448 -411q-20 0 -34 13.5t-14 32.5t14 32t34 13q19 0 32.5 -13.5t13.5 -31.5t-13.5 -32t-32.5 -14zM296 -411q-18 0 -31.5 14t-13.5 32t13 31.5t32 13.5t32.5 -13.5t13.5 -31.5t-13.5 -32t-32.5 -14zM1368 90l6 -7v-77l-6 -6h-27q-29 0 -64.5 17.5t-53.5 41.5l-43 -59
h-274q-51 0 -89 13t-62 33t-41 54.5t-25.5 67t-17.5 81.5l-1 8q-159 -33 -159 -114q0 -28 14 -54t40.5 -49t47 -37t50.5 -32q23 -14 66 -38l1 -2l-20 -85l-2 -1q-158 -75 -334 -75q-66 0 -120.5 12.5t-100.5 39.5t-71.5 76.5t-25.5 117.5q0 76 27 146l1 2l67 11l-2 -5
q-22 -58 -22 -130q0 -44 16 -77t41 -52.5t61.5 -31t71.5 -15.5t78 -4q61 0 137.5 11t118.5 31q-71 28 -141.5 100.5t-70.5 138.5q0 40 19.5 73.5t49 56t69 40t75.5 27t73 14.5h3v-3q3 -33 11 -110q74 63 163 116.5t151 53.5q49 0 87.5 -30t60 -76.5t32.5 -93.5t13 -91v-4h1
q1 -1 2 -1q33 -15 55 -19t63 -4h1zM921 90h251v6q0 16 -3 31q-5 29 -10 50t-16.5 50t-25 47.5t-35.5 32t-49 13.5q-62 0 -144 -48q-20 -12 -130 -88l-5 -3l1 -2l1 -1v-1v-2q9 -27 26 -45t40.5 -26t46 -11t52.5 -3z" />
    <glyph glyph-name="uniFD23" unicode="&#xfd23;" horiz-adv-x="1353" arabic-form="final" 
d="M943 549q-20 0 -34 14t-14 34q0 19 14 32.5t34 13.5q19 0 32.5 -14t13.5 -32q0 -19 -13.5 -33.5t-32.5 -14.5zM1368 90l6 -7v-77l-6 -6h-27q-37 0 -67 20q-9 5 -27 19l-24 21l-43 -60h-274q-51 0 -89 13t-62 33t-41 54.5t-25.5 67t-17.5 81.5l-1 8q-159 -33 -159 -114
q0 -28 14 -54t40.5 -49t47 -37t50.5 -32q23 -14 66 -38l1 -2l-20 -85l-2 -1q-158 -75 -334 -75q-66 0 -120.5 12.5t-100.5 39.5t-71.5 76.5t-25.5 117.5q0 76 27 146l1 2l67 11l-2 -5q-22 -58 -22 -130q0 -44 16 -77t41 -52.5t61.5 -31t71.5 -15.5t78 -4q61 0 137.5 11
t118.5 31q-71 28 -141.5 100.5t-70.5 138.5q0 40 19.5 73.5t49 56t69 40t75.5 27t73 14.5h3v-3q3 -33 11 -110q74 63 163 116.5t151 53.5q49 0 87.5 -29.5t60 -76.5t32.5 -93.5t13 -90.5v-4l1 -1h2q32 -16 54.5 -20t63.5 -4h1zM921 90h251v6q0 16 -3 31q-5 29 -10 50
t-16.5 50t-25 47.5t-35.5 32t-49 13.5q-62 0 -144 -48q-20 -12 -130 -88l-5 -3l1 -2l1 -1v-1v-2q9 -27 26 -45t40.5 -26t46 -11t52.5 -3z" />
    <glyph glyph-name="uniFD24" unicode="&#xfd24;" horiz-adv-x="1353" arabic-form="final" 
d="M450 -411q-20 0 -34 13.5t-14 32.5t14 32t34 13q19 0 32.5 -13.5t13.5 -31.5t-13.5 -32t-32.5 -14zM298 -411q-18 0 -31.5 14t-13.5 32t13 31.5t32 13.5t32.5 -13.5t13.5 -31.5t-13.5 -32t-32.5 -14zM943 547q-20 0 -34 14t-14 34q0 19 14 32.5t34 13.5q19 0 32.5 -14
t13.5 -32q0 -19 -13.5 -33.5t-32.5 -14.5zM1370 90l6 -7v-77l-6 -6h-29q-37 0 -67 20q-9 5 -27 19l-24 21l-43 -60h-274q-51 0 -89 13t-62 33t-41 54.5t-25.5 67t-17.5 81.5l-1 8q-159 -33 -159 -114q0 -63 80 -125q19 -15 72 -48q13 -8 35.5 -20t30.5 -17l1 -2l-20 -85
l-2 -1q-158 -75 -334 -75q-66 0 -120.5 12.5t-100.5 39.5t-71.5 76.5t-25.5 117.5q0 76 27 146l1 2l67 11l-2 -5q-22 -58 -22 -130q0 -44 16 -77t41 -52.5t61.5 -31t71.5 -15.5t78 -4q61 0 137.5 11t118.5 31q-71 28 -141.5 100.5t-70.5 138.5q0 40 19.5 73.5t49 56t69 40
t75.5 27t73 14.5h3v-3q3 -33 11 -110q74 63 163 116.5t151 53.5q49 0 87.5 -29.5t60 -76.5t32.5 -93.5t13 -90.5v-4l1 -1h2q33 -16 55 -20t65 -4h1zM921 90h251v6q0 16 -3 31q-5 29 -10 50t-16.5 50t-25 47.5t-35.5 32t-49 13.5q-62 0 -144 -48q-20 -12 -130 -88l-5 -3l1 -2
l1 -1v-1v-2q9 -27 26 -45t40.5 -26t46 -11t52.5 -3z" />
    <glyph glyph-name="uniFDF2" unicode="&#xfdf2;" horiz-adv-x="1392" arabic-form="isolated" 
d="M184 20q-68 0 -108.5 37.5t-40.5 102.5q0 66 32 130l1 1l271 76v80h77v-357h247l1 489h75v-462l3 -1q30 -16 48.5 -21t50.5 -5h125v654h79v-744h-208q-36 0 -62 14t-57 42q-2 1 -6 5l-37 -61h-336v79q-89 -59 -155 -59zM1306 0h-77v744h77v-744zM113 237q-7 -14 -7 -55
q0 -76 93 -76q37 0 72 11q9 3 68 25v157zM544 736q0 30 15 62l1 1l23 6l-2 -5q-9 -23 -9 -40q0 -31 28 -31q40 0 45 67v2h1q12 8 21 8h3v-5q0 -19 -7 -47q19 -13 40 -13q13 0 21 8.5t8 21.5q0 21 -9 52l-1 3l24 9l1 -3q11 -31 11 -54q0 -30 -16.5 -52.5t-46.5 -22.5
q-20 0 -50 22q-27 -36 -58 -36q-21 0 -32 13.5t-11 33.5zM640 865l-10 111l34 13v-122z" />
    <glyph glyph-name="uniFE82" unicode="&#x622;" horiz-adv-x="276" arabic-form="final" 
d="M291 90l7 -8v-75l-7 -7h-206v676h78v-586h128zM245 841l10 -40l-1 -1q-56 -37 -110 -37q-41 0 -81 38q-8 -3 -75 -56l-3 -3l-15 37l2 1q7 6 20 17.5t20 17.5q22 19 42 32l2 2l2 -2q44 -39 94 -39q38 0 89 31z" />
    <glyph glyph-name="uniFE84" unicode="&#x623;" horiz-adv-x="277" arabic-form="final" 
d="M294 90l7 -8v-75l-7 -7h-208v676h78v-586h130zM218 779l4 -41l-2 -1q-47 -10 -101 -10h-90v42l57 -2q-26 34 -26 60q0 32 16 64l2 2q38 12 69 12q27 0 52 -6l2 -1l-3 -36h-3q-29 3 -56 3t-39 -4q-1 -3 -3 -13q0 -57 24 -82h3q55 0 90 12z" />
    <glyph glyph-name="uniFE86" unicode="&#x624;" horiz-adv-x="534" arabic-form="final" 
d="M340 571l4 -42l-2 -1q-42 -9 -98 -9h-92v42l59 -4q-1 2 -3 5.5t-3 5.5q-4 5 -10 15q-12 17 -12 35q0 30 18 64l2 2q32 13 69 13q21 0 49 -5l2 -1l-3 -38h-3q-27 3 -53 3q-27 0 -39 -4q-2 -6 -2 -13q-1 -6 -1 -15q0 -22 7 -36q2 -6 17 -31h3q51 0 87 13zM457 89l91 1l6 -7
v-72l-7 -11h-94q-6 -28 -9 -41q-17 -87 -74 -132.5t-148 -45.5q-65 0 -123 26l-2 1l-11 84l5 -2q62 -23 144 -23q72 0 103 31t43 103q-91 1 -180 40t-140 106l-1 1v2q9 38 25 79.5t41 85t61.5 71t78.5 27.5q51 0 89.5 -34t59 -86.5t31 -102.5t11.5 -95v-6zM376 90h7v6
q0 13 -7 57q-30 170 -123 170q-42 0 -77 -53q-16 -28 -25 -49q-4 -9 -10 -24t-7 -18v-1q41 -42 107.5 -64t134.5 -24z" />
    <glyph glyph-name="uniFE88" unicode="&#x625;" horiz-adv-x="269" arabic-form="final" 
d="M235 -205l4 -40l-2 -1q-47 -10 -101 -10h-90v42l57 -2q-26 34 -26 60q0 31 16 63l2 2q35 11 69 11q24 0 52 -5l2 -1l-3 -35h-3q-38 2 -56 2q-13 0 -21 -1q-12 0 -18 -2q-1 -2 -3 -13q0 -57 24 -82h3q55 0 90 11zM286 90l5 -8v-75l-6 -7h-199v744h76v-654h124z" />
    <glyph glyph-name="uniFE8A" unicode="&#x626;" horiz-adv-x="777" arabic-form="final" 
d="M434 67l28 72l3 -1q59 -30 113.5 -39t133.5 -9h78h1l6 -7v-78l-6 -5h-54q-25 0 -52 8q-7 2 -22 7t-24 7l-10 -17q1 0 1 -0.5t1 -0.5l3 -3q70 -62 99 -99l1 -1l-23 -83l-2 -1q-147 -72 -339 -72q-316 0 -316 245q0 77 27 146l1 2l63 10l-1 -5q-19 -61 -19 -129
q0 -55 22 -92.5t62 -55.5t82.5 -25t98.5 -7q168 0 272 41l2 1l1 1q1 1 2 1q1 1 2 1q-93 115 -232 186zM216 289l4 -40l-2 -1q-47 -10 -101 -10h-90v42l57 -2q-26 34 -26 59q0 32 16 64l2 2q35 11 69 11q24 0 52 -5l2 -1l-3 -36h-3q-28 3 -56 3q-27 0 -39 -4q-1 -3 -3 -13
q0 -56 24 -81h3q55 0 90 11z" />
    <glyph glyph-name="uniFE8B" unicode="&#x626;" horiz-adv-x="312" arabic-form="initial" 
d="M162 90v301h75v-391h-251l-10 10v72l10 8h176zM274 545l4 -39l-2 -1q-47 -10 -98 -10h-92v41l59 -2q-26 34 -26 60q0 32 16 64l2 2q35 11 68 11q22 0 50 -5l2 -1l-3 -36h-3q-27 3 -54 3t-38 -4q-1 -3 -3 -13q0 -57 24 -82h3q53 0 87 11z" />
    <glyph glyph-name="uniFE8C" unicode="&#x626;" horiz-adv-x="356" arabic-form="medial" 
d="M370 90l6 -7v-77l-6 -6h-28q-31 0 -62.5 17t-53.5 41l-3 3l-1 1q0 2 -1 2t-1 1t-1 2l-38 -67h-194l-10 10v72l10 8h182v268h76v-242h1l2 -1q36 -17 56.5 -21t64.5 -4h1zM274 526l4 -39l-2 -1q-47 -10 -98 -10h-92v42l59 -2q-2 2 -4.5 5t-3.5 4l-9 15q-9 15 -9 35
q0 32 16 64l2 2q35 11 68 11q22 0 50 -5l2 -1l-3 -36h-3q-27 3 -54 3t-38 -4q-1 -3 -3 -13q0 -57 24 -81h3q52 0 87 10z" />
    <glyph glyph-name="uniFE8E" unicode="&#x627;" horiz-adv-x="270" arabic-form="final" 
d="M286 90l5 -8v-75l-6 -7h-199v744h76v-654h124z" />
    <glyph glyph-name="uniFE90" unicode="&#x628;" horiz-adv-x="879" arabic-form="final" 
d="M422 -203q-19 0 -32.5 14.5t-13.5 33.5q0 18 13.5 31.5t32.5 13.5q20 0 34 -13t14 -32q0 -20 -14 -34t-34 -14zM894 90l6 -7v-77l-6 -6h-27q-30 0 -67 20t-54 45l-41 -65h-394q-257 0 -257 218q0 54 21 120l1 2l64 12l-1 -5q-15 -53 -15 -107q0 -38 11.5 -66t29.5 -44
t46.5 -25t56.5 -12t66 -3h360v268h76v-242h1q1 -1 2 -1q34 -16 56 -20.5t64 -4.5h1z" />
    <glyph glyph-name="uniFE91" unicode="&#x628;" horiz-adv-x="314" arabic-form="initial" 
d="M154 -202q-19 0 -32.5 14.5t-13.5 33.5q0 18 13.5 31.5t32.5 13.5t32 -13.5t13 -31.5q0 -19 -13 -33.5t-32 -14.5zM162 391h75v-391h-252l-10 10v72l10 8h177v301z" />
    <glyph glyph-name="uniFE92" unicode="&#x628;" horiz-adv-x="356" arabic-form="medial" 
d="M179 -202q-19 0 -32.5 14.5t-13.5 33.5q0 18 13.5 31.5t32.5 13.5q18 0 31.5 -13.5t13.5 -31.5t-13.5 -33t-31.5 -15zM369 90l6 -7v-77l-6 -6h-27q-31 0 -62.5 17t-53.5 41l-3 3l-1 1q0 2 -1 2t-1 1t-1 2l-38 -67h-196l-10 10v72l10 8h184v268h76v-242h1l2 -1
q4 -2 7.5 -4t7.5 -4.5t6 -3.5q35 -13 99 -13h1z" />
    <glyph glyph-name="uniFE94" unicode="&#x629;" horiz-adv-x="511" arabic-form="final" 
d="M35 160q0 66 32 130l1 1l271 76v80h77v-357h121l6 -9v-72l-6 -9h-198v79q-89 -59 -155 -59q-68 0 -108.5 37.5t-40.5 102.5zM106 182q0 -76 93 -76q37 0 72 11q9 3 68 25v157l-226 -62q-7 -14 -7 -55zM78 579q0 18 13.5 32t32.5 14t33.5 -13.5t14.5 -32.5q0 -20 -14 -34
t-34 -14t-33 14.5t-13 33.5zM230 579q0 18 13.5 32t31.5 14q19 0 32.5 -14t13.5 -32q0 -19 -13 -33.5t-33 -14.5t-32.5 14.5t-12.5 33.5z" />
    <glyph glyph-name="uniFE96" unicode="&#x62a;" horiz-adv-x="879" arabic-form="final" 
d="M494 453q-19 0 -32.5 14t-13.5 32q0 17 14 31t32 14t32 -14t14 -31q0 -18 -13.5 -32t-32.5 -14zM342 453q-19 0 -32.5 14t-13.5 32q0 17 14 31t32 14t32 -14t14 -31q0 -18 -13.5 -32t-32.5 -14zM898 90l6 -7v-77l-6 -6h-31q-30 0 -67 20t-54 45l-41 -65h-394
q-257 0 -257 218q0 54 21 120l1 2l64 12l-1 -5q-15 -53 -15 -107q0 -38 11.5 -66t29.5 -44t46.5 -25t56.5 -12t66 -3h360v268h76v-242l3 -1q36 -20 61 -22q21 -3 63 -3h1z" />
    <glyph glyph-name="uniFE97" unicode="&#x62a;" horiz-adv-x="314" arabic-form="initial" 
d="M243 514q-19 0 -32.5 13.5t-13.5 31.5q0 19 13 33.5t33 14.5t33 -14.5t13 -33.5q0 -18 -13.5 -31.5t-32.5 -13.5zM92 514q-19 0 -32.5 13.5t-13.5 31.5q0 19 13 33.5t33 14.5t34 -14t14 -34q0 -19 -14 -32t-34 -13zM162 90v301h75v-391h-250l-10 10v72l10 8h175z" />
    <glyph glyph-name="uniFE98" unicode="&#x62a;" horiz-adv-x="356" arabic-form="medial" 
d="M376 90l6 -7v-77l-6 -6h-34q-31 0 -62.5 17t-53.5 41l-3 3l-1 1q0 2 -1 2t-1 1t-1 2l-38 -67h-195l-10 10v72l10 8h183v268h76v-242h1l2 -1q18 -10 30 -15q13 -6 32 -7q22 -3 65 -3h1zM243 514q-19 0 -32.5 13.5t-13.5 31.5q0 19 13 33.5t33 14.5t33 -14.5t13 -33.5
q0 -18 -13.5 -31.5t-32.5 -13.5zM92 514q-19 0 -32.5 13.5t-13.5 31.5q0 19 13 33.5t33 14.5t34 -14t14 -34q0 -19 -14 -32t-34 -13z" />
    <glyph glyph-name="uniFE9A" unicode="&#x62b;" horiz-adv-x="879" arabic-form="final" 
d="M493 442q-19 0 -32.5 14t-13.5 32t13.5 31.5t32.5 13.5t32.5 -13.5t13.5 -31.5t-13.5 -32t-32.5 -14zM341 442q-19 0 -32.5 14t-13.5 32t13.5 31.5t32.5 13.5t32.5 -13.5t13.5 -31.5t-13.5 -32t-32.5 -14zM416 550q-19 0 -32.5 14.5t-13.5 33.5q0 18 13.5 32t32.5 14
q20 0 34 -13.5t14 -32.5q0 -20 -14 -34t-34 -14zM897 90l6 -7v-77l-6 -6h-30q-30 0 -67 20t-54 45l-41 -65h-394q-257 0 -257 218q0 54 21 120l1 2l64 12l-1 -5q-15 -53 -15 -107q0 -38 11.5 -66t29.5 -44t46.5 -25t56.5 -12t66 -3h360v268h76v-242h1l2 -1q36 -19 59 -22
q3 -1 28 -3h36h1z" />
    <glyph glyph-name="uniFE9B" unicode="&#x62b;" horiz-adv-x="314" arabic-form="initial" 
d="M243 503q-19 0 -32.5 13.5t-13.5 31.5q0 19 13 33.5t33 14.5t33 -14.5t13 -33.5q0 -18 -13.5 -31.5t-32.5 -13.5zM92 503q-19 0 -32.5 13.5t-13.5 31.5q0 19 13 33.5t33 14.5t34 -14t14 -34q0 -19 -14 -32t-34 -13zM169 613q-19 0 -32.5 14t-13.5 32q0 19 13.5 33.5
t32.5 14.5q18 0 31.5 -15t13.5 -33t-13.5 -32t-31.5 -14zM162 90v301h75v-391h-251l-10 10v72l10 8h176z" />
    <glyph glyph-name="uniFE9C" unicode="&#x62b;" horiz-adv-x="356" arabic-form="medial" 
d="M265 503q-19 0 -32.5 13.5t-13.5 31.5q0 19 13 33.5t33 14.5t33 -14.5t13 -33.5q0 -18 -13.5 -31.5t-32.5 -13.5zM116 503q-20 0 -34 13t-14 32q0 20 14 34t34 14t33 -14.5t13 -33.5q0 -18 -13.5 -31.5t-32.5 -13.5zM191 613q-19 0 -32.5 14t-13.5 32q0 19 13.5 33.5
t32.5 14.5q18 0 31.5 -15t13.5 -33t-13.5 -32t-31.5 -14zM369 90l6 -7v-77l-6 -6h-27q-31 0 -62.5 17t-53.5 41l-3 3l-1 1q0 2 -1 2t-1 1t-1 2l-38 -67h-191l-10 10v72l10 8h179v268h76v-242h1l2 -1q4 -2 7.5 -4t7.5 -4.5t6 -3.5q35 -13 99 -13h1z" />
    <glyph glyph-name="uniFE9E" unicode="&#x62c;" horiz-adv-x="636" arabic-form="final" 
d="M101 345v81l2 1q60 27 122 27q45 0 115 -40.5t118.5 -80.5t95.5 -84l1 -1l-21 -87h-2q-79 -11 -107 -18q26 -30 56 -41.5t75 -11.5h98l6 -6v-79l-6 -5h-100q-56 0 -104.5 27.5t-72.5 76.5q-8 14 -12 22l-1 1v1v4l-2 -1q-133 -31 -223 -83h-3l-2 -2q-16 -41 -16 -89
q0 -138 177 -138q82 0 206 39l5 1l-1 -4q-2 -12 -2 -72v-2l-2 -1q-110 -48 -228 -48q-101 0 -163.5 52t-62.5 150q0 90 38 168l1 1q59 36 131 62t120.5 37t141.5 29q-174 132 -267 132q-48 0 -107 -17zM291 -79q-19 0 -32 14.5t-13 33.5q0 18 13.5 32t31.5 14q19 0 32.5 -14
t13.5 -32q0 -19 -13.5 -33.5t-32.5 -14.5z" />
    <glyph glyph-name="uniFE9F" unicode="&#x62c;" horiz-adv-x="569" arabic-form="initial" 
d="M280 -172q-19 0 -32.5 14t-13.5 32t14 31.5t32 13.5t32 -13.5t14 -31.5t-13.5 -32t-32.5 -14zM66 298v83l2 1q73 25 119 25q73 0 179 -74q31 -21 157 -123l1 -1l-19 -76l-2 -1q-187 -80 -209 -88q-120 -44 -223 -44h-84l-10 10v70l10 10h91q162 0 364 101q-81 59 -124 83
q-80 44 -143 44q-40 0 -105 -19z" />
    <glyph glyph-name="uniFEA0" unicode="&#x62c;" horiz-adv-x="619" arabic-form="medial" 
d="M330 -172q-19 0 -32.5 14t-13.5 32t14 31.5t32 13.5q20 0 34 -13t14 -32t-14 -32.5t-34 -13.5zM66 298v83l2 1q73 25 119 25q73 0 179 -74q27 -18 53.5 -38.5t62 -50t41.5 -34.5l1 -1l-19 -76l-55 -24q45 -19 90 -19h91l6 -6v-79l-6 -5h-90q-86 0 -148 85l-3 -1h-2
q-4 -2 -7 -3q-10 -3 -20 -9q-8 -3 -20 -9l-14 -7q-126 -56 -256 -56h-84l-10 10v70l10 10h91q162 0 364 101q-81 59 -124 83q-80 44 -143 44q-40 0 -105 -19z" />
    <glyph glyph-name="uniFEA2" unicode="&#x62d;" horiz-adv-x="636" arabic-form="final" 
d="M101 345v81l2 1q60 27 122 27q45 0 115 -40.5t118.5 -80.5t95.5 -84l1 -1l-21 -87h-2q-79 -11 -107 -18q26 -30 56 -41.5t75 -11.5h95l6 -6v-79l-6 -5h-97q-56 0 -104.5 27.5t-72.5 76.5q-8 14 -12 22l-1 1v1v4l-2 -1q-133 -31 -223 -83h-3l-2 -2q-16 -41 -16 -89
q0 -138 177 -138q82 0 206 39l5 1l-1 -4q-2 -12 -2 -72v-2l-2 -1q-110 -48 -228 -48q-101 0 -163.5 52t-62.5 150q0 90 38 168l1 1q59 36 131 62t120.5 37t141.5 29q-174 132 -267 132q-48 0 -107 -17z" />
    <glyph glyph-name="uniFEA3" unicode="&#x62d;" horiz-adv-x="569" arabic-form="initial" 
d="M66 298v83l2 1q73 25 119 25q73 0 179 -74q31 -21 157 -123l1 -1l-19 -76l-2 -1q-187 -80 -209 -88q-120 -44 -223 -44h-82l-10 10v70l10 10h89q162 0 364 101q-81 59 -124 83q-80 44 -143 44q-40 0 -105 -19z" />
    <glyph glyph-name="uniFEA4" unicode="&#x62d;" horiz-adv-x="619" arabic-form="medial" 
d="M66 298v83l2 1q73 25 119 25q73 0 179 -74q27 -18 53.5 -38.5t62 -50t41.5 -34.5l1 -1l-19 -76l-55 -24q45 -19 90 -19h91l6 -6v-79l-6 -5h-90q-86 0 -148 85l-3 -1h-2q-4 -2 -7 -3q-10 -3 -20 -9q-8 -3 -20 -9l-14 -7q-126 -56 -256 -56h-84l-10 10v70l10 10h91
q162 0 364 101q-81 59 -124 83q-80 44 -143 44q-40 0 -105 -19z" />
    <glyph glyph-name="uniFEA6" unicode="&#x62e;" horiz-adv-x="636" arabic-form="final" 
d="M239 594q-19 0 -32.5 14t-13.5 32t14 32.5t32 14.5t31.5 -14.5t13.5 -32.5t-13.5 -32t-31.5 -14zM101 345v81l2 1q60 27 122 27q45 0 115 -40.5t118.5 -80.5t95.5 -84l1 -1l-21 -87h-2q-79 -11 -107 -18q26 -30 56 -41.5t75 -11.5h96l6 -6v-79l-6 -5h-98
q-56 0 -104.5 27.5t-72.5 76.5q-8 14 -12 22l-1 1v1v4l-2 -1q-133 -31 -223 -83h-3l-2 -2q-16 -41 -16 -89q0 -138 177 -138q82 0 206 39l5 1l-1 -4q-2 -12 -2 -72v-2l-2 -1q-110 -48 -228 -48q-101 0 -163.5 52t-62.5 150q0 90 38 168l1 1q59 36 131 62t120.5 37t141.5 29
q-174 132 -267 132q-48 0 -107 -17z" />
    <glyph glyph-name="uniFEA7" unicode="&#x62e;" horiz-adv-x="569" arabic-form="initial" 
d="M189 552q-19 0 -32.5 14.5t-13.5 33.5q0 18 13.5 32t32.5 14q18 0 31.5 -14t13.5 -32t-13.5 -33t-31.5 -15zM66 298v83l2 1q73 25 119 25q73 0 179 -74q31 -21 157 -123l1 -1l-19 -76l-2 -1q-187 -80 -209 -88q-120 -44 -223 -44h-85l-10 10v70l10 10h92q162 0 364 101
q-81 59 -124 83q-80 44 -143 44q-40 0 -105 -19z" />
    <glyph glyph-name="uniFEA8" unicode="&#x62e;" horiz-adv-x="619" arabic-form="medial" 
d="M192 551q-19 0 -32.5 14.5t-13.5 33.5q0 18 13.5 32t32.5 14q18 0 31.5 -14t13.5 -32t-13.5 -33t-31.5 -15zM66 298v83l2 1q73 25 119 25q73 0 179 -74q27 -18 53.5 -38.5t62 -50t41.5 -34.5l1 -1l-19 -76l-55 -24q45 -19 90 -19h91l6 -6v-79l-6 -5h-90q-86 0 -148 85
l-3 -1h-2q-4 -2 -7 -3q-10 -3 -20 -9q-8 -3 -20 -9l-14 -7q-126 -56 -256 -56h-82l-10 10v70l10 10h89q162 0 364 101q-81 59 -124 83q-80 44 -143 44q-40 0 -105 -19z" />
    <glyph glyph-name="uniFEAA" unicode="&#x62f;" horiz-adv-x="511" arabic-form="final" 
d="M185 415l65 49l2 -4q46 -112 118 -256q14 -30 24 -44q23 -40 51 -55t76 -15h1l6 -7v-77l-6 -6h-32q-65 0 -119 54q-55 -32 -102.5 -43t-117.5 -11h-100l-22 87l3 3h1q19 0 56.5 -0.5t56.5 -0.5q113 0 188 21l-6 8q-20 33 -49 92q-6 12 -93 203z" />
    <glyph glyph-name="uniFEAC" unicode="&#x630;" horiz-adv-x="511" arabic-form="final" 
d="M171 573q-20 0 -34 13.5t-14 32.5t14 32.5t34 13.5q19 0 32.5 -14t13.5 -32t-13.5 -32t-32.5 -14zM185 415l65 49l2 -4q46 -112 118 -256q14 -30 24 -44q23 -40 51.5 -55t77.5 -15h1l6 -7v-77l-6 -6h-34q-65 0 -119 54q-55 -32 -102.5 -43t-117.5 -11h-100l-22 87l3 3h1
q19 0 56.5 -0.5t56.5 -0.5q113 0 188 21l-6 8q-20 33 -49 92q-6 12 -93 203z" />
    <glyph glyph-name="uniFEAE" unicode="&#x631;" horiz-adv-x="355" arabic-form="final" 
d="M368 90l6 -7v-77l-6 -6h-24q-41 0 -88 34l-21 15q0 -45 -2.5 -76t-12.5 -70.5t-28 -63.5t-51.5 -41t-81.5 -17q-35 0 -68 14l-2 1l-14 84l5 -1q31 -12 83 -12q57 0 77.5 35t20.5 96v360h74v-245h2h2q36 -15 60 -19t68 -4h1z" />
    <glyph glyph-name="uniFEB0" unicode="&#x632;" horiz-adv-x="355" arabic-form="final" 
d="M188 519q-20 0 -33 14.5t-13 33.5q0 18 13.5 32t32.5 14q18 0 31.5 -14t13.5 -32q0 -19 -13 -33.5t-32 -14.5zM367 90l6 -7v-77l-6 -6h-23q-41 0 -88 34l-21 15q0 -45 -2.5 -76t-12.5 -70.5t-28 -63.5t-51.5 -41t-81.5 -17q-35 0 -68 14l-2 1l-14 84l5 -1q31 -12 83 -12
q57 0 77.5 35t20.5 96v360h74v-245h2h2q54 -23 127 -23h1z" />
    <glyph glyph-name="uniFEB2" unicode="&#x633;" horiz-adv-x="1158" arabic-form="final" 
d="M770 57l-6 4l-41 -61h-2q-96 0 -181 54v-157l-2 -1q-119 -58 -227 -58q-126 0 -191.5 67t-65.5 190q0 75 25 150l1 2l63 10l-1 -5q-17 -66 -17 -132q0 -101 51.5 -148.5t155.5 -47.5q82 0 133 21v400h75v-226q1 0 4 -2q55 -27 150 -27h9l33 255h76l-28 -228
q12 -12 78 -19.5t104 -7.5h11q-4 25 -20.5 128t-26.5 158v3l75 18l1 -3q40 -206 45 -276v-3q1 0 3 -1q51 -24 115 -24h1l8 -7v-78l-8 -5h-25q-56 0 -114 58l-37 -58h-2q-130 0 -222 57z" />
    <glyph glyph-name="uniFEB3" unicode="&#x633;" horiz-adv-x="756" arabic-form="initial" 
d="M217 345l-34 -224q66 -31 153 -31h7l34 255h76l-27 -228q12 -12 78 -19.5t104 -7.5h11q-42 249 -49 284v3l76 20l1 -3q32 -157 49 -298v-1l-61 -95h-2q-127 0 -221 57l-6 4l-41 -61h-2q-50 0 -103 16.5t-87 46.5l-8 -63h-176l-6 5v80l6 5h113l40 255h75z" />
    <glyph glyph-name="uniFEB4" unicode="&#x633;" horiz-adv-x="801" arabic-form="medial" 
d="M217 345l-32 -225q63 -30 152 -30h6l34 255h76l-27 -228q12 -12 77.5 -19.5t103.5 -7.5h11q-8 46 -22 137.5t-21 135.5v2l76 18l1 -4q22 -122 31 -184q9 -73 9 -76v-3h1q1 -1 2 -1q34 -17 55.5 -21t62.5 -4h1l6 -7v-77l-6 -6h-25q-57 0 -117 58l-37 -58h-2
q-125 0 -221 56q-5 5 -6 5l-41 -61h-2q-49 0 -102 16t-86 45l-7 -61h-182l-6 5v80l6 5h120l36 255h75z" />
    <glyph glyph-name="uniFEB6" unicode="&#x634;" horiz-adv-x="1158" arabic-form="final" 
d="M819 480q-19 0 -32.5 14t-13.5 31q0 19 13.5 33.5t32.5 14.5t32.5 -14.5t13.5 -33.5q0 -17 -13.5 -31t-32.5 -14zM668 480q-18 0 -32 14t-14 31q0 19 13.5 33.5t32.5 14.5t33 -14t14 -34q0 -19 -13.5 -32t-33.5 -13zM744 590q-19 0 -32.5 14t-13.5 32t13.5 32t32.5 14
t32.5 -14t13.5 -32t-13.5 -32t-32.5 -14zM770 57l-6 4l-41 -61h-2q-96 0 -181 54v-157l-2 -1q-119 -58 -227 -58q-126 0 -191.5 67t-65.5 190q0 75 25 150l1 2l63 10l-1 -5q-17 -66 -17 -132q0 -101 51.5 -148.5t155.5 -47.5q82 0 133 21v400h75v-226q1 0 4 -2
q55 -27 150 -27h9l33 255h76l-28 -228q12 -12 78 -19.5t104 -7.5h11q-4 25 -20.5 128t-26.5 158v3l75 18l1 -3q40 -206 45 -276v-3q1 0 3 -1q51 -24 115 -24h1l8 -7v-78l-8 -5h-25q-56 0 -114 58l-37 -58h-2q-130 0 -222 57z" />
    <glyph glyph-name="uniFEB7" unicode="&#x634;" horiz-adv-x="756" arabic-form="initial" 
d="M458 491q-18 0 -32 13.5t-14 31.5q0 19 13 33.5t33 14.5t33 -14.5t13 -33.5q0 -18 -14 -31.5t-32 -13.5zM306 491q-18 0 -32 13.5t-14 31.5q0 19 13 33.5t33 14.5q19 0 33 -14.5t14 -33.5q0 -17 -14 -31t-33 -14zM383 601q-19 0 -33.5 13.5t-14.5 32.5q0 18 14.5 33
t33.5 15t32.5 -14.5t13.5 -33.5q0 -18 -13.5 -32t-32.5 -14zM217 345l-34 -224q66 -31 153 -31h7l34 255h76l-27 -228q12 -12 78 -19.5t104 -7.5h11l-1 8q-25 165 -48 276v3l76 20l1 -3q32 -157 49 -298v-1l-61 -95h-2q-127 0 -221 57l-6 4l-41 -61h-2q-50 0 -103 16.5
t-87 46.5l-8 -63h-180l-6 5v80l6 5h117l40 255h75z" />
    <glyph glyph-name="uniFEB8" unicode="&#x634;" horiz-adv-x="801" arabic-form="medial" 
d="M217 345l-32 -225q63 -30 152 -30h6l34 255h76l-27 -228q12 -12 77.5 -19.5t103.5 -7.5h11q-8 46 -22 137.5t-21 135.5v2l76 18l1 -4q22 -122 31 -184q9 -73 9 -76v-3h1q1 -1 2 -1q34 -17 55.5 -21t62.5 -4h1l6 -7v-77l-6 -6h-25q-57 0 -117 58l-37 -58h-2
q-125 0 -221 56q-5 5 -6 5l-41 -61h-2q-49 0 -102 16t-86 45l-7 -61h-180l-6 5v80l6 5h116l38 255h75zM467 483q-19 0 -32.5 13.5t-13.5 31.5q0 19 13 33.5t33 14.5t33 -14.5t13 -33.5q0 -18 -13.5 -31.5t-32.5 -13.5zM315 483q-19 0 -32.5 13.5t-13.5 31.5q0 19 13 33.5
t33 14.5q19 0 33 -14.5t14 -33.5q0 -17 -14 -31t-33 -14zM392 593q-19 0 -33.5 13.5t-14.5 32.5q0 18 14.5 33t33.5 15t32.5 -14.5t13.5 -33.5q0 -18 -13.5 -32t-32.5 -14z" />
    <glyph glyph-name="uniFEBA" unicode="&#x635;" horiz-adv-x="1127" arabic-form="final" 
d="M91 247l63 10l-1 -5q-17 -66 -17 -132q0 -102 51 -149t155 -47q84 0 134 21v400h75v-93q103 78 135 98q94 63 155 63q50 0 88.5 -31.5t59.5 -79t31.5 -97t9.5 -92.5l1 -1h2q47 -22 109 -22h1l6 -7v-77l-6 -6h-21q-49 0 -91 37q-8 6 -24 20l-39 -57h-417v-103l-2 -1
q-119 -58 -227 -58q-126 0 -191.5 67t-65.5 190q0 75 25 150zM551 182v-92h409v6q0 17 -6 53q-29 175 -133 175q-49 0 -125.5 -44.5t-141.5 -95.5q-2 -2 -3 -2z" />
    <glyph glyph-name="uniFEBB" unicode="&#x635;" horiz-adv-x="727" arabic-form="initial" 
d="M661 95l-64 -95h-612l-6 7v78l6 5h126v271h74v-107q90 70 133 97q95 62 155 62q59 0 103 -46q85 -88 85 -271v-1zM185 184v-94h405v6q0 17 -6 53q-29 175 -131 175q-50 0 -126.5 -44t-138.5 -94q-2 -2 -3 -2z" />
    <glyph glyph-name="uniFEBC" unicode="&#x635;" horiz-adv-x="763" arabic-form="medial" 
d="M780 90l6 -7v-77l-6 -6h-23q-56 0 -119 61l-41 -61h-605l-6 7v78l6 5h117v271h76v-107q91 70 132 97q95 62 156 62q50 0 88 -30t58 -78t30 -94t12 -91v-4h1l2 -1q32 -16 54 -20.5t61 -4.5h1zM185 184v-94h405v6q0 17 -6 53q-29 175 -131 175q-50 0 -125 -43.5t-140 -94.5
q-2 -2 -3 -2z" />
    <glyph glyph-name="uniFEBE" unicode="&#x636;" horiz-adv-x="1127" arabic-form="final" 
d="M688 523q-20 0 -33.5 14.5t-13.5 33.5t14 32.5t33 13.5q18 0 32 -13.5t14 -32.5q0 -20 -13.5 -34t-32.5 -14zM91 247l63 10l-1 -5q-17 -66 -17 -132q0 -102 51 -149t155 -47q84 0 134 21v400h75v-93q103 78 135 98q92 63 155 63q50 0 88.5 -31.5t59.5 -79t31.5 -97
t9.5 -92.5l1 -1h2q46 -22 107 -22h1l6 -7v-77l-6 -6h-19q-49 0 -91 37q-8 6 -24 20l-39 -57h-417v-103l-2 -1q-119 -58 -227 -58q-126 0 -191.5 67t-65.5 190q0 75 25 150zM551 182v-92h409v6q0 17 -6 53q-29 175 -133 175q-49 0 -125.5 -44.5t-141.5 -95.5q-2 -2 -3 -2z
" />
    <glyph glyph-name="uniFEBF" unicode="&#x636;" horiz-adv-x="727" arabic-form="initial" 
d="M311 523q-20 0 -33 14.5t-13 33.5q0 18 13.5 32t32.5 14t32.5 -14t13.5 -32q0 -19 -13 -33.5t-33 -14.5zM661 95l-64 -95h-601l-6 7v78l6 5h113v271h76v-107q90 70 133 97q95 62 155 62q59 0 103 -46q85 -88 85 -271v-1zM185 184v-94h405v6q0 17 -6 53q-29 175 -131 175
q-50 0 -125 -43.5t-140 -94.5q-2 -2 -3 -2z" />
    <glyph glyph-name="uniFEC0" unicode="&#x636;" horiz-adv-x="763" arabic-form="medial" 
d="M311 524q-20 0 -33 14.5t-13 33.5q0 18 13.5 32t32.5 14t33 -14t14 -32q0 -19 -13.5 -33.5t-33.5 -14.5zM775 90l6 -7v-77l-6 -6h-18q-31 0 -65 18t-54 43l-41 -61h-611l-6 7v78l6 5h125v271h74v-107q91 70 132 97q95 62 156 62q50 0 88 -30t58 -77.5t30 -94t12 -91.5v-4
h1l2 -1q31 -16 51.5 -20.5t58.5 -4.5h1zM185 184v-94h405v6q0 17 -6 53q-29 175 -131 175q-50 0 -126.5 -44t-138.5 -94q-2 -2 -3 -2z" />
    <glyph glyph-name="uniFEC2" unicode="&#x637;" horiz-adv-x="831" arabic-form="final" 
d="M847 90l6 -7v-77l-6 -6h-28q-56 0 -119 61l-39 -61h-600l-39 87l4 3h144v654h74l-1 -494q195 163 292 163q50 0 88 -30t58 -77.5t30 -94t12 -91.5v-4h1l2 -1q33 -16 56 -20.5t64 -4.5h1zM246 184l-3 -3v-91h411v6q0 10 -2 26q-1 4 -2.5 13t-2.5 13q-31 176 -132 176
q-50 0 -131.5 -46.5t-137.5 -93.5z" />
    <glyph glyph-name="uniFEC3" unicode="&#x637;" horiz-adv-x="729" arabic-form="initial" 
d="M663 95l-64 -95h-612l-6 6v78l6 6h123v654h75l-1 -492q91 70 134 98q95 63 156 63q43 0 77 -22.5t54.5 -57t34 -78.5t18.5 -83.5t5 -75.5v-1zM187 184l-3 -3v-91h407v6q0 17 -6 53q-29 175 -131 175q-49 0 -131.5 -47t-135.5 -93z" />
    <glyph glyph-name="uniFEC4" unicode="&#x637;" horiz-adv-x="771" arabic-form="medial" 
d="M784 90l6 -7v-77l-6 -6h-25q-59 0 -120 59l-40 -59h-608l-6 6v78l6 6h117v654h77l-1 -492q91 70 134 98q94 63 156 63q50 0 88 -30t58.5 -77.5t30.5 -94t12 -91.5v-4l3 -1q33 -16 54.5 -20.5t62.5 -4.5h1zM187 184l-3 -3v-91h407v6q0 17 -6 53q-29 175 -131 175
q-49 0 -131.5 -47t-135.5 -93z" />
    <glyph glyph-name="uniFEC6" unicode="&#x638;" horiz-adv-x="831" arabic-form="final" 
d="M426 569q-19 0 -33.5 13.5t-14.5 32.5t14.5 32.5t33.5 13.5t32.5 -14t13.5 -32t-13.5 -32t-32.5 -14zM841 90l6 -7v-77l-6 -6h-22q-32 0 -65.5 17.5t-53.5 43.5l-39 -61h-600l-39 87l4 3h144v654h74l-1 -494q71 61 153 112t139 51q50 0 88 -30t58 -77.5t30 -94t12 -91.5
v-4h1l2 -1q32 -16 53.5 -20.5t60.5 -4.5h1zM246 184l-3 -3v-91h411v6q0 10 -2 26q-1 4 -2.5 13t-2.5 13q-31 176 -132 176q-50 0 -131.5 -46.5t-137.5 -93.5z" />
    <glyph glyph-name="uniFEC7" unicode="&#x638;" horiz-adv-x="729" arabic-form="initial" 
d="M390 569q-19 0 -33.5 13.5t-14.5 32.5t14.5 32.5t33.5 13.5t32.5 -14t13.5 -32t-13.5 -32t-32.5 -14zM663 95l-64 -95h-609l-6 6v78l6 6h118v654h77l-1 -492q91 70 134 98q95 63 156 63q43 0 77 -22.5t54.5 -57t34 -78.5t18.5 -83.5t5 -75.5v-1zM187 184l-3 -3v-91h407v6
q0 17 -6 53q-29 175 -131 175q-49 0 -131.5 -47t-135.5 -93z" />
    <glyph glyph-name="uniFEC8" unicode="&#x638;" horiz-adv-x="771" arabic-form="medial" 
d="M387 568q-19 0 -33.5 13.5t-14.5 32.5t14.5 32.5t33.5 13.5t32.5 -14t13.5 -32t-13.5 -32t-32.5 -14zM783 90l6 -7v-77l-6 -6h-24q-59 0 -120 59l-40 -59h-609l-6 6v78l6 6h118v654h77l-1 -492q91 70 134 98q94 63 156 63q50 0 88 -30t58.5 -77.5t30.5 -94t12 -91.5v-4
l3 -1q32 -17 53 -21t63 -4h1zM187 184l-3 -3v-91h407v6q0 17 -6 53q-29 175 -131 175q-49 0 -131.5 -47t-135.5 -93z" />
    <glyph glyph-name="uniFECA" unicode="&#x639;" horiz-adv-x="549" arabic-form="final" 
d="M67 344l-48 -12l9 80l2 1q114 34 228 34t225 -32l2 -1l13 -94l-1 -1q-124 -97 -226 -184l-9 -7q47 -24 98.5 -31t123.5 -7h78h1l6 -7v-73l-7 -10h-117q-74 0 -127 16.5t-109 58.5q-42 -55 -48 -65q-25 -43 -25 -77q0 -115 169 -115q95 0 205 35l5 1l-1 -4q-2 -11 -2 -72
v-2l-2 -1q-110 -43 -219 -43q-96 0 -161.5 44.5t-65.5 135.5q0 95 100 201l4 4l-2 2l-2 2q-65 79 -97 223zM217 167l2 2q29 31 69.5 66t64.5 53.5t76 57.5q-98 19 -188 19q-67 0 -106 -8q26 -132 82 -190z" />
    <glyph glyph-name="uniFECB" unicode="&#x639;" horiz-adv-x="506" arabic-form="initial" 
d="M-13 0l-6 7v76l6 7h188q-41 34 -65 68.5t-36 84.5v2q29 82 95 132t153 50q42 0 88 -11l2 -1v-87l-4 1q-39 9 -94 9q-47 0 -91 -22t-73 -58q0 -25 16 -55q24 -51 73 -82t107 -31h110l-19 -90h-450z" />
    <glyph glyph-name="uniFECC" unicode="&#x639;" horiz-adv-x="634" arabic-form="medial" 
d="M548 294q0 -1 -1 -2q0 -4 -3 -7l-4 -10q-30 -60 -60.5 -99.5t-78.5 -77.5q48 -7 118 -9q21 0 63 0.5t63 0.5h2l7 -10v-70l-7 -10h-133q-48 0 -102 12.5t-88 35.5l-2 2q-1 0 -2 -1q-91 -49 -251 -49h-81l-6 9v71l7 10h126q75 0 138 12q-44 46 -68 89t-53 117l-3 7l-48 -13
l9 82l2 1q127 40 234 40q108 0 208 -33l2 -1v-1q6 -32 9 -47q4 -32 4 -47q0 -1 -1 -2zM332 124h1q116 79 147 188q0 1 0.5 4t1.5 4q-42 21 -165 21q-59 0 -118 -10q14 -57 51 -117.5t82 -89.5z" />
    <glyph glyph-name="uniFECE" unicode="&#x63a;" horiz-adv-x="549" arabic-form="final" 
d="M254 585q-18 0 -31.5 14t-13.5 32t13.5 32t31.5 14q19 0 32.5 -14t13.5 -32t-13.5 -32t-32.5 -14zM67 344l-48 -12l9 80l2 1q114 34 228 34t225 -32l2 -1l13 -94l-1 -1q-124 -97 -226 -184l-9 -7q73 -38 223 -38h78h1l6 -7v-73l-7 -10h-118q-74 0 -127 16.5t-109 58.5
q-42 -55 -48 -65q-25 -43 -25 -77q0 -115 169 -115q95 0 205 35l5 1l-1 -4q-2 -11 -2 -72v-2l-2 -1q-110 -43 -219 -43q-96 0 -161.5 44.5t-65.5 135.5q0 95 100 201l4 4l-2 2l-2 2q-65 79 -97 223zM217 167l2 2q29 31 69.5 66t64.5 53.5t76 57.5q-98 19 -188 19
q-67 0 -106 -8q26 -132 82 -190z" />
    <glyph glyph-name="uniFECF" unicode="&#x63a;" horiz-adv-x="506" arabic-form="initial" 
d="M-21 83l6 7h190q-41 34 -65 68.5t-36 84.5v2q29 82 95 132t153 50q48 0 88 -11l2 -1v-87l-4 1q-39 9 -94 9q-47 0 -91 -22t-73 -58q0 -25 16 -55q24 -51 73 -82t107 -31h110l-19 -90h-452l-6 7v76zM237 605q0 18 13.5 32t32.5 14t32.5 -14t13.5 -32q0 -19 -13.5 -33.5
t-32.5 -14.5t-32.5 14.5t-13.5 33.5z" />
    <glyph glyph-name="uniFED0" unicode="&#x63a;" horiz-adv-x="634" arabic-form="medial" 
d="M313 566q-19 0 -32.5 14t-13.5 32t13.5 32t32.5 14t33.5 -13.5t14.5 -32.5t-14.5 -32.5t-33.5 -13.5zM548 294q0 -1 -1 -2q0 -4 -3 -7l-4 -10q-30 -60 -60.5 -99.5t-78.5 -77.5q48 -7 119 -9q21 0 63 0.5t64 0.5h2l7 -10v-70l-7 -10h-135q-48 0 -102 12.5t-88 35.5l-2 2
q-1 0 -2 -1q-91 -49 -251 -49h-82l-6 9v71l7 10h126q76 0 139 12q-44 46 -68 89t-53 117l-3 7l-48 -13l9 82l2 1q127 40 234 40q108 0 208 -33l2 -1v-1q6 -32 9 -47q4 -32 4 -47q0 -1 -1 -2zM332 124h1q116 79 147 188q0 1 0.5 4t1.5 4q-42 21 -165 21q-59 0 -118 -10
q14 -57 51 -117.5t82 -89.5z" />
    <glyph glyph-name="uniFED2" unicode="&#x641;" horiz-adv-x="989" arabic-form="final" 
d="M742 558q-19 0 -32.5 14.5t-13.5 33.5q0 18 13.5 32t32.5 14t32.5 -14t13.5 -32q0 -19 -13.5 -33.5t-32.5 -14.5zM76 340l63 12l-1 -5q-15 -66 -15 -107q0 -38 11.5 -66t29.5 -44t46.5 -25t56.5 -12t66 -3h346q-85 54 -130 138v2q25 79 77.5 138.5t126.5 59.5
q72 0 117 -50t45 -120q0 -87 -74 -164q72 -4 164 -4h1l6 -5v-80l-6 -5h-53q-81 0 -156 27q-2 1 -9 4t-12 5q-12 6 -18 6q-5 0 -18 -5q-6 -3 -21 -9q-83 -28 -195 -28h-212q-259 0 -259 218q0 56 22 120zM619 246l4 -4q59 -94 148 -128l5 -2v1l2 2q36 30 51.5 55t15.5 65
q0 45 -30.5 75.5t-76.5 30.5q-36 0 -67.5 -28t-51.5 -67z" />
    <glyph glyph-name="uniFED3" unicode="&#x641;" horiz-adv-x="509" arabic-form="initial" 
d="M227 629q-18 0 -31.5 14t-13.5 32q0 19 12.5 33.5t32.5 14.5t33 -14.5t13 -33.5q0 -18 -13.5 -32t-32.5 -14zM422 0h-436l-7 10v69l7 11h385l2 59q-193 0 -301 92l-1 1v1q5 38 18 80t35 85.5t57.5 71.5t77.5 28q49 0 87 -32.5t58 -81.5t29.5 -97.5t9.5 -91.5
q0 -107 -20 -203zM250 416q-69 0 -108 -134l-1 -4q51 -35 101 -44.5t130 -9.5q-31 192 -122 192z" />
    <glyph glyph-name="uniFED4" unicode="&#x641;" horiz-adv-x="526" arabic-form="medial" 
d="M275 544q-19 0 -32.5 14.5t-13.5 33.5q0 18 13.5 32t32.5 14t32.5 -14t13.5 -32q0 -19 -13.5 -33.5t-32.5 -14.5zM535 90l6 -5v-80l-6 -5h-52q-103 0 -178 37q-12 5 -17 5q-4 0 -22 -7q-78 -35 -204 -35h-74l-6 9v71l7 10h220q-88 66 -127 138v2q12 36 29.5 68t42.5 62.5
t59.5 48.5t73.5 18q74 0 118 -49.5t44 -121.5q0 -39 -11 -66.5t-36 -61.5q-18 -22 -28 -34q53 -4 160 -4h1zM154 245l3 -4q59 -94 144 -127q1 0 2.5 -1t2.5 -1v1l2 2q35 31 52.5 56.5t17.5 61.5q0 48 -29.5 78t-77.5 30q-67 0 -117 -96z" />
    <glyph glyph-name="uniFED6" unicode="&#x642;" horiz-adv-x="786" arabic-form="final" 
d="M54 20q0 60 25 144l1 1l62 14l-1 -5q-16 -66 -16 -125q0 -61 20.5 -102t59.5 -61.5t83.5 -28t105.5 -7.5q136 0 216 30h3q5 9 12 55t7 61v5h-7q-200 6 -304 107l-1 1v1q6 53 28 111t66.5 107t97.5 49q48 0 86.5 -29.5t60 -75.5t33 -93t11.5 -89h103l5 -8v-73l-6 -9h-103
q0 -63 -34 -169l-2 -2q-129 -68 -295 -68q-143 0 -230 61.5t-87 197.5zM389 147q84 -57 230 -57h11q-33 196 -130 196q-39 0 -68 -44.5t-43 -94.5zM373 556q0 19 13 33.5t33 14.5t34 -14t14 -34q0 -19 -14 -32t-34 -13q-19 0 -32.5 13.5t-13.5 31.5zM571 511
q-19 0 -32.5 13.5t-13.5 31.5q0 19 13 33.5t33 14.5t33 -14.5t13 -33.5q0 -18 -13.5 -31.5t-32.5 -13.5z" />
    <glyph glyph-name="uniFED7" unicode="&#x642;" horiz-adv-x="509" arabic-form="initial" 
d="M306 622q-19 0 -32.5 14t-13.5 32q0 19 13 33.5t33 14.5t33.5 -14.5t13.5 -33.5q0 -18 -14 -32t-33 -14zM157 622q-19 0 -32.5 14t-13.5 32q0 19 13 33.5t33 14.5t32.5 -14.5t12.5 -33.5q0 -18 -13.5 -32t-31.5 -14zM422 0h-434l-7 10v69l7 11h383l2 59q-193 0 -301 92
l-1 1v1q5 38 18 80t35 85.5t57.5 71.5t77.5 28q49 0 87 -32.5t58 -81.5t29.5 -97.5t9.5 -91.5q0 -107 -20 -203zM250 416q-69 0 -108 -134l-1 -4q51 -35 101 -44.5t130 -9.5q-31 192 -122 192z" />
    <glyph glyph-name="uniFED8" unicode="&#x642;" horiz-adv-x="526" arabic-form="medial" 
d="M322 545q-19 0 -32.5 14.5t-13.5 33.5q0 18 13.5 32t32.5 14t33.5 -13.5t14.5 -32.5q0 -18 -14.5 -33t-33.5 -15zM173 545q-19 0 -32.5 14.5t-13.5 33.5q0 18 13.5 32t32.5 14q18 0 31.5 -14t13.5 -32t-13.5 -33t-31.5 -15zM539 90l6 -5v-80l-6 -5h-56q-103 0 -178 37
q-12 5 -17 5q-4 0 -22 -7q-78 -35 -204 -35h-72l-6 9v71l7 10h218q-88 66 -127 137v2q26 80 78.5 139t126.5 59t118 -49.5t44 -121.5q0 -39 -11 -66.5t-36 -61.5q-18 -22 -28 -34q54 -4 164 -4h1zM154 245l3 -4q59 -94 144 -127q1 0 2.5 -1t2.5 -1v1l2 2q35 31 52.5 56.5
t17.5 61.5q0 48 -29.5 78t-77.5 30q-67 0 -117 -96z" />
    <glyph glyph-name="uniFEDA" unicode="&#x643;" horiz-adv-x="879" arabic-form="final" 
d="M492 491l6 -39l-2 -1q-47 -10 -100 -10h-91v42l58 -2q-1 2 -3.5 5t-3.5 4q-1 2 -3 5t-3.5 5.5t-2.5 4.5q-10 17 -10 33q0 36 15 66l2 2q30 11 69 11q17 0 51 -4h3l-3 -38h-3q-29 3 -56 3t-39 -4q-2 -4 -2 -14q0 -54 24 -80h3q53 0 88 10zM894 90l6 -7v-77l-6 -6h-27
q-30 0 -67 20t-54 45l-41 -65h-394q-257 0 -257 218q0 54 21 120l1 2l64 12l-1 -5q-15 -53 -15 -107q0 -38 11.5 -66t29.5 -44t46.5 -25t56.5 -12t66 -3h360v654h76v-628h1q1 -1 2 -1q34 -16 56 -20.5t64 -4.5h1z" />
    <glyph glyph-name="uniFEDB" unicode="&#x643;" horiz-adv-x="641" arabic-form="initial" 
d="M47 354l360 390l44 -68l-320 -322q114 20 171 20q131 0 199 -74.5t75 -205.5v-1l-51 -93h-536l-8 12v66l8 12h517q-10 56 -14 70q-23 75 -80 103.5t-146 28.5q-82 0 -185 -15h-2z" />
    <glyph glyph-name="uniFEDC" unicode="&#x643;" horiz-adv-x="683" arabic-form="medial" 
d="M47 354l360 390l44 -68l-320 -322q114 20 171 20q123 0 191.5 -67.5t80.5 -188.5v-3l3 -1q50 -24 115 -24h1l6 -7v-77l-6 -6h-22q-60 0 -115 55l-31 -55h-535l-8 12v66l8 12h516l-1 8q-18 109 -71 151.5t-168 42.5q-82 0 -185 -15h-2z" />
    <glyph glyph-name="uniFEDE" unicode="&#x644;" horiz-adv-x="660" arabic-form="final" 
d="M83 231l63 11l-1 -5q-18 -70 -18 -131q0 -104 53 -151t160 -47q82 0 131 19v817h76v-630h1h2l1 -1q48 -23 123 -23h1l7 -7v-77l-7 -6h-18q-45 0 -110 50v-169l-2 -1q-116 -58 -228 -58q-129 0 -195 67t-66 194q0 63 26 146z" />
    <glyph glyph-name="uniFEDF" unicode="&#x644;" horiz-adv-x="275" arabic-form="initial" 
d="M110 744h79v-744h-205l-7 7v75l7 8h126v654z" />
    <glyph glyph-name="uniFEE0" unicode="&#x644;" horiz-adv-x="321" arabic-form="medial" 
d="M217 744v-626l1 -1l2 -2q33 -25 113 -25h1l6 -7v-77l-6 -6h-19q-58 0 -119 56q-2 1 -6 5l-36 -61h-168l-10 10v72l10 8h155v654h76z" />
    <glyph glyph-name="uniFEE2" unicode="&#x645;" horiz-adv-x="555" arabic-form="final" 
d="M120 -267l-92 282v1q36 89 43 104q122 278 247 278q37 0 65 -20t43.5 -51.5t23 -65t7.5 -65.5q0 -43 -11 -80l-1 -2q39 -24 125 -24h1l6 -7v-77l-6 -6h-28q-60 0 -116 54l-68 -63l-231 83l-22 -56l90 -253l-3 -1l-70 -30zM160 141l203 -70q21 29 21 107q0 48 -21 89.5
t-64 41.5q-57 0 -114 -116q-3 -6 -15 -28q-2 -6 -5.5 -14t-4.5 -10z" />
    <glyph glyph-name="uniFEE3" unicode="&#x645;" horiz-adv-x="541" arabic-form="initial" 
d="M375 -16l-231 105q-34 -51 -64 -70t-88 -19h-2l-7 11v68l7 11h2q47 0 71 16.5t48 59.5q5 9 13.5 26.5t13.5 26.5q16 29 26 46.5t31 46.5t39.5 45.5t45 29.5t53.5 13q51 0 85 -35.5t46.5 -80t12.5 -91.5q0 -57 -27 -124l-3 -9q-1 -6 -4 -11q-12 -17 -67 -64zM181 154
l199 -91q26 41 26 111q0 54 -21.5 95.5t-69.5 41.5q-43 0 -81 -61q-10 -15 -19.5 -32.5t-19 -36.5t-14.5 -27z" />
    <glyph glyph-name="uniFEE4" unicode="&#x645;" horiz-adv-x="575" arabic-form="medial" 
d="M181 154l199 -91q26 41 26 111q0 54 -21.5 95.5t-69.5 41.5q-43 0 -81 -61q-14 -21 -53 -96zM444 46l-2 3q-15 -12 -31 -30q-6 -5 -17.5 -17t-17.5 -17l-1 -1l-231 105q-35 -53 -65.5 -71t-92.5 -18h-2l-7 11v68l7 11h2q45 0 65.5 9t44.5 43q8 13 42 77q16 29 26 46.5
t31 46.5t39.5 45.5t45 29.5t53.5 13q51 0 85 -35.5t46.5 -80t12.5 -91.5t-10 -78l-1 -2q40 -23 122 -23h1l6 -7v-77l-6 -6h-26q-64 0 -113 51q0 -1 -1 -1t-2 -1z" />
    <glyph glyph-name="uniFEE6" unicode="&#x646;" horiz-adv-x="645" arabic-form="final" 
d="M278 371q-18 0 -31.5 14t-13.5 32q0 19 13 33.5t32 14.5q20 0 33 -14.5t13 -33.5q0 -18 -13.5 -32t-32.5 -14zM80 247l63 10l-1 -5q-17 -66 -17 -132q0 -101 51.5 -148.5t155.5 -47.5q84 0 133 21v400h75v-235l4 -1q49 -19 113 -19h1l6 -7v-77l-6 -6h-16q-43 0 -102 43
v-146l-2 -1q-119 -58 -227 -58q-126 0 -191.5 67t-65.5 190q0 75 25 150z" />
    <glyph glyph-name="uniFEE7" unicode="&#x646;" horiz-adv-x="314" arabic-form="initial" 
d="M186 512q-19 0 -32.5 13.5t-13.5 31.5q0 19 13 33.5t33 14.5q19 0 32 -14.5t13 -33.5q0 -18 -13.5 -31.5t-31.5 -13.5zM162 90v301h75v-391h-248l-10 10v72l10 8h173z" />
    <glyph glyph-name="uniFEE8" unicode="&#x646;" horiz-adv-x="356" arabic-form="medial" 
d="M195 498q-18 0 -31.5 13.5t-13.5 31.5q0 19 13 33.5t32 14.5q20 0 33 -14.5t13 -33.5q0 -18 -13.5 -31.5t-32.5 -13.5zM367 90l6 -7v-77l-6 -6h-25q-31 0 -62.5 17t-53.5 41l-3 3l-1 1q0 2 -1 2t-1 1t-1 2l-38 -67h-194l-10 10v72l10 8h182v268h76v-242h1l2 -1l21 -12
q31 -13 97 -13h1z" />
    <glyph glyph-name="uniFEEA" unicode="&#x647;" horiz-adv-x="511" arabic-form="final" 
d="M35 160q0 66 32 130l1 1l271 76v80h77v-357h108l6 -9v-72l-6 -9h-185v79q-89 -59 -155 -59q-68 0 -108.5 37.5t-40.5 102.5zM113 237q-7 -14 -7 -55q0 -76 93 -76q37 0 72 11q9 3 68 25v157z" />
    <glyph glyph-name="uniFEEB" unicode="&#x647;" horiz-adv-x="682" arabic-form="initial" 
d="M156 333l-87 -23v78l2 1q139 31 229 31q64 0 120 -13.5t103 -42t74 -78.5t27 -116q0 -85 -59 -197l-1 -2h-2q-121 18 -234 61q-22 9 -28 9q-5 0 -21 -7q-76 -34 -206 -34h-87l-6 9v71l7 10h229q-85 59 -133 133v3q19 46 73 107zM372 89q23 -10 80 -24t74 -14h3
q9 8 16 45.5t7 56.5q0 71 -40 118.5t-112 69.5q47 -57 47 -100q0 -42 -20.5 -85.5t-54.5 -66.5zM155 244l3 -4q57 -91 146 -127q0 -1 2 -1q1 0 2 -1l3 3q67 62 67 120q0 47 -30.5 78.5t-78.5 31.5q-53 0 -99 -72q-1 -2 -6.5 -12.5t-8.5 -15.5z" />
    <glyph glyph-name="uniFEEC" unicode="&#x647;" horiz-adv-x="733" arabic-form="medial" 
d="M156 333l-87 -23v78l2 1q139 31 229 31q64 0 120 -13.5t103 -42t74 -78.5t27 -116q0 -34 -6 -57q49 -23 126 -23h1l6 -7v-77l-6 -6h-21q-32 0 -67 21q-8 5 -17 11t-20 14t-17 12l-1 -1v-2t-1 -1l-1 -2v-1l-1 -1q-4 -9 -15.5 -36t-18.5 -41l-1 -2h-2q-89 13 -181 41
q-3 1 -19 7t-25 9q-33 13 -37 13t-22 -7q-76 -34 -205 -34h-84l-6 9v71l7 10h226q-85 59 -133 133v3q11 27 35 60q1 2 38 47zM372 89q23 -10 80 -24t74 -14h3q9 8 16 45.5t7 56.5q0 71 -40 118.5t-112 69.5q47 -57 47 -100q0 -42 -20.5 -85.5t-54.5 -66.5zM155 244l3 -4
q59 -92 146 -127q0 -1 2 -1q1 0 2 -1l3 3q67 62 67 120q0 47 -30.5 78.5t-78.5 31.5q-53 0 -99 -72q-1 -2 -6.5 -12.5t-8.5 -15.5z" />
    <glyph glyph-name="uniFEEE" unicode="&#x648;" horiz-adv-x="534" arabic-form="final" 
d="M457 89l87 1l6 -7v-72l-7 -11h-90q-6 -28 -9 -41q-17 -87 -74 -132.5t-148 -45.5q-65 0 -123 26l-2 1l-11 84l5 -2q62 -23 144 -23q72 0 103 31t43 103q-91 1 -180 40t-140 106l-1 1v2q9 38 25 79.5t41 85t61.5 71t78.5 27.5q51 0 89.5 -34t59 -86.5t31 -102.5t11.5 -95
v-6zM376 90h7v6q0 13 -7 57q-30 170 -123 170q-42 0 -77 -53q-16 -28 -25 -49q-4 -9 -10 -24t-7 -18v-1q41 -42 107.5 -64t134.5 -24z" />
    <glyph glyph-name="uniFEF0" unicode="&#x649;" horiz-adv-x="777" arabic-form="final" 
d="M434 67l28 72l3 -1q60 -30 114.5 -39t133.5 -9h78h1l6 -7v-78l-6 -5h-55q-25 0 -51 8q-7 2 -22.5 7t-24.5 7l-10 -17q1 0 1 -0.5t1 -0.5l3 -3q68 -56 99 -99l1 -1l-23 -83l-2 -1q-147 -72 -339 -72q-316 0 -316 245q0 77 27 146l1 2l63 10l-1 -5q-19 -61 -19 -129
q0 -55 22 -92.5t62.5 -55.5t83 -25t97.5 -7q168 0 270 41l2 1l1 1q1 1 2 1h1l2 1q-95 118 -231 186z" />
    <glyph glyph-name="uniFEF2" unicode="&#x64a;" horiz-adv-x="769" arabic-form="final" 
d="M434 67l29 72l3 -1q61 -30 111.5 -39t128.5 -9h77h1l6 -7v-78l-6 -5h-47q-25 0 -51 8q-7 2 -22.5 7t-24.5 7l-10 -17q1 0 1 -0.5t1 -0.5l3 -3q68 -56 99 -99l1 -1l-23 -83l-2 -1q-147 -72 -339 -72q-316 0 -316 245q0 77 27 146l1 2l63 10l-1 -5q-19 -61 -19 -129
q0 -55 22 -92.5t62.5 -55.5t83 -25t97.5 -7q168 0 270 41l2 1l1 1q1 1 2 1h1l2 1q-95 118 -231 186zM435 -431q-19 0 -32.5 14.5t-13.5 33.5q0 18 13.5 31.5t32.5 13.5q18 0 31.5 -13.5t13.5 -31.5t-13.5 -33t-31.5 -15zM283 -431q-19 0 -32.5 14.5t-13.5 33.5
q0 18 13.5 31.5t32.5 13.5t32.5 -13.5t13.5 -31.5q0 -19 -13.5 -33.5t-32.5 -14.5z" />
    <glyph glyph-name="uniFEF3" unicode="&#x64a;" horiz-adv-x="285" arabic-form="initial" 
d="M190 -209q-19 0 -32.5 14.5t-13.5 33.5q0 18 13.5 31.5t32.5 13.5q18 0 31.5 -13.5t13.5 -31.5t-13.5 -33t-31.5 -15zM38 -209q-19 0 -32.5 14.5t-13.5 33.5q0 18 13.5 31.5t32.5 13.5t32.5 -13.5t13.5 -31.5q0 -19 -13.5 -33.5t-32.5 -14.5zM237 0h-250l-10 10v72l10 8
h175v301h75v-391z" />
    <glyph glyph-name="uniFEF4" unicode="&#x64a;" horiz-adv-x="356" arabic-form="medial" 
d="M228 -209q-19 0 -32 14.5t-13 33.5q0 18 13 31.5t32 13.5t32.5 -13.5t13.5 -31.5q0 -19 -13.5 -33.5t-32.5 -14.5zM77 -209q-19 0 -32.5 14.5t-13.5 33.5q0 18 13.5 31.5t32.5 13.5q20 0 34 -13t14 -32q0 -20 -14 -34t-34 -14zM373 90l6 -7v-77l-6 -6h-31q-31 0 -62.5 17
t-53.5 41l-3 3l-1 1q0 2 -1 2t-1 1t-1 2l-38 -67h-195l-10 10v72l10 8h183v268h76v-242h1l2 -1q36 -18 56.5 -21.5t67.5 -3.5h1z" />
    <glyph glyph-name=".notdef" horiz-adv-x="500" 
 />
    <glyph glyph-name="uni0000" 
 />
    <glyph glyph-name="uni0000" 
 />
    <glyph glyph-name="uni000D" unicode="&#xd;" horiz-adv-x="250" 
 />
    <glyph glyph-name="space" unicode=" " horiz-adv-x="260" 
 />
    <glyph glyph-name="exclam" unicode="!" horiz-adv-x="299" 
d="M216 30q0 27 -18.5 46t-45.5 19t-45.5 -19t-18.5 -46t18.5 -45.5t45.5 -18.5q28 0 46 18.5t18 45.5zM200 148h-96l-13 567h121z" />
    <glyph glyph-name="quotedbl" unicode="&#x22;" horiz-adv-x="382" 
d="M75 468l-16 247h96l-15 -247h-65zM242 468l-16 247h96l-15 -247h-65z" />
    <glyph glyph-name="numbersign" unicode="#" horiz-adv-x="509" 
d="M253 99l26 180h-94l-26 -180h-72l26 180h-82v75h93l19 128h-85v75h96l23 158h72l-23 -158h94l24 158h72l-24 -158h86v-75h-97l-18 -128h87v-75h-99l-26 -180h-72zM215 482l-19 -128h95l18 128h-94z" />
    <glyph glyph-name="dollar" unicode="$" horiz-adv-x="629" 
d="M367 11v-87h-94v90q-94 16 -151 77.5t-63 150.5h88q9 -65 57.5 -108.5t124.5 -43.5q72 0 115 33.5t43 90.5q0 42 -22 69t-57 39.5t-77 22t-84.5 22t-77.5 32t-57 59t-22 97.5q0 74 52.5 132.5t130.5 74.5v93h94v-88q96 -9 150 -67t58 -132h-84q-14 56 -55 90t-105 34
t-107 -37.5t-43 -92.5q0 -41 22 -67t57 -38.5t77.5 -22t85.5 -22t78 -32t57 -59.5t22 -98q0 -77 -57 -139t-156 -73z" />
    <glyph glyph-name="percent" unicode="%" horiz-adv-x="787" 
d="M582 721h105l-463 -721h-105zM62 584q0 63 41.5 107t101.5 44q61 0 102.5 -42.5t41.5 -106.5q0 -66 -40.5 -110t-103.5 -44t-103 43.5t-40 108.5zM274 584q0 40 -18.5 63t-50.5 23q-33 0 -51 -22t-18 -64q0 -86 69 -86q33 0 51 22.5t18 63.5zM457 135q0 65 41.5 108
t102.5 43t102 -42t41 -106q0 -67 -40 -110.5t-103 -43.5t-103.5 43t-40.5 108zM669 136q0 40 -18 63t-51 23q-31 0 -50 -22.5t-19 -63.5t19 -63.5t50 -22.5q33 0 51 22.5t18 63.5z" />
    <glyph glyph-name="ampersand" unicode="&#x26;" horiz-adv-x="692" 
d="M562 110l94 -110h-105l-49 58q-84 -69 -192 -69q-109 0 -173.5 52.5t-64.5 138.5q0 36 11 65.5t35 55t44.5 42t55.5 40.5q-83 97 -83 185q0 77 51.5 126.5t131.5 49.5q77 0 127 -46t50 -118q0 -48 -54 -114.5t-104 -90.5l168 -198l3 4q3 4 6.5 10t8 15.5t9.5 22t9 28
t7.5 35.5t5.5 42h83q-4 -129 -75 -224zM321 661q-41 0 -72 -28t-31 -65q0 -46 72 -137q6 4 31 20t35.5 24.5t27 24.5t23.5 33.5t7 38.5q0 39 -27.5 64t-65.5 25zM269 322q-115 -68 -115 -133q0 -58 40 -90.5t114 -32.5q90 0 142 51z" />
    <glyph glyph-name="quotesingle" unicode="'" horiz-adv-x="215" 
d="M75 468l-16 247h97l-15 -247h-66z" />
    <glyph glyph-name="parenleft" unicode="(" horiz-adv-x="334" 
d="M135 309q0 -117 47 -224t132 -186l-62 -68q-100 94 -155 218t-55 260q0 135 51.5 255t148.5 213l64 -66q-84 -80 -127.5 -183.5t-43.5 -218.5z" />
    <glyph glyph-name="parenright" unicode=")" horiz-adv-x="325" 
d="M181 302q0 117 -47 224t-133 186l63 68q100 -93 154.5 -217t54.5 -261q0 -135 -51 -255t-148 -213l-64 67q171 165 171 401z" />
    <glyph glyph-name="asterisk" unicode="*" horiz-adv-x="423" 
d="M141 406l-61 44l84 109l-123 28l23 71l117 -48l-8 133h78l-8 -133l116 48l23 -71l-123 -28l83 -109l-60 -44l-72 120z" />
    <glyph glyph-name="plus" unicode="+" horiz-adv-x="543" 
d="M532 322v-93h-214v-214h-92v214h-215v93h215v214h92v-214h214z" />
    <glyph glyph-name="comma" unicode="," horiz-adv-x="284" 
d="M92 -123l-58 29l96 222l87 -39z" />
    <glyph glyph-name="hyphen" unicode="-" horiz-adv-x="338" 
d="M59 235v82h222v-82h-222z" />
    <glyph glyph-name="period" unicode="." horiz-adv-x="283" 
d="M142 -5q-28 0 -47.5 19t-19.5 47q0 29 19.5 48t47.5 19q27 0 47 -19t20 -48q0 -27 -20 -46.5t-47 -19.5z" />
    <glyph glyph-name="slash" unicode="/" horiz-adv-x="405" 
d="M4 -148l293 924h81l-293 -924h-81z" />
    <glyph glyph-name="zero" unicode="0" horiz-adv-x="635" 
d="M345 745q136 0 211.5 -102.5t75.5 -276.5q0 -175 -75 -277t-212 -102q-135 0 -210.5 102.5t-75.5 276.5q0 175 74.5 277t211.5 102zM345 77q95 0 142 70.5t47 218.5q0 138 -49 213.5t-140 75.5q-86 0 -137.5 -77t-51.5 -212t51.5 -212t137.5 -77z" />
    <glyph glyph-name="one" unicode="1" horiz-adv-x="403" 
d="M189 715h96v-715h-95v575q-54 -57 -127 -57q-8 0 -22 2v83q52 0 92.5 31t55.5 81z" />
    <glyph glyph-name="two" unicode="2" horiz-adv-x="574" 
d="M127 84l382 1v-86h-485q0 63 21 114t54.5 85.5t73.5 64t80.5 55.5t74 52t54.5 61.5t21 77.5q0 56 -34 97.5t-100 41.5q-72 0 -109 -48t-35 -122h-92q-2 113 60 183t176 70q102 0 169 -62t67 -158q0 -65 -34 -118.5t-85 -89.5t-103 -68t-97 -70.5t-59 -80.5z" />
    <glyph glyph-name="three" unicode="3" horiz-adv-x="601" 
d="M304 431q107 0 172.5 -48.5t65.5 -154.5q0 -99 -65.5 -168t-181.5 -69q-13 0 -28.5 2t-45 8t-56 21t-52.5 37t-43.5 61t-21.5 88h92q15 -67 60.5 -99.5t102.5 -32.5q66 0 104.5 39.5t38.5 100.5q0 65 -44.5 106.5t-105.5 41.5q-28 0 -51 -8l-44 78l219 196h-352v85h452
v-97z" />
    <glyph glyph-name="four" unicode="4" horiz-adv-x="620" 
d="M490 264h95v-90h-95v-174h-95v174h-357v91l324 450h128v-451zM395 264v360l-254 -360h254z" />
    <glyph glyph-name="five" unicode="5" horiz-adv-x="590" 
d="M292 465q106 0 170 -62.5t64 -169.5q0 -98 -66.5 -170t-185.5 -72q-113 0 -177.5 63.5t-75.5 154.5h102q4 -58 46.5 -96t104.5 -38q75 0 116.5 42t41.5 114q0 84 -47.5 121.5t-113.5 37.5q-71 0 -120 -49q-6 3 -43 17t-40 14l76 343h365v-78h-301l-42 -200q58 28 126 28z
" />
    <glyph glyph-name="six" unicode="6" horiz-adv-x="623" 
d="M345 485q99 0 162 -64t63 -180q0 -120 -67.5 -185t-170.5 -65q-30 0 -59.5 5.5t-72 27t-73.5 57.5t-53.5 104.5t-22.5 160.5q0 179 80 285t211 106q92 0 149.5 -39.5t73.5 -116.5h-102q-28 81 -117 81q-44 0 -77.5 -20t-52.5 -47.5t-32.5 -71t-18.5 -75t-10 -75.5
q26 54 77.5 83t112.5 29zM328 69q67 0 107 45.5t40 123.5t-40 124t-107 46q-69 0 -111.5 -47t-42.5 -126q0 -85 45.5 -125.5t108.5 -40.5z" />
    <glyph glyph-name="seven" unicode="7" horiz-adv-x="529" 
d="M-1 715h504v-67q-221 -291 -256 -647h-96q44 350 240 631h-392v83z" />
    <glyph glyph-name="eight" unicode="8" horiz-adv-x="610" 
d="M438 392q56 -26 85 -75t29 -111q0 -94 -64.5 -154.5t-183.5 -60.5q-118 0 -183 60.5t-65 154.5q0 62 29 111t85 75q-82 52 -82 154q0 82 56.5 135t159.5 53t159 -52.5t56 -135.5q0 -102 -81 -154zM304 663q-63 0 -98.5 -32.5t-35.5 -87.5t35.5 -87.5t98.5 -32.5
q62 0 98 32.5t36 87.5t-36 87.5t-98 32.5zM304 76q72 0 113 35.5t41 95.5t-41 95.5t-113 35.5t-113 -35t-42 -96q1 -60 42 -95.5t113 -35.5z" />
    <glyph glyph-name="nine" unicode="9" horiz-adv-x="624" 
d="M306 738q75 0 129 -27t83.5 -76t43 -107t13.5 -129q0 -181 -78.5 -294t-209.5 -113q-188 0 -224 157h100q28 -83 118 -83q44 0 78 19t53 46.5t32 69t18 76t8 77.5q-58 -111 -187 -111q-99 0 -162 66t-63 186q0 118 64.5 180.5t183.5 62.5zM452 485q0 73 -41 123t-112 50
q-66 0 -106 -45.5t-40 -122.5q0 -78 40 -124t106 -46q68 0 110.5 45.5t42.5 119.5z" />
    <glyph glyph-name="colon" unicode=":" horiz-adv-x="293" 
d="M146 0q-27 0 -47 19.5t-20 47.5q0 27 20.5 47t46.5 20q28 0 47.5 -20t19.5 -47q0 -28 -19.5 -47.5t-47.5 -19.5zM146 296q-27 0 -47 19.5t-20 47.5t20 47.5t47 19.5q28 0 47.5 -19.5t19.5 -47.5t-19.5 -47.5t-47.5 -19.5z" />
    <glyph glyph-name="semicolon" unicode=";" horiz-adv-x="294" 
d="M78 -123l-58 29l95 222l88 -39zM156 291q-27 0 -46.5 19.5t-19.5 47.5q0 27 19.5 46.5t46.5 19.5t47.5 -19.5t20.5 -46.5q0 -28 -20.5 -47.5t-47.5 -19.5z" />
    <glyph glyph-name="less" unicode="&#x3c;" horiz-adv-x="505" 
d="M447 474l-313 -149l313 -151v-100l-405 205v86l405 207v-98z" />
    <glyph glyph-name="equal" unicode="=" horiz-adv-x="490" 
d="M-9 194v92h522v-92h-522zM-9 394v92h522v-92h-522z" />
    <glyph glyph-name="greater" unicode="&#x3e;" horiz-adv-x="505" 
d="M388 321l-313 151v100l405 -205v-86l-405 -207v99z" />
    <glyph glyph-name="question" unicode="?" horiz-adv-x="495" 
d="M251 95q-27 0 -46.5 -19.5t-19.5 -45.5q0 -27 19 -45t47 -18q27 0 46 18t19 45q0 26 -19 45.5t-46 19.5zM28 499q-2 96 62.5 163.5t164.5 67.5q120 0 179 -55.5t59 -132.5q0 -48 -19.5 -85.5t-47.5 -63t-55.5 -51t-47 -64.5t-19.5 -90h-94q-12 115 86 203
q35 32 49.5 46.5t31.5 43t17 55.5q0 14 -5 29t-18 34t-43 31.5t-73 12.5q-61 0 -95.5 -41.5t-34.5 -102.5h-97z" />
    <glyph glyph-name="at" unicode="@" horiz-adv-x="915" 
d="M587 538h79q-6 -26 -21 -80.5t-23.5 -97t-8.5 -82.5q-2 -27 12 -45t40 -18q46 0 84 55t38 140q0 127 -86 206t-223 79q-152 0 -248.5 -98t-96.5 -253q0 -154 96 -248.5t253 -94.5q112 0 195 52l38 -53q-44 -31 -107.5 -51t-122.5 -20q-195 0 -317.5 114t-122.5 296
q0 185 124 307.5t310 122.5q167 0 277.5 -100.5t110.5 -253.5q0 -118 -64 -195t-145 -77q-31 0 -54 13t-33 31.5t-14.5 31.5t-4.5 20q-30 -48 -64 -71t-87 -23q-12 0 -27.5 3.5t-37 15t-38.5 29t-29.5 51t-12.5 76.5q0 95 50.5 164t138.5 69q33 0 59 -10.5t40.5 -26.5
t21.5 -26.5t9 -16.5zM465 489q-52 0 -81 -45.5t-29 -102.5q0 -51 21 -86t68 -35q55 0 79 50.5t24 110.5q0 46 -19 77t-63 31z" />
    <glyph glyph-name="A" unicode="A" horiz-adv-x="679" 
d="M541 1l-64 195h-281l-63 -195h-94l235 714h126l234 -714h-93zM222 274h230l-115 352z" />
    <glyph glyph-name="B" unicode="B" horiz-adv-x="626" 
d="M447 386q55 -22 90 -72.5t35 -111.5q0 -84 -61 -142.5t-147 -58.5h-276v714h242q69 0 123 -41.5t66 -108.5q12 -51 -9 -100t-63 -79zM183 631v-220h132q46 0 79 33t33 79q0 45 -33 76.5t-79 31.5h-132zM357 88q49 0 84 35t35 84t-35 84t-84 35h-174v-238h174z" />
    <glyph glyph-name="C" unicode="C" horiz-adv-x="732" 
d="M591 237h98q-15 -114 -100.5 -179t-197.5 -65q-139 0 -230.5 99t-91.5 275q0 177 91 275t231 98q114 0 195.5 -61t102.5 -181h-98q-17 77 -72.5 116.5t-127.5 39.5q-100 0 -163.5 -72t-63.5 -215t63.5 -214t163.5 -71q75 0 130 38t70 117z" />
    <glyph glyph-name="D" unicode="D" horiz-adv-x="699" 
d="M283 715q172 0 265 -100.5t93 -255.5q0 -150 -88 -254.5t-237 -104.5h-228v715h195zM274 88q80 0 135.5 20.5t84.5 59.5t41 85t12 106q0 125 -61 197t-212 72h-91v-540h91z" />
    <glyph glyph-name="E" unicode="E" horiz-adv-x="568" 
d="M507 628h-324v-217h262v-87h-262v-235h324v-88h-419v714h419v-87z" />
    <glyph glyph-name="F" unicode="F" horiz-adv-x="545" 
d="M508 628h-325v-241h262v-87h-262v-299h-95v714h420v-87z" />
    <glyph glyph-name="G" unicode="G" horiz-adv-x="768" 
d="M390 362h324q0 -100 -33.5 -183t-107.5 -137.5t-178 -54.5q-139 0 -230 98.5t-91 275.5q0 90 24.5 160t60 109t81.5 63.5t83.5 32.5t71.5 8q113 0 193.5 -57t108.5 -180h-98q-19 79 -74 115t-130 36q-99 0 -162 -72t-63 -215t62.5 -214t162.5 -71q84 0 142 51t74 156
h-221v79z" />
    <glyph glyph-name="H" unicode="H" horiz-adv-x="734" 
d="M546 715h95v-715h-95l1 315h-362l-1 -315h-95v715h95l1 -313h362z" />
    <glyph glyph-name="I" unicode="I" horiz-adv-x="282" 
d="M186 715v-715h-95v715h95z" />
    <glyph glyph-name="J" unicode="J" horiz-adv-x="424" 
d="M132 74q59 0 87.5 35.5t28.5 96.5v509h95v-509q0 -99 -50.5 -159t-149.5 -60q-67 0 -103 14v90q45 -17 92 -17z" />
    <glyph glyph-name="K" unicode="K" horiz-adv-x="624" 
d="M87 0v715h96v-376l299 376h108l-275 -345l289 -370h-107l-236 302l-78 -99v-203h-96z" />
    <glyph glyph-name="L" unicode="L" horiz-adv-x="538" 
d="M184 88h324v-88h-420v715h96v-627z" />
    <glyph glyph-name="M" unicode="M" horiz-adv-x="863" 
d="M95 715h128l208 -526l208 526h130v-715h-91v582l-230 -582h-34l-227 578v-578h-92v715z" />
    <glyph glyph-name="N" unicode="N" horiz-adv-x="728" 
d="M92 715h122l329 -594v594h90v-715h-120l-330 599v-599h-91v715z" />
    <glyph glyph-name="O" unicode="O" horiz-adv-x="780" 
d="M403 738q142 0 233 -98.5t91 -276.5t-91 -277t-233 -99q-140 0 -231.5 99t-91.5 277t91.5 276.5t231.5 98.5zM403 76q101 0 164 71t63 216q0 143 -63.5 215t-163.5 72q-98 0 -161.5 -72t-63.5 -215q0 -145 63 -216t162 -71z" />
    <glyph glyph-name="P" unicode="P" horiz-adv-x="586" 
d="M336 715q90 0 153 -60.5t63 -149.5t-63 -152t-153 -63h-148v-290h-96v715h244zM456 505q0 52 -38.5 88.5t-92.5 36.5h-137v-255h137q54 0 92.5 38t38.5 92z" />
    <glyph glyph-name="Q" unicode="Q" horiz-adv-x="811" 
d="M727 376q0 -170 -90 -271l87 -94l-64 -59l-91 98q-70 -44 -164 -44q-139 0 -230.5 97.5t-91.5 270.5q0 92 27.5 166t73 120t102.5 70.5t119 24.5q132 0 227 -100.5t95 -278.5zM180 379q0 -143 61.5 -214.5t160.5 -71.5q59 0 105 24l-94 102l62 59l99 -107q56 75 56 208
q0 145 -62.5 215.5t-162.5 70.5t-162.5 -70.5t-62.5 -215.5z" />
    <glyph glyph-name="R" unicode="R" horiz-adv-x="633" 
d="M581 0h-105l-189 302h-103v-302h-96v715h252q88 0 148.5 -58.5t60.5 -145.5q0 -74 -45.5 -130t-115.5 -72zM184 627v-237h144q51 0 88 35t37 85t-36.5 83.5t-88.5 33.5h-144z" />
    <glyph glyph-name="S" unicode="S" horiz-adv-x="627" 
d="M168 538q0 -47 26 -72t77 -41q43 -13 95 -24q94 -18 145.5 -64.5t51.5 -134.5q0 -83 -67.5 -147t-181.5 -64q-116 0 -188 64t-78 166h87q6 -63 55 -106.5t123 -43.5q72 0 115 32.5t43 89.5q0 47 -26 73t-76 43q-29 9 -95 25q-197 36 -197 196q0 87 69.5 150t166.5 63
q112 0 176.5 -58.5t68.5 -140.5h-84q-15 55 -55.5 89t-103.5 34q-62 0 -104.5 -37t-42.5 -92z" />
    <glyph glyph-name="T" unicode="T" horiz-adv-x="564" 
d="M538 715v-88h-208v-627h-96v627h-208v88h512z" />
    <glyph glyph-name="U" unicode="U" horiz-adv-x="700" 
d="M520 715h98v-458q0 -113 -78 -191.5t-191 -78.5t-191.5 78.5t-78.5 191.5v458h96v-469q0 -72 51 -121.5t123 -49.5q71 0 121 49.5t50 121.5v469z" />
    <glyph glyph-name="V" unicode="V" horiz-adv-x="660" 
d="M533 715h100l-241 -715h-123l-242 715h100l203 -601z" />
    <glyph glyph-name="W" unicode="W" horiz-adv-x="930" 
d="M807 715h95l-183 -715h-97l-154 549l-155 -549h-96l-183 715h96l142 -552l157 552h78l158 -552z" />
    <glyph glyph-name="X" unicode="X" horiz-adv-x="664" 
d="M622 715l-233 -355l233 -360h-104l-181 279l-181 -279h-104l233 360l-233 355h104l181 -275l181 275h104z" />
    <glyph glyph-name="Y" unicode="Y" horiz-adv-x="555" 
d="M436 715h96l-207 -365v-350h-95v350l-207 365h96l159 -278z" />
    <glyph glyph-name="Z" unicode="Z" horiz-adv-x="597" 
d="M427 627h-389v88h514v-63l-390 -564h390v-88h-513v65z" />
    <glyph glyph-name="bracketleft" unicode="[" horiz-adv-x="360" 
d="M86 -148v929h237v-84h-141v-762h141v-83h-237z" />
    <glyph glyph-name="backslash" unicode="\" horiz-adv-x="405" 
d="M321 -148l-293 924h81l293 -924h-81z" />
    <glyph glyph-name="bracketright" unicode="]" horiz-adv-x="360" 
d="M274 781v-929h-237v83h141v762h-141v84h237z" />
    <glyph glyph-name="asciicircum" unicode="^" horiz-adv-x="509" 
d="M23 407l167 308h90l167 -308h-89l-124 231l-124 -231h-87z" />
    <glyph glyph-name="underscore" unicode="_" horiz-adv-x="397" 
d="M-1 -158v67h399v-67h-399z" />
    <glyph glyph-name="grave" unicode="`" horiz-adv-x="400" 
d="M162 629l-93 128h109l52 -128h-68z" />
    <glyph glyph-name="a" unicode="a" horiz-adv-x="540" 
d="M254 532q95 0 151 -58t56 -164v-309h-86v69l-4 -6q-4 -6 -7 -9.5t-10 -11.5t-14.5 -13.5t-18 -12.5t-23.5 -12t-28 -9.5t-34.5 -7t-40.5 -2.5q-65 0 -109.5 43.5t-44.5 100.5q0 37 12.5 65t29 43.5t46.5 28t51.5 17.5t58.5 12q7 1 11 2q66 13 89.5 28t23.5 46
q0 34 -34 56.5t-80 22.5q-39 0 -72 -22t-42 -64h-85q12 77 65 122t139 45zM207 64q95 0 139 84q27 50 27 99q-3 -1 -38.5 -7t-75 -13.5t-59.5 -12.5q-74 -24 -74 -76q0 -31 23 -52.5t58 -21.5z" />
    <glyph glyph-name="b" unicode="b" horiz-adv-x="614" 
d="M83 0v715h83v-285q60 101 183 101q100 0 163.5 -71.5t63.5 -201.5t-63.5 -201.5t-162.5 -71.5q-123 0 -184 103v-88h-83zM329 455q-75 0 -119 -52.5t-44 -144.5t44 -144.5t119 -52.5t119 52.5t44 144.5q0 90 -44 143.5t-119 53.5z" />
    <glyph glyph-name="c" unicode="c" horiz-adv-x="570" 
d="M445 168h87q-20 -89 -78.5 -135t-144.5 -46q-108 0 -177.5 71.5t-69.5 200.5q0 132 69 203t178 71q78 0 139.5 -45.5t78.5 -135.5h-81q-21 55 -52 80t-84 25q-75 0 -120 -52t-45 -146q0 -93 45 -144.5t119 -51.5q102 0 136 105z" />
    <glyph glyph-name="d" unicode="d" horiz-adv-x="625" 
d="M52 258q0 130 63 201.5t163 71.5q123 0 183 -101v285h83v-715h-83v88q-61 -103 -184 -103q-98 0 -161.5 71.5t-63.5 201.5zM298 455q-74 0 -118.5 -53.5t-44.5 -143.5q0 -91 44.5 -144t118.5 -53q75 0 119 52.5t44 144.5t-44 144.5t-119 52.5z" />
    <glyph glyph-name="e" unicode="e" horiz-adv-x="574" 
d="M298 533q116 0 183.5 -89t49.5 -204h-398q4 -83 47.5 -130.5t117.5 -47.5q90 0 126 87h93q-21 -77 -80 -119.5t-140 -42.5q-108 0 -177 71.5t-69 201.5q0 131 69 202t178 71zM136 308h312q-8 70 -48 109.5t-102 39.5q-64 0 -107 -39.5t-55 -109.5z" />
    <glyph glyph-name="f" unicode="f" horiz-adv-x="343" 
d="M255 679q-31 0 -46 -15q-24 -25 -22 -113v-34h124v-72h-124v-445h-84v445h-73v72h73v39q0 28 0.5 45.5t3.5 44t11.5 43t22.5 33.5t37.5 25t54.5 8q50 0 82 -12v-76q-30 12 -60 12z" />
    <glyph glyph-name="g" unicode="g" horiz-adv-x="626" 
d="M287 38q-97 0 -158.5 65t-61.5 183q0 117 61.5 181.5t158.5 64.5q111 0 172 -82v67h84v-470q0 -107 -71 -172.5t-167 -65.5q-85 0 -153.5 56t-78.5 136h87q10 -52 48 -85.5t98 -33.5q65 0 109 45t44 118v76q-62 -83 -172 -83zM304 454q-70 0 -111.5 -45t-41.5 -124
t41.5 -124.5t111.5 -45.5t112.5 45.5t42.5 124.5q0 78 -42.5 123.5t-112.5 45.5z" />
    <glyph glyph-name="h" unicode="h" horiz-adv-x="590" 
d="M513 344v-344h-83v327q0 53 -39 90.5t-92 37.5t-90 -37t-37 -90v-328h-84v715h84v-250q67 67 154 67q79 0 133 -53t54 -135z" />
    <glyph glyph-name="i" unicode="i" horiz-adv-x="250" 
d="M82 684q0 -19 14.5 -33.5t33.5 -14.5q21 0 34 14t13 34t-13 33.5t-34 13.5q-19 0 -33.5 -14t-14.5 -33zM88 517h83v-517h-83v517z" />
    <glyph glyph-name="j" unicode="j" horiz-adv-x="248" 
d="M87 -22v539h83v-567q0 -67 -32 -103.5t-95 -36.5q-35 0 -65 9v77q25 -7 45 -7q64 0 64 89zM128 639q20 0 34 13.5t14 33.5t-14 34t-34 14q-19 0 -33 -14t-14 -34t13.5 -33.5t33.5 -13.5z" />
    <glyph glyph-name="k" unicode="k" horiz-adv-x="505" 
d="M266 278l221 -278h-95l-174 219l-50 -62v-157h-83v715h83v-440l193 242h95z" />
    <glyph glyph-name="l" unicode="l" horiz-adv-x="258" 
d="M88 0v715h83v-715h-83z" />
    <glyph glyph-name="m" unicode="m" horiz-adv-x="912" 
d="M647 531q77 0 132 -55.5t55 -136.5v-339h-84v326q0 54 -36 92t-88 38q-50 0 -87.5 -38.5t-37.5 -90.5v-327h-84v326q0 54 -36 92t-88 38q-51 0 -87.5 -38t-36.5 -91v-327h-84v517h84v-54q59 68 151 68q48 0 89.5 -23t64.5 -62q34 44 74.5 64.5t98.5 20.5z" />
    <glyph glyph-name="n" unicode="n" horiz-adv-x="587" 
d="M505 343v-343h-83v328q0 54 -37.5 91t-89.5 37t-89.5 -37.5t-37.5 -89.5v-329h-84v517h84v-53q67 67 154 67q79 0 131 -52.5t52 -135.5z" />
    <glyph glyph-name="o" unicode="o" horiz-adv-x="593" 
d="M58 260q0 129 69 199.5t176 70.5q108 0 176.5 -70.5t68.5 -199.5t-69.5 -201t-175.5 -72t-175.5 72t-69.5 201zM140 260q0 -92 44 -144.5t119 -52.5q74 0 118.5 53t44.5 144q0 90 -44.5 142.5t-118.5 52.5q-73 0 -118 -51.5t-45 -143.5z" />
    <glyph glyph-name="p" unicode="p" horiz-adv-x="648" 
d="M84 -178v695h83v-89q29 50 76.5 76t105.5 26q98 0 161 -71t63 -201q0 -129 -62.5 -200t-162.5 -71q-122 0 -181 101v-266h-83zM328 455q-74 0 -117.5 -52.5t-43.5 -143.5q0 -92 43.5 -144t117.5 -52t118 53t44 143q0 91 -44 143.5t-118 52.5z" />
    <glyph glyph-name="q" unicode="q" horiz-adv-x="625" 
d="M53 257q0 130 63 201t161 71q58 0 105.5 -26t76.5 -76v89h83v-695h-83v266q-59 -101 -181 -101q-100 0 -162.5 71t-62.5 200zM298 454q-74 0 -118 -52.5t-44 -143.5q0 -90 44 -143t118 -53t117.5 52t43.5 144q0 91 -43.5 143.5t-117.5 52.5z" />
    <glyph glyph-name="r" unicode="r" horiz-adv-x="374" 
d="M167 0h-83v514h83v-94q21 48 67.5 78.5t102.5 30.5v-99q-25 11 -50 11q-48 0 -84 -35t-36 -87v-319z" />
    <glyph glyph-name="s" unicode="s" horiz-adv-x="483" 
d="M150 378q0 -36 30 -54t72.5 -26t85 -19t72.5 -44.5t30 -90.5q0 -62 -51 -109.5t-139 -47.5q-89 0 -144 47t-61 122h83q4 -38 36 -67t85 -29q49 0 78.5 20.5t29.5 56.5t-30 55.5t-72.5 27.5t-85 19.5t-72.5 44t-30 89.5q0 64 54 110.5t128 46.5q84 0 132 -41.5t55 -100.5
h-81q-26 71 -104 71q-45 0 -73 -21.5t-28 -59.5z" />
    <glyph glyph-name="t" unicode="t" horiz-adv-x="358" 
d="M316 70v-75q-16 -7 -79 -7t-97 35.5t-34 102.5v320h-73v71h73v92h83v-92h124v-71h-124v-292q0 -48 15 -68.5t59 -20.5q33 0 53 5z" />
    <glyph glyph-name="u" unicode="u" horiz-adv-x="593" 
d="M93 172v344h83v-328q0 -53 37 -90t89 -37t89.5 37t37.5 89v329h83v-516h-83v52q-66 -66 -153 -66q-79 0 -131.5 52t-51.5 134z" />
    <glyph glyph-name="v" unicode="v" horiz-adv-x="539" 
d="M425 517h87l-188 -517h-105l-188 517h87l154 -422z" />
    <glyph glyph-name="w" unicode="w" horiz-adv-x="788" 
d="M674 517h79l-157 -517h-80l-119 386l-118 -386h-80l-157 517h79l120 -395l120 395h73l120 -395z" />
    <glyph glyph-name="x" unicode="x" horiz-adv-x="533" 
d="M496 517l-179 -259l179 -258h-94l-132 190l-132 -190h-95l179 258l-179 259h95l132 -191l132 191h94z" />
    <glyph glyph-name="y" unicode="y" horiz-adv-x="526" 
d="M415 517h85l-279 -695h-85l93 229l-201 466h84l158 -365z" />
    <glyph glyph-name="z" unicode="z" horiz-adv-x="478" 
d="M451 -1h-417v52l301 390h-301v75h417v-52l-299 -388h299v-77z" />
    <glyph glyph-name="braceleft" unicode="{" horiz-adv-x="384" 
d="M226 444q0 -56 -30.5 -85.5t-86.5 -44.5q56 -17 86.5 -48.5t30.5 -86.5v-153q0 -104 114 -104v-79q-103 0 -154 42t-51 143v128q0 47 -26 76t-71 33v93q97 13 97 110v128q0 99 51.5 141.5t153.5 42.5v-80q-114 0 -114 -103v-153z" />
    <glyph glyph-name="bar" unicode="|" horiz-adv-x="254" 
d="M84 -148v872h85v-872h-85z" />
    <glyph glyph-name="braceright" unicode="}" horiz-adv-x="384" 
d="M157 444v153q0 103 -114 103v80q101 0 152.5 -42.5t51.5 -142.5v-129q0 -96 97 -109v-93q-46 -4 -71.5 -33t-25.5 -76v-128q0 -101 -51.5 -142.5t-152.5 -41.5v79q114 0 114 104v153q0 99 115 129q-58 21 -86.5 50.5t-28.5 85.5z" />
    <glyph glyph-name="asciitilde" unicode="~" horiz-adv-x="451" 
d="M342 356h68q0 -9 -1.5 -20.5t-9 -30.5t-20 -34t-37.5 -26t-58 -11q-42 0 -76 21q-3 2 -14.5 8.5t-18 10.5t-18.5 7.5t-22 3.5q-34 0 -64 -35h-70q1 3 0 15t8 30t21 34t39 28.5t63 13.5q46 0 83 -24q40 -26 70 -26q33 0 57 35z" />
    <glyph glyph-name="exclamdown" unicode="&#xa1;" horiz-adv-x="277" 
d="M70 569q0 -25 19.5 -45t44.5 -20q27 0 46 19.5t19 45.5q0 27 -19 46t-46 19q-25 0 -44.5 -19t-19.5 -46zM87 452h95l13 -569h-121z" />
    <glyph glyph-name="cent" unicode="&#xa2;" horiz-adv-x="567" 
d="M304 60q104 0 135 106h92q-19 -82 -70 -128t-126 -54v-70h-85v73q-89 16 -143 87.5t-54 185.5q0 115 54 186t143 87v74h85v-71q76 -6 128 -51.5t69 -129.5h-93q-18 55 -50.5 80.5t-84.5 25.5q-75 0 -119 -54t-44 -147t44 -146.5t119 -53.5z" />
    <glyph glyph-name="sterling" unicode="&#xa3;" horiz-adv-x="601" 
d="M444 169h88q-6 -75 -52.5 -122t-113.5 -47h-328v90q53 25 78.5 60t27.5 76.5t-3 94.5h-100v71h71q-24 87 -24 128q0 81 55.5 142t150.5 61q91 0 140.5 -49.5t56.5 -122.5l-86 -14q-6 46 -36.5 72.5t-72.5 26.5q-43 0 -76.5 -31.5t-33.5 -89.5q0 -53 28 -123h177v-71h-154
q3 -48 -2.5 -87.5t-15 -63t-22.5 -41.5t-21.5 -25t-13.5 -11l-2 -1h184q36 0 63 21t37 56z" />
    <glyph glyph-name="currency" unicode="&#xa4;" horiz-adv-x="581" 
d="M494 333q0 -23 -5 -44t-11 -34t-19 -41l68 -67l-58 -59l-68 68q-65 -35 -120 -35q-57 0 -121 36l-69 -69l-57 58l70 70q-36 61 -36 117q0 54 37 120l-71 71l57 58l71 -71q27 13 41 19t35.5 11t44.5 5q51 0 116 -34l70 70l58 -58l-70 -69q37 -66 37 -122zM413 333
q0 54 -38.5 93t-93.5 39q-54 0 -92.5 -39t-38.5 -93t38.5 -92.5t92.5 -38.5q55 0 93.5 38.5t38.5 92.5z" />
    <glyph glyph-name="yen" unicode="&#xa5;" horiz-adv-x="602" 
d="M260 387h-219v90h148l-134 238h95l160 -232l156 232h96l-134 -238h134v-90h-206v-106h206v-90h-206v-191h-96v191h-219v90h219v106z" />
    <glyph glyph-name="section" unicode="&#xa7;" horiz-adv-x="506" 
d="M406 260q60 -42 60 -107q0 -63 -49.5 -108t-145.5 -45q-154 0 -194 136h90q11 -29 45.5 -44t71.5 -15q42 0 69 18t27 51t-30.5 52t-73.5 30t-86.5 25t-74 48t-30.5 88q0 72 55 114q-55 41 -55 109q0 67 52.5 112t129.5 45q16 0 33.5 -2t44.5 -10t47.5 -21.5t38 -40.5
t22.5 -63h-83q-5 25 -28 43t-70 18q-46 0 -75.5 -20t-29.5 -55q0 -34 31 -54t74.5 -32t87.5 -26.5t75 -47t31 -83.5q0 -73 -60 -115zM167 395q0 -23 12.5 -39.5t37.5 -27.5t41 -15.5t44 -10.5q36 4 57 20.5t21 42.5q0 18 -8.5 32.5t-20 23t-31 16.5t-32.5 11.5t-35 8.5
t-28 7q-58 -20 -58 -69z" />
    <glyph glyph-name="dieresis" unicode="&#xa8;" horiz-adv-x="400" 
d="M105 639q-23 0 -39 16t-16 39t16 39.5t39 16.5t39.5 -16.5t16.5 -39.5q0 -22 -16.5 -38.5t-39.5 -16.5zM295 639q-23 0 -39.5 16t-16.5 39t16.5 39.5t39.5 16.5t39 -16.5t16 -39.5t-16 -39t-39 -16z" />
    <glyph glyph-name="copyright" unicode="&#xa9;" horiz-adv-x="844" 
d="M51 362q0 154 109 262.5t263 108.5q153 0 262.5 -109t109.5 -262q0 -154 -109.5 -263t-262.5 -109q-155 0 -263.5 109t-108.5 263zM97 362q0 -135 96 -230.5t230 -95.5t229.5 95.5t95.5 230.5q0 134 -95.5 229.5t-229.5 95.5t-230 -95.5t-96 -229.5zM281 362
q0 -81 38.5 -127.5t103.5 -46.5q88 0 117 92h79q-18 -78 -69.5 -118.5t-126.5 -40.5q-95 0 -156.5 63.5t-61.5 177.5t61.5 177.5t155.5 63.5q78 0 130 -39.5t67 -120.5h-79q-18 50 -44.5 71t-72.5 21q-66 0 -104 -46t-38 -127z" />
    <glyph glyph-name="guillemotleft" unicode="&#xab;" horiz-adv-x="527" 
d="M225 272l151 217h102l-152 -218l149 -208h-102zM33 272l152 217h100l-152 -218l149 -208h-101z" />
    <glyph glyph-name="registered" unicode="&#xae;" horiz-adv-x="514" 
d="M258 734q93 0 159.5 -66.5t66.5 -159.5t-66.5 -158.5t-159.5 -65.5q-94 0 -159.5 65.5t-65.5 158.5q0 94 65.5 160t159.5 66zM258 316q79 0 135.5 56.5t56.5 135.5q0 80 -56 136.5t-136 56.5t-136.5 -56.5t-56.5 -136.5q0 -79 57 -135.5t136 -56.5zM341 558
q0 -24 -15 -42.5t-38 -23.5l64 -102h-34l-63 99h-34v-99h-32v237h84q28 0 48 -20t20 -49zM221 598v-80h48q16 0 28 11.5t12 28.5t-12 28.5t-28 11.5h-48z" />
    <glyph glyph-name="macron" unicode="&#xaf;" horiz-adv-x="400" 
d="M67 645v67h266v-67h-266z" />
    <glyph glyph-name="degree" unicode="&#xb0;" horiz-adv-x="429" 
d="M219 474q34 0 58 26t24 65t-24 65.5t-58 26.5q-36 0 -59 -26t-23 -66q0 -39 23 -65t59 -26zM219 408q-67 0 -113.5 46t-46.5 111q0 66 46.5 112.5t113.5 46.5q66 0 113 -46.5t47 -112.5q0 -64 -47.5 -110.5t-112.5 -46.5z" />
    <glyph glyph-name="plusminus" unicode="&#xb1;" horiz-adv-x="586" 
d="M338 501h212v-91h-212v-212h-91v212h-213v91h213v213h91v-213zM34 0v91h516v-91h-516z" />
    <glyph glyph-name="acute" unicode="&#xb4;" horiz-adv-x="400" 
d="M169 629l51 128h110l-92 -128h-69z" />
    <glyph glyph-name="paragraph" unicode="&#xb6;" horiz-adv-x="696" 
d="M185 794h418v-87h-93v-807h-95v807h-118v-807h-95v499q-91 0 -153 53.5t-62 143.5q0 82 58 140t140 58z" />
    <glyph glyph-name="periodcentered" unicode="&#xb7;" horiz-adv-x="283" 
d="M142 260q-28 0 -47.5 19.5t-19.5 47.5t19.5 47.5t47.5 19.5q27 0 47 -19.5t20 -47.5t-20 -47.5t-47 -19.5z" />
    <glyph glyph-name="cedilla" unicode="&#xb8;" horiz-adv-x="400" 
d="M218 -46q5 1 14 1q36 0 61 -21.5t25 -61.5q0 -41 -30 -63.5t-79 -22.5q-48 0 -77 23t-34 65h68q6 -32 38 -32q17 0 27 9t10 24q0 14 -9.5 23t-25.5 9q-15 0 -29 -10l-35 33l36 60h60z" />
    <glyph glyph-name="guillemotright" unicode="&#xbb;" horiz-adv-x="525" 
d="M125 63h-102l151 217l-148 209h101l149 -209zM316 63h-100l151 217l-149 209h101l149 -209z" />
    <glyph glyph-name="questiondown" unicode="&#xbf;" horiz-adv-x="509" 
d="M198 568q0 -27 17.5 -45t44.5 -18q25 0 43 18.5t18 44.5t-17.5 44t-43.5 18q-27 0 -44.5 -18t-17.5 -44zM209 413h90q0 -55 -13 -97t-33 -66t-42.5 -45.5t-42.5 -36t-33 -36.5t-13 -49q0 -13 2.5 -25.5t11 -29t22.5 -29t39.5 -21t58.5 -8.5q58 0 91 40.5t33 100.5h93
q2 -94 -59 -159.5t-158 -65.5q-115 0 -171.5 56t-56.5 137q0 52 23.5 86.5t67.5 69.5q88 72 90 178z" />
    <glyph glyph-name="Agrave" unicode="&#xc0;" horiz-adv-x="684" 
d="M372 779h-64l-92 127h105zM404 715l235 -716h-93l-65 195h-283l-63 -195h-94l236 716h127zM224 273h232l-116 354z" />
    <glyph glyph-name="Aacute" unicode="&#xc1;" horiz-adv-x="677" 
d="M365 780h-64l51 127h105zM34 0l235 715h127l236 -715h-94l-63 195h-283l-65 -195h-93zM217 274h232l-116 354z" />
    <glyph glyph-name="Acircumflex" unicode="&#xc2;" horiz-adv-x="677" 
d="M333 827l-73 -48h-75l98 127h100l98 -127h-74zM397 715l235 -715h-93l-65 194h-283l-63 -194h-94l236 715h127zM217 273h232l-116 354z" />
    <glyph glyph-name="Atilde" unicode="&#xc3;" horiz-adv-x="676" 
d="M229 812h-55q-1 4 0 14t6.5 26t15.5 30.5t30.5 25.5t48.5 12q34 0 64 -22q30 -23 54 -23q26 0 43 31h53q1 -9 -2 -24.5t-11.5 -35.5t-30.5 -34t-53 -14q-32 0 -59 19q-2 1 -10.5 7t-14 9.5t-14.5 6.5t-17 3q-25 0 -48 -31zM395 715l236 -715h-94l-65 195h-283l-63 -195
h-94l236 715h127zM216 274h231l-116 354z" />
    <glyph glyph-name="Adieresis" unicode="&#xc4;" horiz-adv-x="676" 
d="M186 868q0 22 15 37t37 15q21 0 36.5 -15t15.5 -37q0 -21 -15.5 -36.5t-36.5 -15.5q-22 0 -37 15.5t-15 36.5zM426 816q21 0 36.5 15.5t15.5 36.5q0 22 -15.5 37t-36.5 15q-22 0 -37 -15t-15 -37q0 -21 15 -36.5t37 -15.5zM395 715l236 -715h-94l-64 195h-283l-64 -195
h-93l235 715h127zM216 274h232l-116 354z" />
    <glyph glyph-name="Aring" unicode="&#xc5;" horiz-adv-x="679" 
d="M334 764q-43 0 -74 30.5t-31 73.5t31 73.5t74 30.5q44 0 75 -30.5t31 -73.5t-31 -73.5t-75 -30.5zM334 925q-22 0 -36 -16t-14 -41t14 -40.5t36 -15.5q23 0 37.5 15.5t14.5 40.5t-14.5 41t-37.5 16zM398 715l236 -715h-94l-64 195h-283l-64 -195h-94l236 715h127z
M219 274h231l-115 354z" />
    <glyph glyph-name="AE" unicode="&#xc6;" horiz-adv-x="954" 
d="M901 633h-326v-220h264v-88h-264v-236h326v-88h-422v195h-247l-103 -196h-94l376 715h490v-82zM479 275v358h-19l-187 -358h206z" />
    <glyph glyph-name="Ccedilla" unicode="&#xc7;" horiz-adv-x="732" 
d="M391 70q76 0 130.5 38.5t70.5 119.5h99q-15 -112 -95.5 -176t-190.5 -68l-18 -36q4 1 12 1q35 0 59 -21.5t24 -60.5q0 -40 -29 -61t-74 -21q-44 0 -71.5 23.5t-31.5 62.5h58q8 -37 42 -37q18 0 28.5 10t10.5 27q0 15 -10 24t-25 9q-13 0 -29 -9l-32 29l33 62
q-125 13 -204.5 110t-79.5 261q0 179 91.5 277.5t231.5 98.5q114 0 197.5 -61.5t102.5 -182.5h-99q-17 78 -72.5 118t-128.5 40q-100 0 -164 -73t-64 -217q0 -143 64 -215t164 -72z" />
    <glyph glyph-name="Egrave" unicode="&#xc8;" horiz-adv-x="571" 
d="M313 781h64l-52 127h-104zM510 627h-326v-214h263v-88h-263v-236h326v-89h-422v715h422v-88z" />
    <glyph glyph-name="Eacute" unicode="&#xc9;" horiz-adv-x="571" 
d="M285 781l92 127h-105l-51 -127h64zM510 627h-326v-214h264v-88h-264v-236h326v-88h-422v714h422v-88z" />
    <glyph glyph-name="Ecircumflex" unicode="&#xca;" horiz-adv-x="571" 
d="M226 781l73 48l74 -48h74l-98 127h-100l-98 -127h75zM510 627h-326v-214h264v-88h-264v-236h326v-88h-422v714h422v-88z" />
    <glyph glyph-name="Edieresis" unicode="&#xcb;" horiz-adv-x="571" 
d="M341 868q0 -22 15.5 -37t36.5 -15q22 0 37 15t15 37t-15 37t-37 15q-21 0 -36.5 -15t-15.5 -37zM205 816q-21 0 -36.5 15t-15.5 37t15.5 37t36.5 15q22 0 37 -15t15 -37t-15 -37t-37 -15zM510 627h-326v-215h264v-88h-264v-236h326v-88h-422v715h422v-88z" />
    <glyph glyph-name="Igrave" unicode="&#xcc;" horiz-adv-x="286" 
d="M112 780h64l-52 127h-104zM190 715v-715h-96v715h96z" />
    <glyph glyph-name="Iacute" unicode="&#xcd;" horiz-adv-x="360" 
d="M108 780h64l92 127h-104zM94 0v715h96v-715h-96z" />
    <glyph glyph-name="Icircumflex" unicode="&#xce;" horiz-adv-x="390" 
d="M294 781l-99 127h-100l-98 -127h75l73 48l74 -48h75zM97 0v715h96v-715h-96z" />
    <glyph glyph-name="Idieresis" unicode="&#xcf;" horiz-adv-x="386" 
d="M50 918q-22 0 -37 -15t-15 -37t15 -37t37 -15q21 0 36.5 15t15.5 37t-15.5 37t-36.5 15zM238 918q-22 0 -37 -15t-15 -37t15 -37t37 -15t37 15t15 37t-15 37t-37 15zM192 715v-715h-96v715h96z" />
    <glyph glyph-name="Eth" unicode="&#xd0;" horiz-adv-x="720" 
d="M304 715q171 0 264 -101.5t93 -256.5q0 -149 -87.5 -253t-236.5 -104h-228v309h-84v74h84v332h195zM295 86q64 0 112.5 14t78.5 38t48.5 59.5t25.5 73.5t7 86q0 59 -12.5 105t-42 85t-84.5 59.5t-133 20.5h-91v-244h218v-74h-218v-223h91z" />
    <glyph glyph-name="Ntilde" unicode="&#xd1;" horiz-adv-x="728" 
d="M188 1h-93v714h124l331 -594v594h91v-714h-122l-331 602v-602zM210 814q-1 4 0 14t6.5 26t15.5 30.5t30.5 25.5t48.5 12q34 0 64 -22q31 -23 55 -23q26 0 43 31h53q1 -9 -2 -24.5t-12 -35.5t-31 -34t-53 -14q-32 0 -59 19q-1 0 -10 7t-14 9.5t-14 6t-17 3.5
q-26 0 -49 -31h-55z" />
    <glyph glyph-name="Ograve" unicode="&#xd2;" horiz-adv-x="783" 
d="M437 783h-64l-92 127h105zM730 363q0 -178 -91.5 -277.5t-232.5 -99.5t-232.5 99.5t-91.5 277.5t91.5 276.5t232.5 98.5t232.5 -98.5t91.5 -276.5zM633 363q0 143 -63.5 215t-163.5 72q-99 0 -162.5 -72t-63.5 -215q0 -145 63 -216.5t163 -71.5q101 0 164 71t63 217z" />
    <glyph glyph-name="Oacute" unicode="&#xd3;" horiz-adv-x="779" 
d="M527 910l-92 -127h-64l52 127h104zM726 363q0 -178 -91 -277.5t-232 -99.5t-232.5 99.5t-91.5 277.5t91.5 276.5t232.5 98.5t232 -98.5t91 -276.5zM629 363q0 143 -63 215t-163 72q-99 0 -162.5 -72t-63.5 -215q0 -145 63 -216.5t163 -71.5q101 0 163.5 71t62.5 217z" />
    <glyph glyph-name="Ocircumflex" unicode="&#xd4;" horiz-adv-x="779" 
d="M401 832l-73 -48h-75l98 127h100l99 -127h-75zM726 364q0 -178 -91 -277.5t-232 -99.5t-232.5 99.5t-91.5 277.5t91.5 276.5t232.5 98.5t232 -98.5t91 -276.5zM630 364q0 143 -63.5 215t-163.5 72q-99 0 -162.5 -72t-63.5 -215q0 -145 63 -216.5t163 -71.5q101 0 164 71
t63 217z" />
    <glyph glyph-name="Otilde" unicode="&#xd5;" horiz-adv-x="786" 
d="M306 815h-55q-1 4 0.5 14t7 26t15.5 30.5t30.5 25.5t47.5 12q36 0 64 -22q31 -23 55 -23q26 0 43 31h53q1 -9 -2 -24.5t-11.5 -35.5t-30.5 -34t-54 -14t-59 19q-1 0 -10 7t-14 9.5t-14 6t-17 3.5q-26 0 -49 -31zM733 363q0 -178 -91 -277t-233 -99q-140 0 -232 99
t-92 277t92 276.5t232 98.5q142 0 233 -98.5t91 -276.5zM636 363q0 143 -63.5 215t-163.5 72q-99 0 -162.5 -72t-63.5 -215q0 -145 63 -216.5t163 -71.5q101 0 164 71t63 217z" />
    <glyph glyph-name="Odieresis" unicode="&#xd6;" horiz-adv-x="782" 
d="M446 871q0 22 15.5 37t36.5 15q22 0 37 -15t15 -37t-15 -37t-37 -15q-21 0 -36.5 15t-15.5 37zM310 819q22 0 37 15t15 37t-15 37t-37 15t-37 -15t-15 -37t15 -37t37 -15zM729 363q0 -178 -91 -277t-232 -99t-232.5 99t-91.5 277t91.5 276.5t232.5 98.5t232 -98.5
t91 -276.5zM633 363q0 143 -63.5 215t-163.5 72q-99 0 -162.5 -72t-63.5 -215q0 -145 63 -216.5t163 -71.5q101 0 164 71t63 217z" />
    <glyph glyph-name="multiply" unicode="&#xd7;" horiz-adv-x="478" 
d="M462 497l-153 -152l153 -151l-66 -65l-152 151l-152 -151l-65 65l152 151l-152 152l65 66l152 -152l152 152z" />
    <glyph glyph-name="Oslash" unicode="&#xd8;" horiz-adv-x="850" 
d="M797 707l-112 -120q54 -94 54 -225q0 -178 -91 -277t-233 -99q-128 0 -215 82l-105 -113l-64 61l114 122q-54 92 -54 224q0 178 92 276.5t232 98.5q128 0 214 -81l104 111zM189 362q0 -88 25 -150l353 378q-59 59 -152 59q-99 0 -162.5 -72t-63.5 -215zM642 362
q0 90 -26 151l-353 -378q58 -61 152 -61q101 0 164 71t63 217z" />
    <glyph glyph-name="Ugrave" unicode="&#xd9;" horiz-adv-x="699" 
d="M315 783h64l-52 127h-104zM518 715h98l1 -459q0 -112 -78.5 -190.5t-190.5 -78.5q-113 0 -191.5 78t-78.5 191l-1 459h96l1 -470q0 -72 51 -122t123 -50t121.5 50t49.5 122z" />
    <glyph glyph-name="Uacute" unicode="&#xda;" horiz-adv-x="699" 
d="M379 783l92 127h-105l-52 -127h65zM519 715h98v-459q0 -113 -78.5 -191t-191.5 -78t-191.5 78.5t-78.5 190.5v459h96v-470q0 -72 51 -122t123 -50t122 50t50 122v470z" />
    <glyph glyph-name="Ucircumflex" unicode="&#xdb;" horiz-adv-x="701" 
d="M278 777l73 48l73 -48h74l-97 126h-100l-97 -126h74zM521 715h98v-460q0 -112 -78 -190t-190 -78t-189.5 78t-77.5 190v460h95v-471q0 -72 50 -121.5t122 -49.5q71 0 120.5 49.5t49.5 121.5v471z" />
    <glyph glyph-name="Udieresis" unicode="&#xdc;" horiz-adv-x="700" 
d="M206 864q0 -22 15 -37t37 -15q21 0 36 15t15 37q0 21 -15 36.5t-36 15.5q-22 0 -37 -15.5t-15 -36.5zM444 812q-21 0 -36 15t-15 37q0 21 15 36.5t36 15.5q22 0 37 -15.5t15 -36.5q0 -22 -15 -37t-37 -15zM521 715h97v-460q0 -112 -77.5 -190t-189.5 -78t-190 78t-78 190
v460h96v-471q0 -72 50 -121.5t122 -49.5q71 0 120.5 49.5t49.5 121.5v471z" />
    <glyph glyph-name="Yacute" unicode="&#xdd;" horiz-adv-x="584" 
d="M340 776l91 126h-104l-51 -126h64zM465 715h96l-206 -366v-349h-94v349l-206 366h96l158 -280z" />
    <glyph glyph-name="Thorn" unicode="&#xde;" horiz-adv-x="586" 
d="M331 571q88 0 151 -63t63 -151t-63 -150.5t-151 -62.5h-148v-144h-95v715h95v-144h148zM321 229q53 0 90.5 37.5t37.5 90.5q0 54 -37.5 91.5t-90.5 37.5h-138v-257h138z" />
    <glyph glyph-name="germandbls" unicode="&#xdf;" horiz-adv-x="594" 
d="M438 427q23 -7 47 -18.5t55.5 -34.5t51.5 -62t20 -88q0 -108 -64.5 -174t-163.5 -66q-36 0 -86 12v82q31 -9 46 -9q64 0 114.5 51t50.5 116q0 67 -44 111t-114 52q-19 2 -30 15t-11 30q0 32 33 43q48 11 75 46.5t27 74.5q0 46 -35.5 86t-93.5 40t-98.5 -41.5
t-40.5 -111.5v-581h-95v569q0 117 60.5 181t171.5 64q105 0 165.5 -55t60.5 -148q0 -40 -29.5 -79t-76.5 -59q-14 -9 -14 -22q0 -19 18 -24z" />
    <glyph glyph-name="agrave" unicode="&#xe0;" horiz-adv-x="543" 
d="M284 613h-64l-93 127h105zM464 315v-315h-87v71l-4 -6q-4 -6 -7.5 -10t-10 -11.5t-14 -13.5t-18 -13t-23.5 -12.5t-28.5 -10t-35 -7t-40.5 -2.5q-65 0 -110.5 44.5t-45.5 102.5q0 46 14.5 77t51.5 49.5t58 25t74 16.5q9 2 13 3q66 12 90 27.5t24 46.5q0 34 -34.5 57
t-80.5 23q-39 0 -72.5 -22.5t-42.5 -64.5h-86q12 78 65.5 123.5t140.5 45.5q96 0 152.5 -59t56.5 -165zM375 251q-3 -1 -39 -7t-75.5 -13.5t-59.5 -13.5q-75 -23 -75 -77q0 -31 23 -53t59 -22q96 0 140 85q27 50 27 101z" />
    <glyph glyph-name="aacute" unicode="&#xe1;" horiz-adv-x="544" 
d="M377 737l-92 -127h-64l51 127h105zM465 313v-314h-87v70l-4 -5q-3 -5 -5.5 -8.5t-8.5 -10t-11.5 -11.5t-15 -12t-19 -12t-22.5 -10t-27 -8.5t-32 -5.5t-37 -2q-65 0 -110.5 44t-45.5 102q0 37 12 65t30 44.5t45.5 28.5t53.5 18.5t59 12.5q2 0 3.5 0.5t4 1t4.5 0.5
q66 12 90 27.5t24 46.5q0 34 -35 57t-80 23q-39 0 -72.5 -22.5t-43.5 -64.5h-86q13 78 66.5 123.5t140.5 45.5q96 0 152.5 -58.5t56.5 -165.5zM376 249q-3 -1 -39 -7t-76 -13.5t-60 -13.5q-75 -24 -75 -77q0 -31 23.5 -53t58.5 -22q95 0 141 85q27 50 27 101z" />
    <glyph glyph-name="acircumflex" unicode="&#xe2;" horiz-adv-x="543" 
d="M252 659l-74 -48h-75l99 127h100l99 -127h-75zM464 313v-314h-87v70l-4 -6q-4 -6 -7.5 -10t-10 -11.5t-14 -13t-18 -13t-23.5 -12.5t-28.5 -9.5t-35 -7t-40.5 -2.5q-65 0 -110.5 44t-45.5 102q0 46 14.5 77t51.5 49.5t58 25t74 16.5q9 2 13 3q66 12 90 27.5t24 46.5
q0 34 -34.5 57t-80.5 23q-39 0 -72.5 -22.5t-42.5 -64.5h-86q12 78 65.5 123.5t140.5 45.5q97 0 153 -58.5t56 -165.5zM375 249q-3 -1 -39 -7t-75.5 -13.5t-59.5 -13.5q-75 -23 -75 -77q0 -31 23 -53t59 -22q96 0 140 85q27 50 27 101z" />
    <glyph glyph-name="atilde" unicode="&#xe3;" horiz-adv-x="545" 
d="M150 656h-55q-1 4 0.5 14t7 26t15.5 30.5t30.5 25.5t48.5 12q33 0 64 -21q31 -23 55 -23q27 0 43 30h53q1 -9 -2 -24.5t-11.5 -35.5t-30.5 -34t-54 -14t-59 19l-9 7q-10 7 -15 9.5t-14.5 6t-17.5 3.5q-26 0 -49 -31zM466 314v-314h-87v70l-3 -5q-4 -5 -6.5 -8.5t-8.5 -10
t-11.5 -11.5t-15 -12t-19 -12t-22.5 -10t-27 -8.5t-32 -5.5t-37 -2q-65 0 -110.5 44t-45.5 102q0 37 12 65t30 44.5t45.5 28.5t53.5 18.5t59 12.5q2 0 3.5 0.5t4 1t4.5 0.5q66 12 90 27.5t24 46.5q0 34 -34.5 57t-80.5 23q-39 0 -72.5 -22.5t-43.5 -64.5h-85
q12 78 65.5 123.5t140.5 45.5q96 0 152.5 -58.5t56.5 -165.5zM377 250q-3 -1 -39 -7t-76 -13.5t-60 -13.5q-75 -24 -75 -77q0 -31 23.5 -53t58.5 -22q95 0 141 85q27 50 27 101z" />
    <glyph glyph-name="adieresis" unicode="&#xe4;" horiz-adv-x="544" 
d="M106 712q0 22 15.5 37t37.5 15t37 -15t15 -37t-15 -37t-37 -15t-37.5 15t-15.5 37zM348 660q22 0 37 15t15 37t-15 37t-37 15t-37.5 -15t-15.5 -37t15.5 -37t37.5 -15zM465 314v-314h-86v70l-6 -8q-6 -8 -11.5 -14t-16 -16t-24.5 -17.5t-31.5 -14.5t-41.5 -11t-51 -4
q-65 0 -110.5 44t-45.5 102q0 46 14.5 77t51.5 49.5t58 25t74 16.5q9 2 13 3q66 12 90 27.5t24 46.5q0 34 -34.5 57t-80.5 23q-39 0 -72.5 -22.5t-42.5 -64.5h-86q12 78 65.5 123.5t140.5 45.5q97 0 153 -58.5t56 -165.5zM376 250q-3 -1 -39 -7t-75.5 -13.5t-59.5 -13.5
q-75 -23 -75 -77q0 -31 23 -53t59 -22q96 0 140 85q27 50 27 101z" />
    <glyph glyph-name="aring" unicode="&#xe5;" horiz-adv-x="544" 
d="M252 603q-43 0 -74 30.5t-31 73.5t31 74t74 31q44 0 75 -30.5t31 -74.5q0 -43 -31 -73.5t-75 -30.5zM252 764q-22 0 -36.5 -16t-14.5 -41t14.5 -41t36.5 -16q23 0 37.5 16t14.5 41t-14.5 41t-37.5 16zM256 538q96 0 152.5 -58.5t56.5 -165.5v-314h-87v70l-4 -6
q-4 -6 -7.5 -10t-10 -11.5t-14 -13t-18 -13t-23.5 -12.5t-28.5 -9.5t-35 -7t-41.5 -2.5q-65 0 -110.5 44t-45.5 102q0 37 12 65t30 44.5t45.5 28.5t53.5 18.5t59 12.5q2 0 3.5 0.5t4 1t4.5 0.5q66 12 90 27.5t24 46.5q0 34 -35 57t-80 23q-39 0 -72.5 -22.5t-43.5 -64.5h-85
q12 78 65.5 123.5t140.5 45.5zM349 149q27 50 27 101q-3 -1 -39 -7t-76 -13.5t-60 -13.5q-75 -24 -75 -77q0 -31 23.5 -53t58.5 -22q95 0 141 85z" />
    <glyph glyph-name="ae" unicode="&#xe6;" horiz-adv-x="882" 
d="M631 544q236 0 236 -296h-399q6 -84 48.5 -132t113.5 -48q55 0 86.5 25t47.5 78h92q-21 -75 -79 -127.5t-153 -52.5q-67 0 -114 28.5t-84 88.5q-51 -64 -100 -90.5t-128 -26.5q-62 0 -109.5 45t-47.5 101q0 27 7.5 50t16.5 38t29 28.5t32.5 20.5t40.5 15t38.5 10.5
t41.5 8.5q77 16 95 26q23 16 24 40q0 32 -33 60.5t-80 28.5q-41 0 -73 -22.5t-44 -64.5h-86q13 79 67.5 123.5t141.5 44.5q53 0 102 -23t74 -67q65 90 196 90zM134 146q0 -31 23 -55t55 -24q46 0 80 18.5t49.5 41.5t25 54.5t10.5 46t1 28.5q-3 -1 -39 -7t-76 -13.5
t-60 -13.5q-69 -26 -69 -76zM471 317h307q-21 150 -148 150q-64 0 -105.5 -39.5t-53.5 -110.5z" />
    <glyph glyph-name="ccedilla" unicode="&#xe7;" horiz-adv-x="571" 
d="M299 65q106 0 138 107h88q-19 -84 -74.5 -131t-134.5 -51l-22 -42q4 1 13 1q35 0 58.5 -21t23.5 -62q0 -40 -29 -61t-73 -21q-45 0 -72.5 23.5t-30.5 62.5h56q9 -36 43 -36q18 0 29 10t11 26t-10 25t-26 9q-15 0 -28 -8l-34 28l37 67q-94 13 -153.5 84t-59.5 189
q0 133 70 205t179 72q90 0 150 -45t77 -138h-92q-18 56 -49.5 81t-84.5 25q-76 0 -121 -52.5t-45 -147.5q0 -94 45 -146.5t121 -52.5z" />
    <glyph glyph-name="egrave" unicode="&#xe8;" horiz-adv-x="577" 
d="M324 614h-64l-93 127h106zM534 244h-403q4 -85 48 -133t119 -48q91 0 127 88h94q-22 -78 -81.5 -121.5t-140.5 -43.5q-109 0 -179.5 73t-70.5 205q0 133 70 204.5t181 71.5q118 0 186 -89.5t50 -206.5zM134 313h315q-8 71 -48 110.5t-103 39.5q-65 0 -108.5 -39.5
t-55.5 -110.5z" />
    <glyph glyph-name="eacute" unicode="&#xe9;" horiz-adv-x="576" 
d="M417 741l-93 -128h-64l51 128h106zM533 244h-402q4 -85 48 -133t119 -48q91 0 127 88h94q-21 -78 -81 -121t-141 -43q-110 0 -180 72.5t-70 204.5q0 133 69.5 204.5t181.5 71.5q117 0 185 -89.5t50 -206.5zM134 313h315q-8 71 -48.5 110.5t-102.5 39.5
q-65 0 -108.5 -39.5t-55.5 -110.5z" />
    <glyph glyph-name="ecircumflex" unicode="&#xea;" horiz-adv-x="575" 
d="M290 662l-74 -48h-75l99 127h101l98 -127h-75zM532 244h-403q4 -85 48 -133t119 -48q91 0 127 88h94q-22 -78 -81.5 -121.5t-140.5 -43.5q-109 0 -179.5 73t-70.5 205q0 133 70 204.5t181 71.5q118 0 186 -89.5t50 -206.5zM132 313h315q-8 71 -48 110.5t-103 39.5
q-65 0 -108.5 -39.5t-55.5 -110.5z" />
    <glyph glyph-name="edieresis" unicode="&#xeb;" horiz-adv-x="573" 
d="M142 714q0 22 15 37t37 15t37.5 -15t15.5 -37t-15.5 -37t-37.5 -15t-37 15t-15 37zM383 662q22 0 37 15t15 37t-15 37t-37 15t-37 -15t-15 -37t15 -37t37 -15zM530 244h-402q4 -85 47.5 -133t119.5 -48q91 0 127 88h94q-21 -78 -81 -121t-142 -43q-109 0 -179 72.5
t-70 204.5q0 133 69.5 204.5t181.5 71.5q117 0 185 -89.5t50 -206.5zM131 313h315q-8 71 -48.5 110.5t-102.5 39.5q-65 0 -108.5 -39.5t-55.5 -110.5z" />
    <glyph glyph-name="igrave" unicode="&#xec;" horiz-adv-x="247" 
d="M100 612h65l-52 128h-105zM89 517h85v-517h-85v517z" />
    <glyph glyph-name="iacute" unicode="&#xed;" horiz-adv-x="327" 
d="M97 612h65l92 128h-105zM88 517h85v-517h-85v517z" />
    <glyph glyph-name="icircumflex" unicode="&#xee;" horiz-adv-x="350" 
d="M277 612l-98 127h-101l-99 -127h75l74 48l74 -48h75zM86 0v517h85v-517h-85z" />
    <glyph glyph-name="idieresis" unicode="&#xef;" horiz-adv-x="351" 
d="M89 712q0 22 -15 37t-37 15t-37 -15t-15 -37t15 -37t37 -15t37 15t15 37zM226 764q22 0 37 -15t15 -37t-15 -37t-37 -15t-37 15t-15 37t15 37t37 15zM89 0v517h85v-517h-85z" />
    <glyph glyph-name="eth" unicode="&#xf0;" horiz-adv-x="605" 
d="M124 789h120q47 -33 65 -46l105 46l21 -48l-82 -36q93 -109 152.5 -213t59.5 -209q0 -134 -70.5 -213t-198.5 -79q-107 0 -178.5 73t-71.5 204q0 130 68 209.5t182 79.5q35 0 67 -7q-1 5 -13.5 23.5t-36 46t-48.5 47.5l-134 -59l-21 47l116 51q-27 33 -102 83zM300 479
q-76 0 -121.5 -56t-45.5 -150q0 -93 45.5 -148.5t122.5 -55.5q75 0 121 54t46 150t-45.5 151t-122.5 55z" />
    <glyph glyph-name="ntilde" unicode="&#xf1;" horiz-adv-x="589" 
d="M136 656h55q23 31 49 31q8 0 17 -3t14.5 -6.5t14 -9.5t10.5 -7q29 -20 59 -20q32 0 54 14t30.5 34.5t11.5 36t2 24.5h-53q-19 -31 -44 -31q-23 0 -54 23q-30 22 -64 22q-28 -1 -48.5 -12t-31 -25.5t-16 -30.5t-6.5 -26t0 -14zM322 538q79 0 132 -53.5t53 -136.5v-348h-84
v332q0 54 -38 92t-90 38q-53 0 -91 -38t-38 -91v-333h-84v517h84v-47q68 68 156 68z" />
    <glyph glyph-name="ograve" unicode="&#xf2;" horiz-adv-x="598" 
d="M335 613h-64l-93 128h106zM553 264q0 -130 -70.5 -203.5t-178.5 -73.5q-109 0 -179.5 73t-70.5 204q0 132 70.5 204t179.5 72t179 -72t70 -204zM469 264q0 92 -45 146t-120 54q-74 0 -120 -53t-46 -147q0 -93 45 -146.5t121 -53.5q75 0 120 53.5t45 146.5z" />
    <glyph glyph-name="oacute" unicode="&#xf3;" horiz-adv-x="597" 
d="M428 741l-93 -128h-64l51 128h106zM552 264q0 -130 -70.5 -203.5t-178.5 -73.5q-109 0 -179.5 73t-70.5 204q0 132 70.5 204t179.5 72t179 -72t70 -204zM468 264q0 92 -45 146t-120 54q-74 0 -120 -53t-46 -147q0 -93 45 -146.5t121 -53.5q75 0 120 53.5t45 146.5z" />
    <glyph glyph-name="ocircumflex" unicode="&#xf4;" horiz-adv-x="598" 
d="M303 663l-73 -49h-76l99 128h101l98 -128h-75zM553 265q0 -130 -70.5 -203.5t-178.5 -73.5q-109 0 -179.5 73t-70.5 204q0 132 70.5 204t179.5 72t179 -72t70 -204zM469 265q0 92 -45 146t-120 54q-74 0 -120 -53t-46 -147q0 -93 45 -146.5t121 -53.5q75 0 120 53.5
t45 146.5z" />
    <glyph glyph-name="otilde" unicode="&#xf5;" horiz-adv-x="596" 
d="M198 659h-55q-1 4 0 14t6.5 26t16 30.5t31 25.5t48.5 12q34 0 64 -22q31 -23 55 -23q26 0 43 31h53q1 -9 -2 -24.5t-11.5 -36t-30.5 -34.5t-54 -14q-30 0 -59 20l-9 7q-10 7 -15 9.5t-14.5 6t-17.5 3.5q-26 0 -49 -31zM551 265q0 -130 -70.5 -203.5t-178.5 -73.5
q-109 0 -179.5 73t-70.5 204q0 132 70.5 204t179.5 72t179 -72t70 -204zM467 265q0 92 -45 146t-120 54q-74 0 -120 -53t-46 -147q0 -93 45 -146.5t121 -53.5q75 0 120 53.5t45 146.5z" />
    <glyph glyph-name="odieresis" unicode="&#xf6;" horiz-adv-x="598" 
d="M157 715q0 22 15 37t37 15t37 -15t15 -37t-15 -37t-37 -15t-37 15t-15 37zM398 663q22 0 37 15t15 37t-15 37t-37 15t-37 -15t-15 -37t15 -37t37 -15zM553 265q0 -130 -70.5 -203.5t-178.5 -73.5q-109 0 -179.5 73t-70.5 204q0 132 70.5 204t179.5 72t179 -72t70 -204z
M469 265q0 92 -45 146t-120 54q-74 0 -120 -53t-46 -147q0 -93 45 -146.5t121 -53.5q75 0 120 53.5t45 146.5z" />
    <glyph glyph-name="divide" unicode="&#xf7;" horiz-adv-x="523" 
d="M-9 389h522v-93h-522v93zM189 116q0 25 18.5 43.5t43.5 18.5q27 0 44.5 -18t17.5 -44q0 -25 -18 -43.5t-44 -18.5q-25 0 -43.5 18.5t-18.5 43.5zM188 568q0 27 19 45.5t44 18.5q27 0 45 -18.5t18 -45.5t-18 -45t-45 -18q-25 0 -44 18.5t-19 44.5z" />
    <glyph glyph-name="oslash" unicode="&#xf8;" horiz-adv-x="636" 
d="M591 516l-80 -85q40 -65 40 -164q0 -130 -70.5 -203.5t-178.5 -73.5q-92 0 -155 51l-76 -80l-58 55l80 86q-41 68 -41 165q0 132 70.5 204t179.5 72q93 0 156 -51l74 79zM136 267q0 -53 18 -100l248 265q-43 35 -100 35q-74 0 -120 -53t-46 -147zM467 267q0 55 -17 98
l-248 -264q42 -34 100 -34q75 0 120 53.5t45 146.5z" />
    <glyph glyph-name="ugrave" unicode="&#xf9;" horiz-adv-x="595" 
d="M269 611h64l-52 128h-105zM429 517h85v-517h-85v53q-66 -68 -156 -68q-79 0 -132 53.5t-53 136.5v342h84v-326q0 -54 38 -92t91 -38q52 0 90 38t38 91v327z" />
    <glyph glyph-name="uacute" unicode="&#xfa;" horiz-adv-x="590" 
d="M328 611l92 128h-105l-52 -128h65zM424 517h85v-517h-85v53q-66 -68 -156 -68q-79 0 -132 53.5t-53 136.5v342h84v-326q0 -54 38 -92t91 -38q52 0 90 38t38 91v327z" />
    <glyph glyph-name="ucircumflex" unicode="&#xfb;" horiz-adv-x="593" 
d="M226 610l74 49l74 -49h75l-99 127h-100l-99 -127h75zM428 517h84v-517h-84v52q-69 -67 -156 -67q-80 0 -132.5 53t-52.5 136v343h84v-327q0 -54 38 -91.5t91 -37.5q52 0 90 37.5t38 90.5v328z" />
    <glyph glyph-name="udieresis" unicode="&#xfc;" horiz-adv-x="592" 
d="M152 710q0 -22 15 -37t37 -15t37 15t15 37t-15 37t-37 15t-37 -15t-15 -37zM392 658q-21 0 -36.5 15t-15.5 37t15.5 37t36.5 15q22 0 37.5 -15t15.5 -37t-15.5 -37t-37.5 -15zM426 518h85v-518h-85v52q-67 -67 -155 -67q-80 0 -133 53t-52 136v344h84v-328
q-1 -54 37 -91.5t91 -37.5q52 0 89.5 37.5t38.5 90.5v329z" />
    <glyph glyph-name="yacute" unicode="&#xfd;" horiz-adv-x="535" 
d="M300 614l93 127h-105l-52 -127h64zM422 517h87l-285 -695h-86l95 233l-205 462h86l161 -359z" />
    <glyph glyph-name="thorn" unicode="&#xfe;" horiz-adv-x="586" 
d="M94 0v715h87v-185q63 104 185 104q99 0 162.5 -72t63.5 -202q0 -133 -63.5 -204t-162.5 -71q-124 0 -185 102v-187h-87zM343 557q-74 0 -118 -52.5t-44 -144.5t44 -145t118 -53q75 0 118.5 54t43.5 144q0 92 -43.5 144.5t-118.5 52.5z" />
    <glyph glyph-name="ydieresis" unicode="&#xff;" horiz-adv-x="534" 
d="M310 714q0 -22 15.5 -37t36.5 -15q22 0 37.5 15t15.5 37t-15.5 37t-37.5 15q-21 0 -36.5 -15t-15.5 -37zM174 662q-22 0 -37 15t-15 37t15 37t37 15t37 -15t15 -37t-15 -37t-37 -15zM422 517h86l-284 -696h-86l95 234l-205 462h86l160 -359z" />
    <glyph glyph-name="Dcroat" unicode="&#x110;" horiz-adv-x="720" 
d="M304 715q171 0 264 -101.5t93 -256.5q0 -149 -87.5 -253t-236.5 -104h-228v309h-84v74h84v332h195zM295 86q64 0 112.5 14t78.5 38t48.5 59.5t25.5 73.5t7 86q0 59 -12.5 105t-42 85t-84.5 59.5t-133 20.5h-91v-244h218v-74h-218v-223h91z" />
    <glyph glyph-name="dcroat" unicode="&#x111;" horiz-adv-x="625" 
d="M328 645v67h129v3h87v-3h50v-67h-50v-645h-87v88q-62 -103 -184 -103q-99 0 -162.5 72t-63.5 202q0 131 63.5 202t162.5 71q123 0 184 -101v214h-129zM135 259q0 -92 43.5 -144.5t117.5 -52.5q73 0 116.5 52.5t43.5 144.5t-43.5 144.5t-116.5 52.5q-75 0 -118 -53.5
t-43 -143.5z" />
    <glyph glyph-name="dotlessi" unicode="&#x131;" horiz-adv-x="258" 
d="M84 0v703h88v-703h-88z" />
    <glyph glyph-name="Lslash" unicode="&#x141;" horiz-adv-x="558" 
d="M47 316l62 23v376h95v-341l199 73v-72l-199 -73v-215h324v-87h-419v267l-62 -23v72z" />
    <glyph glyph-name="lslash" unicode="&#x142;" horiz-adv-x="339" 
d="M266 464v-73l-82 -41v-350h-85v308l-82 -42v73l82 41v335h85v-293z" />
    <glyph glyph-name="OE" unicode="&#x152;" horiz-adv-x="1026" 
d="M355 -16q-141 0 -232.5 99t-91.5 278q0 178 91.5 276.5t232.5 98.5q139 0 227 -94v74h423v-84h-327v-220h264v-88h-264v-236h327v-88h-423v78q-88 -94 -227 -94zM355 648q-99 0 -162.5 -72t-63.5 -215q0 -145 63 -216.5t163 -71.5q101 0 164 71t63 217q0 143 -63.5 215
t-163.5 72z" />
    <glyph glyph-name="oe" unicode="&#x153;" horiz-adv-x="994" 
d="M722 536q118 0 186 -89.5t49 -206.5h-402q4 -85 48 -133t119 -48q91 0 127 88h94q-21 -78 -81 -121t-141 -43q-145 0 -212 117q-68 -105 -203 -105q-109 0 -179.5 73t-70.5 204q0 132 70.5 204t179.5 72q68 0 123.5 -29.5t87.5 -85.5q66 103 205 103zM306 72
q75 0 120 53.5t45 146.5q0 92 -45 146t-120 54q-74 0 -120 -53t-46 -147q0 -93 45 -146.5t121 -53.5zM558 309h315q-8 71 -48 110.5t-103 39.5q-65 0 -108.5 -39.5t-55.5 -110.5z" />
    <glyph glyph-name="Scaron" unicode="&#x160;" horiz-adv-x="632" 
d="M262 777h100l97 126h-74l-73 -48l-73 48h-74zM372 394q94 -18 145 -63.5t51 -133.5q0 -83 -67 -146.5t-180 -63.5q-116 0 -187.5 63.5t-77.5 165.5h86q6 -62 55.5 -106t122.5 -44q72 0 114 32.5t42 89.5q0 47 -26 72.5t-75 42.5q-41 13 -94 24q-93 18 -144.5 63.5
t-51.5 132.5q0 86 69.5 148t165.5 62q111 0 175 -58t68 -139h-84q-15 55 -54.5 88.5t-102.5 33.5q-62 0 -104 -36.5t-42 -91.5q0 -47 26 -72t76 -40q44 -14 94 -24z" />
    <glyph glyph-name="scaron" unicode="&#x161;" horiz-adv-x="483" 
d="M187 612h100l99 127h-75l-74 -48l-74 48h-75zM143 384q0 -31 22 -49.5t54.5 -24.5t71 -15.5t71 -22t54.5 -44.5t22 -81q0 -63 -52.5 -111.5t-140.5 -48.5q-91 0 -146.5 48t-61.5 124h84q4 -38 36.5 -67.5t86.5 -29.5q49 0 79 21t30 57q0 37 -30.5 56t-73.5 27.5t-86 20
t-73.5 44.5t-30.5 91q0 65 55 112.5t130 47.5q84 0 133.5 -43t56.5 -102h-83q-26 72 -105 72q-46 0 -74.5 -21.5t-28.5 -60.5z" />
    <glyph glyph-name="Ydieresis" unicode="&#x178;" horiz-adv-x="585" 
d="M351 863q0 -22 15 -37t36 -15q22 0 37 15t15 37q0 21 -15 36.5t-37 15.5q-21 0 -36 -15.5t-15 -36.5zM216 811q-22 0 -37 15t-15 37q0 21 15 36.5t37 15.5q21 0 36 -15.5t15 -36.5q0 -22 -15 -37t-36 -15zM466 715h96l-206 -366v-349h-94v349l-206 366h96l157 -280z" />
    <glyph glyph-name="Zcaron" unicode="&#x17d;" horiz-adv-x="602" 
d="M433 627h-387v88h511v-63l-387 -565h387v-87h-510v64zM155 900h74l73 -48l73 48h74l-97 -126h-100z" />
    <glyph glyph-name="zcaron" unicode="&#x17e;" horiz-adv-x="487" 
d="M36 1v51l306 388h-306v77h424v-54l-304 -386h304v-76h-424zM99 738h75l74 -48l74 48h75l-99 -127h-100z" />
    <glyph glyph-name="circumflex" unicode="&#x2c6;" horiz-adv-x="400" 
d="M121 625h-81l104 132h106l104 -132h-81l-76 50z" />
    <glyph glyph-name="caron" unicode="&#x2c7;" horiz-adv-x="400" 
d="M155 624l-103 133h82l75 -50l76 50h82l-104 -133h-108z" />
    <glyph glyph-name="dotaccent" unicode="&#x2d9;" horiz-adv-x="400" 
d="M200 628q-24 0 -41 16.5t-17 41.5q0 24 17 40.5t41 16.5t41 -16.5t17 -40.5q0 -25 -17 -41.5t-41 -16.5z" />
    <glyph glyph-name="ring" unicode="&#x2da;" horiz-adv-x="400" 
d="M200 644q23 0 37.5 16t14.5 41t-14.5 41.5t-37.5 16.5t-37.5 -16.5t-14.5 -41.5t14.5 -41t37.5 -16zM200 596q-44 0 -76 31.5t-32 73.5q0 43 32 74t76 31t76 -31t32 -74q0 -42 -32 -73.5t-76 -31.5z" />
    <glyph glyph-name="ogonek" unicode="&#x2db;" horiz-adv-x="400" 
d="M221 -182q-47 0 -76 21.5t-29 58.5q0 62 79 102h71q-66 -46 -66 -84q0 -36 38 -36q29 0 50 11v-61q-29 -12 -67 -12z" />
    <glyph glyph-name="tilde" unicode="&#x2dc;" horiz-adv-x="409" 
d="M66 630h-69q0 12 5 28.5t17 39t40 37.5t67 15q35 0 80.5 -24.5t67.5 -24.5q38 0 57 35h67q0 -14 -4.5 -31.5t-15.5 -39t-37 -36t-62 -14.5q-41 0 -85 25t-65 25q-36 0 -63 -35z" />
    <glyph glyph-name="hungarumlaut" unicode="&#x2dd;" horiz-adv-x="400" 
d="M93 609l40 148h99l-75 -148h-64zM249 609l40 148h99l-76 -148h-63z" />
    <glyph glyph-name="uni060C" unicode="&#x60c;" horiz-adv-x="216" 
d="M129 292l30 -13l-42 -158l48 -90l-73 -39l-2 2q-41 63 -41 97q0 56 78 198z" />
    <glyph glyph-name="uni061B" unicode="&#x61b;" horiz-adv-x="236" 
d="M140 512l30 -13l-42 -158l48 -91l-73 -39l-1 2q-42 58 -42 95q0 32 26 93.5t52 107.5zM123 3q-19 0 -32.5 13.5t-13.5 31.5q0 19 13.5 33.5t32.5 14.5t32.5 -14.5t13.5 -33.5q0 -18 -13.5 -31.5t-32.5 -13.5z" />
    <glyph glyph-name="uni061F" unicode="&#x61f;" horiz-adv-x="499" 
d="M415 674v-82l-4 1q-85 35 -159 35q-49 0 -81 -24t-32 -71q0 -43 54 -97q10 -11 32 -33q41 -44 63.5 -85.5t22.5 -97.5v-31h-81v27q0 35 -15 66.5t-30 48.5t-46 47q-28 28 -33 34q-59 59 -59 129q0 82 53 126t138 44q92 0 175 -36zM267 4q-19 0 -32.5 14t-13.5 31
q0 19 13.5 33.5t32.5 14.5t32.5 -14.5t13.5 -33.5q0 -17 -13.5 -31t-32.5 -14z" />
    <glyph glyph-name="uni0621" unicode="&#x621;" horiz-adv-x="432" 
d="M345 337l-1 -76l-4 1q-50 9 -99 9q-51 0 -79 -10q-7 -13 -7 -56q0 -33 13 -68t35 -55h3q92 0 160 10h3l8 -76l-2 -1q-85 -15 -171 -15h-160v82h90q-45 59 -45 114q0 62 29 122l1 1v1q54 31 133 31q42 0 91 -13z" />
    <glyph glyph-name="uni0622" unicode="&#x622;" horiz-adv-x="246" 
d="M85 0v676h78v-676h-78zM245 841l10 -40l-1 -1q-56 -37 -110 -37q-41 0 -81 38q-8 -3 -75 -56l-3 -3l-15 37l2 1q7 6 20 17.5t20 17.5q22 19 42 32l2 2l2 -2q44 -39 94 -39q38 0 89 31z" />
    <glyph glyph-name="uni0623" unicode="&#x623;" horiz-adv-x="248" 
d="M86 0v676h78v-676h-78zM218 779l4 -41l-2 -1q-47 -10 -101 -10h-90v42l57 -2q-26 34 -26 60q0 32 16 64l2 2q38 12 69 12q27 0 52 -6l2 -1l-3 -36h-3q-29 3 -56 3t-39 -4q-1 -3 -3 -13q0 -57 24 -82h3q55 0 90 12z" />
    <glyph glyph-name="uni0624" unicode="&#x624;" horiz-adv-x="515" 
d="M334 571l4 -42l-2 -1q-42 -9 -98 -9h-92v42l59 -4q-4 8 -6 11q-4 5 -10 15q-12 17 -12 35q0 35 17 64l2 2q32 13 70 13q21 0 49 -5l2 -1l-3 -38h-3q-27 3 -53 3q-27 0 -39 -4q-2 -6 -2 -13q-1 -6 -1 -15q0 -22 7 -36q2 -6 17 -31h3q51 0 87 13zM97 -193l-2 1l-14 84l5 -2
q64 -23 149 -23q70 0 102 30t43 99h-8q-93 6 -176 44t-135 105l-1 1v2q9 39 25 80t41 85t61.5 72t78.5 28q59 0 104 -51q46 -51 66.5 -128.5t20.5 -158.5q0 -294 -235 -294q-65 0 -125 26zM384 81v7q0 32 -7 69.5t-21.5 76t-41 64t-61.5 25.5q-39 0 -70.5 -46.5t-49.5 -99.5
q1 -1 3 -4q42 -42 113 -67t135 -25z" />
    <glyph glyph-name="uni0625" unicode="&#x625;" horiz-adv-x="248" 
d="M213 -205l4 -40l-2 -1q-47 -10 -101 -10h-90v42l57 -2q-26 34 -26 60q0 31 16 63l2 2q35 11 69 11q24 0 52 -5l2 -1l-3 -35h-3q-38 2 -56 2q-13 0 -21 -1q-12 0 -18 -2q-1 -2 -3 -13q0 -57 24 -82h3q55 0 90 11zM164 744v-744h-78v744h78z" />
    <glyph glyph-name="uni0626" unicode="&#x626;" horiz-adv-x="814" 
d="M730 445l-1 -88l-4 1q-70 17 -127 17q-81 0 -108 -15v-1q-1 -1 -1 -2t-0.5 -2.5t-0.5 -2.5q-2 -14 -2 -23q0 -17 7 -31t22 -26t25.5 -18t29.5 -16q21 -10 49 -22q31 -14 50.5 -24.5t41.5 -27.5t33 -38.5t11 -47.5q0 -50 -16 -94l-2 -2q-152 -76 -359 -76q-65 0 -120 13.5
t-100 42t-70.5 78.5t-25.5 117q0 69 22 141l1 2l64 12l-1 -5q-15 -63 -15 -119q0 -193 267 -193q150 0 283 43q0 4 1 10t1 10q0 30 -57 66q-17 11 -64 33t-70 36q-81 50 -81 116q0 52 22 96q1 0 8 13q0 1 3 4l2 1l6 3l8 4q66 33 147 33q60 0 119 -17zM226 466l4 -41l-2 -1
q-47 -10 -101 -10h-90v42l57 -3q-26 37 -26 60q0 32 16 64l2 2q36 13 69 13q27 0 52 -6l2 -1l-3 -37h-3q-29 3 -56 3t-39 -4q-2 -6 -2 -13q-1 -6 -1 -15q0 -42 24 -66h3q59 0 90 12z" />
    <glyph glyph-name="uni0627" unicode="&#x627;" horiz-adv-x="248" 
d="M162 744v-744h-76v744h76z" />
    <glyph glyph-name="uni0628" unicode="&#x628;" horiz-adv-x="847" 
d="M423 -203q-19 0 -32.5 14.5t-13.5 33.5q0 18 13.5 31.5t32.5 13.5q20 0 34 -13t14 -32q0 -20 -14 -34t-34 -14zM694 391h76v-391h-459q-257 0 -257 218q0 54 21 120l1 2l64 12l-1 -5q-15 -53 -15 -107q0 -38 11.5 -66t29.5 -44t46.5 -25t56.5 -12t66 -3h360v301z" />
    <glyph glyph-name="uni0629" unicode="&#x629;" horiz-adv-x="482" 
d="M298 526q-20 0 -32.5 14.5t-12.5 33.5q0 18 13.5 32t31.5 14q19 0 32.5 -14t13.5 -32q0 -19 -13 -33.5t-33 -14.5zM147 526q-20 0 -33 14.5t-13 33.5q0 18 13.5 32t32.5 14t33.5 -13.5t14.5 -32.5q0 -20 -14 -34t-34 -14zM186 396l63 56l2 -4q126 -223 178 -322v-1
l-38 -100q-75 -40 -161 -40q-72 0 -125 35.5t-53 103.5t44.5 123t116.5 110zM357 102l-1 2q-5 9 -42 77q-8 15 -24.5 42.5t-19.5 33.5q-3 7 -10.5 20t-10.5 18q-2 4 -2 6q-44 -26 -84 -70t-40 -82t38.5 -56.5t84.5 -18.5q27 0 62 6.5t52 18.5z" />
    <glyph glyph-name="uni062A" unicode="&#x62a;" horiz-adv-x="847" 
d="M493 449q-19 0 -32.5 14t-13.5 32t13.5 31.5t32.5 13.5t32.5 -13.5t13.5 -31.5t-13.5 -32t-32.5 -14zM341 449q-19 0 -32.5 14t-13.5 32t13.5 31.5t32.5 13.5t32.5 -13.5t13.5 -31.5t-13.5 -32t-32.5 -14zM694 391h76v-391h-459q-257 0 -257 218q0 54 21 120l1 2l64 12
l-1 -5q-15 -53 -15 -107q0 -38 11.5 -66t29.5 -44t46.5 -25t56.5 -12t66 -3h360v301z" />
    <glyph glyph-name="uni062B" unicode="&#x62b;" horiz-adv-x="847" 
d="M494 442q-19 0 -32.5 14t-13.5 32t13.5 31.5t32.5 13.5t32.5 -13.5t13.5 -31.5t-13.5 -32t-32.5 -14zM342 442q-19 0 -32.5 14t-13.5 32t13.5 31.5t32.5 13.5t32.5 -13.5t13.5 -31.5t-13.5 -32t-32.5 -14zM417 539q-20 0 -33 14.5t-13 33.5q0 18 13.5 32t32.5 14
q20 0 34 -13.5t14 -32.5q0 -20 -14 -34t-34 -14zM694 391h76v-391h-459q-257 0 -257 218q0 54 21 120l1 2l64 12l-1 -5q-15 -53 -15 -107q0 -38 11.5 -66t29.5 -44t46.5 -25t56.5 -12t66 -3h360v301z" />
    <glyph glyph-name="uni062C" unicode="&#x62c;" horiz-adv-x="589" 
d="M101 345v81l2 1q60 27 122 27q45 0 115 -40.5t118.5 -80.5t95.5 -84l1 -1l-21 -86h-2q-241 -34 -368 -100q-4 -2 -12.5 -7t-13.5 -7q-1 0 -4 -2q-16 -45 -16 -89q0 -138 177 -138q82 0 206 39l5 1l-1 -4q-2 -16 -2 -72v-2l-2 -1q-110 -48 -228 -48q-101 0 -163.5 52
t-62.5 150q0 90 38 168l1 1q58 36 130 62t122.5 37.5t140.5 28.5q-172 132 -267 132q-48 0 -107 -17zM308 -74q-18 0 -32 14t-14 31q0 19 13.5 33.5t32.5 14.5t32.5 -14.5t13.5 -33.5q0 -17 -14 -31t-32 -14z" />
    <glyph glyph-name="uni062D" unicode="&#x62d;" horiz-adv-x="589" 
d="M101 345v81l2 1q60 27 122 27q45 0 115 -40.5t118.5 -80.5t95.5 -84l1 -1l-21 -86h-2q-241 -34 -368 -100q-4 -2 -12.5 -7t-13.5 -7q-1 0 -4 -2q-16 -45 -16 -89q0 -138 177 -138q82 0 206 39l5 1l-1 -4q-2 -16 -2 -72v-2l-2 -1q-110 -48 -228 -48q-101 0 -163.5 52
t-62.5 150q0 90 38 168l1 1q58 36 130 62t122.5 37.5t140.5 28.5q-172 132 -267 132q-48 0 -107 -17z" />
    <glyph glyph-name="uni062E" unicode="&#x62e;" horiz-adv-x="589" 
d="M239 593q-19 0 -32.5 14t-13.5 32t14 32.5t32 14.5t31.5 -14.5t13.5 -32.5t-13.5 -32t-31.5 -14zM101 345v81l2 1q60 27 122 27q45 0 115 -40.5t118.5 -80.5t95.5 -84l1 -1l-21 -86h-2q-241 -34 -368 -100q-4 -2 -12.5 -7t-13.5 -7q-1 0 -4 -2q-16 -45 -16 -89
q0 -138 177 -138q82 0 206 39l5 1l-1 -4q-2 -16 -2 -72v-2l-2 -1q-110 -48 -228 -48q-101 0 -163.5 52t-62.5 150q0 90 38 168l1 1q58 36 130 62t122.5 37.5t140.5 28.5q-172 132 -267 132q-48 0 -107 -17z" />
    <glyph glyph-name="uni062F" unicode="&#x62f;" horiz-adv-x="493" 
d="M176 405l59 61h5l1 -1q156 -199 196 -372l-52 -93h-319l-22 87l3 3h315q-46 139 -184 313z" />
    <glyph glyph-name="uni0630" unicode="&#x630;" horiz-adv-x="493" 
d="M170 574q-19 0 -33 13.5t-14 32.5t14 32.5t33 13.5t33 -13.5t14 -32.5t-14 -32.5t-33 -13.5zM176 405l59 61h5l1 -1q156 -199 196 -372l-52 -93h-319l-22 87l3 3h315q-46 139 -184 313z" />
    <glyph glyph-name="uni0631" unicode="&#x631;" horiz-adv-x="298" 
d="M161 358h74v-343q0 -234 -176 -234q-35 0 -68 14l-2 1l-14 84l5 -1q31 -12 83 -12q57 0 77.5 35t20.5 96v360z" />
    <glyph glyph-name="uni0632" unicode="&#x632;" horiz-adv-x="298" 
d="M188 520q-20 0 -33 14.5t-13 33.5q0 18 13.5 32t32.5 14q18 0 31.5 -14t13.5 -32q0 -19 -13 -33.5t-32 -14.5zM161 358h74v-343q0 -234 -176 -234q-35 0 -68 14l-2 1l-14 84l5 -1q31 -12 83 -12q57 0 77.5 35t20.5 96v360z" />
    <glyph glyph-name="uni0633" unicode="&#x633;" horiz-adv-x="1114" 
d="M770 57l-6 4l-41 -61h-2q-95 0 -181 54v-157l-2 -1q-119 -58 -227 -58q-126 0 -191.5 67t-65.5 190q0 75 25 150l1 2l63 10l-1 -5q-17 -66 -17 -132q0 -101 51.5 -148.5t155.5 -47.5q82 0 133 21v400h75v-225q1 -1 4 -3q57 -27 150 -27h9l33 255h76l-28 -228
q12 -12 78 -19.5t104 -7.5h11q-4 25 -20.5 128t-26.5 158v3l75 18l1 -3q35 -181 48 -298v-1l-60 -95h-2q-127 0 -222 57z" />
    <glyph glyph-name="uni0634" unicode="&#x634;" horiz-adv-x="1114" 
d="M819 480q-19 0 -32.5 14t-13.5 31q0 19 13.5 33.5t32.5 14.5t32.5 -14.5t13.5 -33.5q0 -17 -13.5 -31t-32.5 -14zM668 480q-18 0 -32 14t-14 31q0 19 13.5 33.5t32.5 14.5t33 -14t14 -34q0 -19 -13.5 -32t-33.5 -13zM744 579q-19 0 -32.5 14t-13.5 32t13.5 32t32.5 14
t32.5 -14t13.5 -32t-13.5 -32t-32.5 -14zM770 57l-6 4l-41 -61h-2q-95 0 -181 54v-157l-2 -1q-119 -58 -227 -58q-126 0 -191.5 67t-65.5 190q0 75 25 150l1 2l63 10l-1 -5q-17 -66 -17 -132q0 -101 51.5 -148.5t155.5 -47.5q82 0 133 21v400h75v-225q1 -1 4 -3
q57 -27 150 -27h9l33 255h76l-28 -228q12 -12 78 -19.5t104 -7.5h11q-4 25 -20.5 128t-26.5 158v3l75 18l1 -3q35 -181 48 -298v-1l-60 -95h-2q-127 0 -222 57z" />
    <glyph glyph-name="uni0635" unicode="&#x635;" horiz-adv-x="1094" 
d="M91 247l63 10l-1 -5q-17 -66 -17 -132q0 -102 51 -149t155 -47q86 0 134 21v400h75v-93q103 78 135 98q92 63 155 63q53 0 92 -32.5t59 -84t29.5 -102t9.5 -98.5v-1l-63 -95h-417v-103l-2 -1q-119 -58 -227 -58q-126 0 -191.5 67t-65.5 190q0 75 25 150zM551 182v-92h409
v6q0 17 -6 53q-29 175 -133 175q-49 0 -125.5 -44.5t-141.5 -95.5q-2 -2 -3 -2z" />
    <glyph glyph-name="uni0636" unicode="&#x636;" horiz-adv-x="1094" 
d="M688 524q-20 0 -33.5 14.5t-13.5 33.5t14 32.5t33 13.5q18 0 32 -13.5t14 -32.5q0 -20 -13.5 -34t-32.5 -14zM91 247l63 10l-1 -5q-17 -66 -17 -132q0 -102 51 -149t155 -47q86 0 134 21v400h75v-93q103 78 135 98q92 63 155 63q53 0 92 -32.5t59 -84t29.5 -102
t9.5 -98.5v-1l-63 -95h-417v-103l-2 -1q-119 -58 -227 -58q-126 0 -191.5 67t-65.5 190q0 75 25 150zM551 182v-92h409v6q0 17 -6 53q-29 175 -133 175q-49 0 -125.5 -44.5t-141.5 -95.5q-2 -2 -3 -2z" />
    <glyph glyph-name="uni0637" unicode="&#x637;" horiz-adv-x="789" 
d="M723 95l-62 -95h-600l-39 87l4 3h144v654h74l-1 -494q71 60 153.5 111.5t138.5 51.5q59 0 103 -46q85 -88 85 -271v-1zM246 184l-3 -3v-91h411v6q0 10 -2 26q-1 4 -2.5 13t-2.5 13q-31 176 -132 176q-50 0 -131.5 -46.5t-137.5 -93.5z" />
    <glyph glyph-name="uni0638" unicode="&#x638;" horiz-adv-x="789" 
d="M426 569q-19 0 -33.5 13.5t-14.5 32.5t14.5 32.5t33.5 13.5t32.5 -14t13.5 -32t-13.5 -32t-32.5 -14zM723 95l-62 -95h-600l-39 87l4 3h144v654h74l-1 -494q71 60 153.5 111.5t138.5 51.5q59 0 103 -46q85 -88 85 -271v-1zM246 184l-3 -3v-91h411v6q0 10 -2 26
q-1 4 -2.5 13t-2.5 13q-31 176 -132 176q-50 0 -131.5 -46.5t-137.5 -93.5z" />
    <glyph glyph-name="uni0639" unicode="&#x639;" horiz-adv-x="544" 
d="M463 210l-1 -78l-2 -1q-227 -45 -318 -89l-2 -1q-17 -28 -17 -87q0 -135 176 -135q97 0 209 40l4 1v-78l-2 -1q-104 -47 -229 -47q-102 0 -165.5 50.5t-63.5 148.5q0 74 38 160h1v1q23 13 71 31q4 2 28 10.5t36 13.5q-114 49 -150 167q-2 6 -2 8q-2 6 -2 9v1l1 1
q3 17 18 46q31 64 93.5 99.5t135.5 35.5q48 0 86 -11l2 -1v-89l-4 1q-39 9 -92 9q-47 0 -92.5 -20t-72.5 -56q0 -1 -1 -3v-2q0 -1 0.5 -3.5t0.5 -4.5q2 -6 3 -8q17 -55 53.5 -90t93.5 -56q14 -4 22 -4q7 4 65 16q69 13 75 15z" />
    <glyph glyph-name="uni063A" unicode="&#x63a;" horiz-adv-x="544" 
d="M245 642q-20 0 -33 14.5t-13 33.5q0 18 13.5 31.5t32.5 13.5q18 0 31.5 -13.5t13.5 -31.5q0 -19 -13 -33.5t-32 -14.5zM463 210l-1 -78l-2 -1q-227 -45 -318 -89l-2 -1q-17 -28 -17 -87q0 -135 176 -135q97 0 209 40l4 1v-78l-2 -1q-104 -47 -229 -47q-102 0 -165.5 50.5
t-63.5 148.5q0 74 38 160h1v1q23 13 71 31q4 2 28 10.5t36 13.5q-114 49 -150 167q-2 6 -2 8q-2 6 -2 9v1l1 1q3 17 18 46q31 64 93.5 99.5t135.5 35.5q48 0 86 -11l2 -1v-89l-4 1q-39 9 -92 9q-47 0 -92.5 -20t-72.5 -56q0 -1 -1 -3v-2q0 -1 0.5 -3.5t0.5 -4.5q2 -6 3 -8
q17 -55 53.5 -90t93.5 -56q14 -4 22 -4q7 4 65 16q69 13 75 15z" />
    <glyph glyph-name="uni0640" unicode="&#x640;" horiz-adv-x="150" 
d="M-7 90h164q7 0 7 -7v-76q0 -7 -7 -7h-164q-7 0 -7 7v76q0 7 7 7z" />
    <glyph glyph-name="uni0641" unicode="&#x641;" horiz-adv-x="940" 
d="M666 623q-19 0 -32.5 14t-13.5 32q0 19 13 33.5t33 14.5t33.5 -14t13.5 -34q0 -19 -13.5 -32.5t-33.5 -13.5zM857 0h-544q-258 0 -258 220q0 47 19 123l1 2l65 9l-1 -5q-16 -51 -16 -107q0 -47 16 -78.5t47.5 -47t65.5 -21t81 -5.5h474l2 59q-202 0 -308 91l-1 1v1
q7 55 27 114t65 111t102 52q48 0 85.5 -35t57.5 -88t30 -104t10 -93q0 -102 -19 -197zM569 282l-1 -4q52 -34 105 -44t133 -10q-6 39 -12.5 65.5t-20.5 62.5t-39 55.5t-58 19.5q-64 0 -107 -145z" />
    <glyph glyph-name="uni0642" unicode="&#x642;" horiz-adv-x="752" 
d="M563 509q-19 0 -32.5 13.5t-13.5 31.5q0 19 13 33.5t33 14.5t33 -14.5t13 -33.5q0 -18 -13.5 -31.5t-32.5 -13.5zM411 509q-19 0 -32.5 13.5t-13.5 31.5q0 19 13 33.5t33 14.5t34 -14t14 -34q0 -19 -14 -32t-34 -13zM80 165l62 14l-1 -5q-16 -66 -16 -125
q0 -61 20.5 -102t59.5 -61.5t83.5 -28t105.5 -7.5q131 0 216 30h3q5 9 12 55t7 62v5q-204 2 -311 106l-1 1v1q6 53 28 111t66.5 107t97.5 49q52 0 92 -35t60.5 -88t30.5 -104.5t10 -97.5q0 -113 -37 -221l-2 -2q-129 -68 -295 -68q-143 0 -230 61.5t-87 197.5q0 60 25 144z
M389 146q85 -57 241 -57q-31 197 -130 197q-27 0 -51.5 -26t-38 -55t-21.5 -59z" />
    <glyph glyph-name="uni0643" unicode="&#x643;" horiz-adv-x="849" 
d="M502 492l4 -40l-2 -1q-57 -10 -101 -10h-90v42l60 -2q-29 31 -29 57q0 37 16 66l2 2q36 11 71 11q17 0 49 -4h3l-3 -38h-3q-28 3 -56 3q-27 0 -39 -4q-1 -4 -3 -14q0 -54 24 -80h3q56 0 90 11zM694 744h76v-744h-459q-257 0 -257 218q0 54 21 120l1 2l64 12l-1 -5
q-15 -53 -15 -107q0 -38 11.5 -66t29.5 -44t46.5 -25t56.5 -12t66 -3h360v654z" />
    <glyph glyph-name="uni0644" unicode="&#x644;" horiz-adv-x="631" 
d="M83 231l63 11l-1 -5q-18 -70 -18 -131q0 -104 53 -151t160 -47q25 0 72.5 5.5t58.5 13.5v817h76v-863l-2 -1q-116 -58 -228 -58q-129 0 -195 67t-66 194q0 63 26 146z" />
    <glyph glyph-name="uni0645" unicode="&#x645;" horiz-adv-x="517" 
d="M120 -267l-92 282v1q28 71 46.5 113.5t52 101.5t70.5 101q55 66 121 66q37 0 65 -20t43.5 -51.5t23 -65t7.5 -65.5q0 -56 -26 -128q-1 -1 -1 -3.5t-1 -3.5q0 -5 -4 -9q-11 -14 -32 -31q-22 -18 -33 -29l-1 -1l-231 83l-22 -56l90 -253l-3 -1l-70 -30zM160 141l203 -70
q21 29 21 107q0 48 -21 89.5t-64 41.5q-57 0 -114 -116q-3 -6 -15 -28q-2 -6 -5.5 -14t-4.5 -10z" />
    <glyph glyph-name="uni0646" unicode="&#x646;" horiz-adv-x="612" 
d="M278 370q-18 0 -31.5 14t-13.5 32q0 19 13 33.5t32 14.5q20 0 33 -14.5t13 -33.5q0 -18 -13.5 -32t-32.5 -14zM80 247l63 10l-1 -5q-17 -66 -17 -132q0 -101 51.5 -148.5t155.5 -47.5q84 0 133 21v400h75v-448l-2 -1q-119 -58 -227 -58q-126 0 -191.5 67t-65.5 190
q0 75 25 150z" />
    <glyph glyph-name="uni0647" unicode="&#x647;" horiz-adv-x="482" 
d="M186 396l63 56l2 -4q126 -223 178 -322v-1l-38 -100q-75 -40 -161 -40q-72 0 -125 35.5t-53 103.5t44.5 123t116.5 110zM357 102l-1 2q-5 9 -42 77q-8 15 -24.5 42.5t-19.5 33.5q-3 7 -10.5 20t-10.5 18q-2 4 -2 6q-44 -26 -84 -70t-40 -82t38.5 -56.5t84.5 -18.5
q27 0 62 6.5t52 18.5z" />
    <glyph glyph-name="uni0648" unicode="&#x648;" horiz-adv-x="515" 
d="M97 -193l-2 1l-14 84l5 -2q64 -23 149 -23q70 0 102 30t43 99h-8q-93 6 -176 44t-135 105l-1 1v2q9 39 25 80t41 85t61.5 72t78.5 28q59 0 104 -51q46 -51 66.5 -128.5t20.5 -158.5q0 -294 -235 -294q-65 0 -125 26zM384 81v7q0 32 -7 69.5t-21.5 76t-41 64t-61.5 25.5
q-39 0 -70.5 -46.5t-49.5 -99.5q1 -1 3 -4q42 -42 113 -67t135 -25z" />
    <glyph glyph-name="uni0649" unicode="&#x649;" horiz-adv-x="814" 
d="M730 445l-1 -88l-4 1q-70 17 -127 17q-81 0 -108 -15v-1q-1 -1 -1 -2t-0.5 -2.5t-0.5 -2.5q-2 -14 -2 -23q0 -17 7 -31t22 -26t25.5 -18t29.5 -16q21 -10 49 -22q31 -14 50.5 -24.5t41.5 -27.5t33 -38.5t11 -47.5q0 -50 -16 -94l-2 -2q-152 -76 -359 -76q-65 0 -120 13.5
t-100 42t-70.5 78.5t-25.5 117q0 69 22 141l1 2l64 12l-1 -5q-15 -63 -15 -119q0 -193 267 -193q150 0 283 43q0 4 1 10t1 10q0 30 -57 66q-17 11 -64 33t-70 36q-81 50 -81 116q0 52 22 96q1 0 8 13q0 1 3 4l2 1l6 3l8 4q66 33 147 33q60 0 119 -17z" />
    <glyph glyph-name="uni064A" unicode="&#x64a;" horiz-adv-x="814" 
d="M730 445l-1 -88l-4 1q-70 17 -127 17q-81 0 -108 -15v-1q-1 -1 -1 -2t-0.5 -2.5t-0.5 -2.5q-2 -14 -2 -23q0 -17 7 -31t22 -26t25.5 -18t29.5 -16q21 -10 49 -22q31 -14 50.5 -24.5t41.5 -27.5t33 -38.5t11 -47.5q0 -50 -16 -94l-2 -2q-152 -76 -359 -76q-65 0 -120 13.5
t-100 42t-70.5 78.5t-25.5 117q0 69 22 141l1 2l64 12l-1 -5q-15 -63 -15 -119q0 -193 267 -193q150 0 283 43q0 4 1 10t1 10q0 30 -57 66q-17 11 -64 33t-70 36q-81 50 -81 116q0 52 22 96q1 0 8 13q0 1 3 4l2 1l6 3l8 4q66 33 147 33q60 0 119 -17zM466 -287
q-19 0 -32.5 14t-13.5 32t13.5 31.5t32.5 13.5t32.5 -13.5t13.5 -31.5t-13.5 -32t-32.5 -14zM314 -287q-19 0 -32.5 14t-13.5 32t13.5 31.5t32.5 13.5t32.5 -13.5t13.5 -31.5t-13.5 -32t-32.5 -14z" />
    <glyph glyph-name="uni064B" unicode="&#x64b;" 
d="M74 1014v-48l-233 -88v47zM69 921v-48l-232 -88v47z" />
    <glyph glyph-name="uni064C" unicode="&#x64c;" 
d="M29 1001q22 0 35.5 -19.5t13.5 -48.5q0 -48 -37 -89.5t-85 -41.5q-27 0 -44 22.5t-19 54.5q-38 -65 -42 -79l-7 -3l-26 29q15 44 65 107h38q-1 -47 10 -63.5t37 -16.5q20 0 38 12q-57 1 -57 46q0 30 25 60t55 30zM-9 920q0 -20 43 -21q3 9 3 20q0 12 -5.5 21t-14.5 9
q-8 0 -17 -9.5t-9 -19.5z" />
    <glyph glyph-name="uni064D" unicode="&#x64d;" 
d="M76 -207v-49l-233 -88v47zM71 -300v-49l-232 -88v47z" />
    <glyph glyph-name="uni064E" unicode="&#x64e;" 
d="M69 921v-48l-232 -88v47z" />
    <glyph glyph-name="uni064F" unicode="&#x64f;" 
d="M-87 918q0 28 26.5 60.5t53.5 32.5q23 0 39 -23.5t16 -52.5q0 -57 -48.5 -95t-129.5 -47l-16 45l5 6q85 7 118 30q-28 0 -46 12t-18 32zM-42 928q0 -18 39 -18h6q2 14 2 15q0 13 -6.5 23.5t-14.5 10.5q-9 0 -17.5 -10t-8.5 -21z" />
    <glyph glyph-name="uni0650" unicode="&#x650;" 
d="M76 -207v-49l-233 -88v47z" />
    <glyph glyph-name="uni0651" unicode="&#x651;" 
d="M9 941l37 16q15 -37 15 -66q0 -37 -20 -59.5t-50 -22.5q-25 0 -48 18q-25 -31 -60 -31q-22 0 -36 14.5t-14 42.5q0 25 18 65l33 10l5 -4q-14 -33 -14 -53q0 -23 21 -23q16 0 27 18.5t12 50.5l32 12l5 -3q1 -26 -5 -55q13 -10 32 -10q9 0 15.5 6.5t6.5 17.5q0 31 -12 56z
" />
    <glyph glyph-name="uni0652" unicode="&#x652;" 
d="M-54 802q-26 0 -43 17t-17 41q0 34 29 68q30 32 45 32q20 0 44 -24q23 -26 23 -54q0 -32 -24 -56t-57 -24zM-14 873q0 9 -14 23q-14 12 -23 12q-2 0 -6.5 -4t-9 -12.5t-4.5 -17.5q0 -19 26 -19q12 0 21.5 5t9.5 13z" />
    <glyph glyph-name="uni0653" unicode="&#x653;" 
d="M142 789h6l14 -48q-62 -42 -121 -42q-39 0 -80 36q-27 -16 -75 -58h-6l-19 46q53 48 92 73h6q41 -38 90 -38q17 0 45.5 9.5t47.5 21.5z" />
    <glyph glyph-name="uni0654" unicode="&#x654;" 
d="M96 764l5 -2l8 -51q-47 -12 -110 -12h-97v56l50 -2q-19 25 -19 51q0 36 18 71q36 13 76 13q31 0 59 -7l-5 -50q-28 4 -62 4q-15 0 -33 -3q-2 -8 -2 -22q0 -35 20 -58q58 0 92 12z" />
    <glyph glyph-name="uni0655" unicode="&#x655;" 
d="M96 -148l5 -2l8 -51q-47 -12 -110 -12h-97v56l50 -2q-19 25 -19 51q0 36 18 71q36 13 76 13q31 0 59 -7l-5 -50q-28 4 -62 4q-15 0 -33 -3q-2 -8 -2 -22q0 -35 20 -58q58 0 92 12z" />
    <glyph glyph-name="uni0656" unicode="&#x656;" 
d="M-29 -208v-134l-35 -6l-12 123l42 18z" />
    <glyph glyph-name="uni0660" unicode="&#x660;" horiz-adv-x="293" 
d="M70 245q0 34 23 58t57 24q30 0 51.5 -22t21.5 -52q0 -35 -23.5 -58.5t-58.5 -23.5q-30 0 -50.5 22t-20.5 52z" />
    <glyph glyph-name="uni0661" unicode="&#x661;" horiz-adv-x="260" 
d="M170 701v-701h-80v701h80z" />
    <glyph glyph-name="uni0662" unicode="&#x662;" horiz-adv-x="501" 
d="M450 696l-9 -89h-3q-76 10 -157 10q-55 0 -130 -14l95 -603h-86l-88 586l57 98q77 24 158 24q54 0 160 -12h3z" />
    <glyph glyph-name="uni0663" unicode="&#x663;" horiz-adv-x="643" 
d="M500 701l73 14l1 -2q19 -67 19 -130q0 -50 -37 -144l-2 -2q-32 -11 -72 -11q-47 0 -110 49q-14 -20 -21 -32l-1 -2h-2h-2q-1 0 -5 -2l-6 -3q-24 -9 -48 -9q-42 0 -97 34l67 -461h-83l-102 697l3 3h81l24 -170q38 -16 128 -16v186h79v-174q63 -13 105 -13q4 0 12.5 0.5
t12.5 0.5v7q0 6 1 18.5t1 18.5q0 57 -18 140z" />
    <glyph glyph-name="uni0664" unicode="&#x664;" horiz-adv-x="567" 
d="M333 714l40 -65l-2 -1q-98 -69 -119 -85q-72 -54 -110 -95l-2 -2q49 -25 130 -39.5t152 -17.5h3l10 -91l-1 -1q-176 -107 -275 -224q72 -17 177 -17q70 0 181 17h4l12 -82l-2 -1q-84 -25 -208 -25q-139 0 -213 34l-2 1l-25 96l1 1q73 108 249 217q-82 13 -128 23
q-75 17 -130 44l-2 1l-1 98l1 1q76 81 257 211z" />
    <glyph glyph-name="uni0665" unicode="&#x665;" horiz-adv-x="549" 
d="M250 548h5l1 -1q90 -68 159 -164.5t69 -189.5q0 -94 -60 -150t-156 -56q-86 0 -145 48t-59 131q0 127 131 280q2 2 5.5 6t4.5 6q6 6 9 12q12 21 35 76zM267 429q0 -1 -0.5 -1t-0.5 -1l-1 -1h-1q-50 -50 -86 -114t-36 -121q0 -55 37 -84.5t95 -29.5q52 0 91 27t39 76
q0 117 -131 246l-4 4q-1 -1 -2 -1z" />
    <glyph glyph-name="uni0666" unicode="&#x666;" horiz-adv-x="500" 
d="M428 0h-84l-61 626q-39 -19 -125 -19q-74 0 -140 13l-2 1l-12 91l5 -1q59 -13 167 -13q91 0 174 19h3l1 -2q1 -1 1 -3z" />
    <glyph glyph-name="uni0667" unicode="&#x667;" horiz-adv-x="590" 
d="M249 0l-207 701h92l160 -605l162 605h91l-207 -701h-91z" />
    <glyph glyph-name="uni0668" unicode="&#x668;" horiz-adv-x="582" 
d="M540 0h-85l-172 587l-153 -587h-86l195 691l94 21l1 -1l3 -3z" />
    <glyph glyph-name="uni0669" unicode="&#x669;" horiz-adv-x="534" 
d="M462 0h-84v3q-4 35 -10.5 106.5t-12.5 128.5t-14 107l-1 8q-68 -22 -104 -22q-123 0 -197 62l-1 1v1q14 138 74 226q59 89 125 89q29 0 53.5 -10.5t41 -31t29 -41.5t21 -51t13 -51t9.5 -49q25 -143 58 -473v-3zM328 428v7q0 48 -23 112q-27 76 -79 76q-21 0 -38 -12
t-29.5 -35t-18.5 -38.5t-14 -40.5q-13 -41 -14 -51h3h1l1 -1q50 -27 131 -27q35 0 80 10z" />
    <glyph glyph-name="uni066A" unicode="&#x66a;" horiz-adv-x="611" 
d="M567 93q0 -28 -19.5 -47.5t-47.5 -19.5t-47 19.5t-19 47.5t19 47.5t47 19.5t47.5 -19.5t19.5 -47.5zM185 608q0 -28 -19.5 -48t-48.5 -20q-28 0 -47.5 20t-19.5 48t19.5 47.5t47.5 19.5t48 -19.5t20 -47.5zM40 0l446 695h78l-446 -695h-78z" />
    <glyph glyph-name="uni066B" unicode="&#x66b;" horiz-adv-x="207" 
d="M67 102h86v-48q0 -64 -20.5 -107t-68.5 -92l-2 -2l-42 35l1 3q26 41 35 70.5t11 78.5v59v3z" />
    <glyph glyph-name="uni066C" unicode="&#x66c;" horiz-adv-x="207" 
d="M67 102h86v-48q0 -64 -20.5 -107t-68.5 -92l-2 -2l-42 35l1 3q26 41 35 70.5t11 78.5v59v3z" />
    <glyph glyph-name="uni066D" unicode="&#x66d;" horiz-adv-x="433" 
d="M242 575l145 55l24 -65l-156 -41l101 -123l-57 -39l-82 133l-86 -133l-56 40l102 122l-155 41l22 65l146 -55l-8 156h68z" />
    <glyph glyph-name="uni066E" unicode="&#x66e;" horiz-adv-x="847" 
d="M694 391h76v-391h-459q-257 0 -257 218q0 54 21 120l1 2l64 12l-1 -5q-15 -53 -15 -107q0 -38 11.5 -66t29.5 -44t46.5 -25t56.5 -12t66 -3h360v301z" />
    <glyph glyph-name="uni066F" unicode="&#x66f;" horiz-adv-x="759" 
d="M80 165l62 14l-1 -5q-16 -66 -16 -125q0 -61 20.5 -102t59.5 -61.5t83.5 -28t105.5 -7.5q131 0 216 30h3q5 9 12 55t7 62v5q-204 2 -311 106l-1 1v1q6 53 28 111t66.5 107t97.5 49q52 0 92 -35t60.5 -88t30.5 -104.5t10 -97.5q0 -113 -37 -221l-2 -2q-129 -68 -295 -68
q-143 0 -230 61.5t-87 197.5q0 60 25 144zM389 146q85 -57 241 -57q-31 197 -130 197q-27 0 -51.5 -26t-38 -55t-21.5 -59z" />
    <glyph glyph-name="uni0670" unicode="&#x670;" 
d="M-29 951v-134l-35 -6l-12 123l42 18z" />
    <glyph glyph-name="uni0671" unicode="&#x671;" horiz-adv-x="248" 
d="M2 744l-16 35l2 1q39 35 77 61l2 2l2 -2q9 -8 27 -22q18 -12 26 -17q11 25 33.5 52t43.5 27t35 -15.5t14 -36.5q0 -32 -25.5 -54.5t-57.5 -22.5q-46 0 -90 46q-18 -6 -70 -51zM159 823q-2 -2 -6 -8t-6 -8t-4 -6t-4 -6q33 -3 34 -3q45 0 45 26q0 9 -8.5 15t-19.5 6
q-15 0 -31 -16zM163 0h-78v676h78v-676z" />
    <glyph glyph-name="uni06A1" unicode="&#x6a1;" horiz-adv-x="940" 
d="M857 0h-544q-258 0 -258 220q0 47 19 123l1 2l65 9l-1 -5q-16 -51 -16 -107q0 -47 16 -78.5t47.5 -47t65.5 -21t81 -5.5h474l2 59q-202 0 -308 91l-1 1v1q7 55 27 114t65 111t102 52q48 0 85.5 -35t57.5 -88t30 -104t10 -93q0 -102 -19 -197zM569 282l-1 -4
q52 -34 105 -44t133 -10q-6 39 -12.5 65.5t-20.5 62.5t-39 55.5t-58 19.5q-64 0 -107 -145z" />
    <glyph glyph-name="uni06A4" unicode="&#x6a4;" horiz-adv-x="940" 
d="M857 0h-544q-258 0 -258 220q0 47 19 123l1 2l65 9l-1 -5q-16 -51 -16 -107q0 -47 16 -78.5t47.5 -47t65.5 -21t81 -5.5h474l2 59q-202 0 -308 91l-1 1v1q7 55 27 114t65 111t102 52q48 0 85.5 -35t57.5 -88t30 -104t10 -93q0 -102 -19 -197zM569 282l-1 -4
q52 -34 105 -44t133 -10q-6 39 -12.5 65.5t-20.5 62.5t-39 55.5t-58 19.5q-64 0 -107 -145zM753 616q-19 0 -32.5 14t-13.5 31q0 19 13.5 33.5t32.5 14.5t32.5 -14.5t13.5 -33.5q0 -17 -13.5 -31t-32.5 -14zM602 616q-18 0 -32 14t-14 31q0 19 13.5 33.5t32.5 14.5t33 -14
t14 -34q0 -19 -13.5 -32t-33.5 -13zM678 715q-19 0 -32.5 14t-13.5 32t13.5 32t32.5 14t32.5 -14t13.5 -32t-13.5 -32t-32.5 -14z" />
    <glyph glyph-name="uni06BA" unicode="&#x6ba;" horiz-adv-x="612" 
d="M80 247l63 10l-1 -5q-17 -66 -17 -132q0 -101 51.5 -148.5t155.5 -47.5q84 0 133 21v400h75v-448l-2 -1q-119 -58 -227 -58q-126 0 -191.5 67t-65.5 190q0 75 25 150z" />
    <glyph glyph-name="endash" unicode="&#x2013;" horiz-adv-x="527" 
d="M45 241v73h437v-73h-437z" />
    <glyph glyph-name="emdash" unicode="&#x2014;" horiz-adv-x="890" 
d="M45 241v73h800v-73h-800z" />
    <glyph glyph-name="quoteleft" unicode="&#x2018;" horiz-adv-x="259" 
d="M124 483l-85 38l119 205l55 -27z" />
    <glyph glyph-name="quoteright" unicode="&#x2019;" horiz-adv-x="259" 
d="M101 483l-54 27l88 216l85 -37z" />
    <glyph glyph-name="quotesinglbase" unicode="&#x201a;" horiz-adv-x="259" 
d="M101 -113l-55 27l89 215l85 -37z" />
    <glyph glyph-name="quotedblleft" unicode="&#x201c;" horiz-adv-x="440" 
d="M124 483l-85 38l119 205l55 -27zM305 483l-85 38l119 205l54 -27z" />
    <glyph glyph-name="quotedblright" unicode="&#x201d;" horiz-adv-x="440" 
d="M101 483l-54 27l88 216l85 -37zM282 483l-55 27l89 216l85 -37z" />
    <glyph glyph-name="quotedblbase" unicode="&#x201e;" horiz-adv-x="440" 
d="M101 -113l-55 27l89 215l85 -37zM282 -113l-55 27l88 215l86 -37z" />
    <glyph glyph-name="dagger" unicode="&#x2020;" horiz-adv-x="376" 
d="M350 594v-81h-117v-300h-82v300h-117v81h117v135h82v-135h117z" />
    <glyph glyph-name="daggerdbl" unicode="&#x2021;" horiz-adv-x="376" 
d="M347 516h-118v-90h118v-80h-118v-133h-82v133h-118v80h118v90h-118v80h118v133h82v-133h118v-80z" />
    <glyph glyph-name="bullet" unicode="&#x2022;" horiz-adv-x="335" 
d="M168 187q-51 0 -85 34.5t-34 84.5q0 49 34 83.5t85 34.5q50 0 84 -34.5t34 -83.5q0 -50 -33.5 -84.5t-84.5 -34.5z" />
    <glyph glyph-name="ellipsis" unicode="&#x2026;" horiz-adv-x="813" 
d="M142 -5q-28 0 -47.5 19t-19.5 47q0 29 19.5 48t47.5 19q27 0 47 -19t20 -48q0 -27 -20 -46.5t-47 -19.5zM406 -5q-27 0 -47 19.5t-20 46.5q0 29 19.5 48t47.5 19t47.5 -19t19.5 -48q0 -28 -19.5 -47t-47.5 -19zM671 -5q-28 0 -47.5 19t-19.5 47q0 29 19.5 48t47.5 19
t47.5 -19t19.5 -48q0 -28 -19.5 -47t-47.5 -19z" />
    <glyph glyph-name="perthousand" unicode="&#x2030;" horiz-adv-x="975" 
d="M54 577q0 65 41.5 108t101.5 43t101 -42t41 -107q0 -64 -40 -107t-102 -43q-63 0 -103 42t-40 106zM128 579q0 -41 18.5 -63t49.5 -22q68 0 68 85t-68 85q-31 0 -49.5 -22t-18.5 -63zM571 715h104l-459 -715h-104zM447 133q0 65 41 107.5t102 42.5q63 0 105 -48
q42 48 105 48q61 0 101.5 -41.5t40.5 -106.5t-40 -108t-102 -43q-65 0 -106 47q-41 -47 -105 -47q-62 0 -102 42.5t-40 106.5zM520 135q0 -41 18.5 -63.5t49.5 -22.5q33 0 51 22.5t18 63.5q0 40 -17.5 62.5t-50.5 22.5q-31 0 -50 -22.5t-19 -62.5zM799 49q69 0 69 86
q0 85 -68 85q-31 0 -50 -22.5t-19 -62.5q0 -41 18.5 -63.5t49.5 -22.5z" />
    <glyph glyph-name="guilsinglleft" unicode="&#x2039;" horiz-adv-x="332" 
d="M131 272l148 -208h-102l-147 209l151 216h101z" />
    <glyph glyph-name="guilsinglright" unicode="&#x203a;" horiz-adv-x="337" 
d="M32 64l148 208l-150 217h101l151 -216l-149 -209h-101z" />
    <glyph glyph-name="fraction" unicode="&#x2044;" horiz-adv-x="117" 
d="M-231 0l511 715h68l-511 -715h-68z" />
    <glyph glyph-name="Euro" unicode="&#x20ac;" horiz-adv-x="678" 
d="M-3 481h91q35 102 121 166t194 64q75 0 136 -34l-36 -82q-50 21 -104 21q-48 0 -87.5 -15.5t-63 -39.5t-36.5 -43t-20 -37h261l-32 -76h-247q-4 -16 -4.5 -49t3.5 -51h213l-33 -76h-159q62 -125 200 -125q73 0 121 29l45 -79q-74 -49 -165 -49q-104 0 -188 62t-119 162
h-91v76h76v100h-76v76z" />
    <glyph glyph-name="trademark" unicode="&#x2122;" horiz-adv-x="719" 
d="M337 400v341h71l96 -245l95 245h71v-341h-55v249l-98 -249h-28l-97 249v-249h-55zM36 690v51h251v-51h-98v-290h-55v290h-98z" />
    <glyph glyph-name="minus" unicode="&#x2212;" horiz-adv-x="458" 
d="M102 304v100h320v-100h-320z" />
    <glyph glyph-name="approxequal" unicode="&#x2248;" horiz-adv-x="567" 
d="M456 258h43v-3q-3 -46 -28.5 -74t-71.5 -28q-47 0 -121 26q-53 16 -57 17q-29 8 -53 8q-51 0 -56 -39v-3h-44v3q7 102 98 102q37 0 91 -13q15 -4 44.5 -13t43.5 -13q27 -10 52 -10q54 0 59 37v3zM456 457h43v-3q-7 -102 -100 -102q-47 0 -118 25q-38 12 -57 16
q-29 8 -56 8q-51 0 -56 -37v-3h-44v3q3 46 27.5 74t70.5 28q60 0 127 -24l51 -18q32 -9 53 -9q54 0 59 39v3z" />
    <glyph glyph-name="notequal" unicode="&#x2260;" horiz-adv-x="589" 
d="M497 382h-157l-44 -142h201v-75h-223l-48 -153h-72l50 153h-136v75h159l44 142h-203v75h226l45 145h70l-45 -145h133v-75z" />
    <glyph glyph-name="lessequal" unicode="&#x2264;" horiz-adv-x="513" 
d="M56 166h401v-73h-401v73zM456 281v-71l-396 134v75l396 134v-69l-301 -102z" />
    <glyph glyph-name="greaterequal" unicode="&#x2265;" horiz-adv-x="589" 
d="M56 166h401v-73h-401v73zM453 419v-75l-396 -134v71l299 101l-299 102v69z" />
    <glyph glyph-name="uniFBB2" unicode="&#xfbb2;" 
d="M-19 -203q-19 0 -32.5 14.5t-13.5 33.5q0 18 13.5 31.5t32.5 13.5t32.5 -13.5t13.5 -31.5q0 -19 -13.5 -33.5t-32.5 -14.5z" />
    <glyph glyph-name="uniFBB3" unicode="&#xfbb3;" 
d="M22 -203q-19 0 -32.5 14.5t-13.5 33.5q0 18 13.5 31.5t32.5 13.5t32.5 -13.5t13.5 -31.5q0 -19 -13.5 -33.5t-32.5 -14.5z" />
    <glyph glyph-name="uniFBB4" unicode="&#xfbb4;" 
d="M113 556q-19 0 -33 15t-14 33t14 32t33 14q18 0 31.5 -14t13.5 -32t-13.5 -33t-31.5 -15zM-39 556q-19 0 -32.5 14.5t-13.5 33.5q0 18 13.5 32t32.5 14t32.5 -14t13.5 -32q0 -19 -13.5 -33.5t-32.5 -14.5z" />
    <glyph glyph-name="uniFBB5" unicode="&#xfbb5;" 
d="M95 -90q-20 0 -33 14.5t-13 33.5t13.5 32.5t32.5 13.5q18 0 32 -14t14 -32q0 -19 -13.5 -33.5t-32.5 -14.5zM-56 -90q-20 0 -33 14.5t-13 33.5t13.5 32.5t32.5 13.5t32.5 -14t13.5 -32q0 -19 -13 -33.5t-33 -14.5z" />
    <glyph glyph-name="uniFBB6" unicode="&#xfbb6;" 
d="M122 444q-19 0 -32.5 14t-13.5 32t13.5 31.5t32.5 13.5q18 0 31.5 -13.5t13.5 -31.5t-13.5 -32t-31.5 -14zM-30 444q-19 0 -32.5 14t-13.5 32t13.5 31.5t32.5 13.5t32.5 -13.5t13.5 -31.5t-13.5 -32t-32.5 -14zM46 541q-19 0 -33 14.5t-14 33.5t14 32.5t33 13.5t33 -13.5
t14 -32.5q0 -18 -14 -33t-33 -15z" />
    <glyph glyph-name="uniFBB7" unicode="&#xfbb7;" 
 />
    <glyph glyph-name="uniFBB8" unicode="&#xfbb8;" 
 />
    <glyph glyph-name="uniFBB9" unicode="&#xfbb9;" 
 />
    <glyph glyph-name="uniFBBD" unicode="&#xfbbd;" 
 />
    <glyph glyph-name="uniFBBE" unicode="&#xfbbe;" 
 />
    <glyph glyph-name="uni0000.1" 
 />
    <glyph glyph-name="uni000D.1" horiz-adv-x="250" 
 />
    <glyph glyph-name="uni0000.1.1" 
 />
    <glyph glyph-name="uni000D.1.1" horiz-adv-x="250" 
 />
    <glyph glyph-name="uni0000.1.1.1" 
 />
    <glyph glyph-name="uni000D.1.1.1" horiz-adv-x="250" 
 />
    <glyph glyph-name="uni0000.1.1.1.1" 
 />
    <glyph glyph-name="uni000D.1.1.1.1" horiz-adv-x="250" 
 />
    <glyph glyph-name="uni0000.1.1.1.1.1" 
 />
    <glyph glyph-name="uni000D.1.1.1.1.1" horiz-adv-x="250" 
 />
    <glyph glyph-name="uni0000.1.1.1.1.1.1" 
 />
    <glyph glyph-name="uni000D.1.1.1.1.1.1" horiz-adv-x="250" 
 />
    <glyph glyph-name="uni0000.1.1.1.1.1.1.1" 
 />
    <glyph glyph-name="uni000D.1.1.1.1.1.1.1" horiz-adv-x="250" 
 />
    <glyph glyph-name="uni0000.1.1.1.1.1.1.1.1" 
 />
    <glyph glyph-name="uni000D.1.1.1.1.1.1.1.1" horiz-adv-x="250" 
 />
    <glyph glyph-name="uni0000.1.1.1.1.1.1.1.1.1" 
 />
    <glyph glyph-name="uni000D.1.1.1.1.1.1.1.1.1" horiz-adv-x="250" 
 />
    <glyph glyph-name="uni0000.1.1.1.1.1.1.1.1.1.1" 
 />
    <glyph glyph-name="uni000D.1.1.1.1.1.1.1.1.1.1" horiz-adv-x="250" 
 />
    <glyph glyph-name="uni0000.1.1.1.1.1.1.1.1.1.1.1" 
 />
    <glyph glyph-name="uni000D.1.1.1.1.1.1.1.1.1.1.1" horiz-adv-x="250" 
 />
    <glyph glyph-name="uni0000.1.1.1.1.1.1.1.1.1.1.1.1" 
 />
    <glyph glyph-name="uni000D.1.1.1.1.1.1.1.1.1.1.1.1" horiz-adv-x="250" 
 />
    <glyph glyph-name="uni0000.1.1.1.1.1.1.1.1.1.1.1.1.1" 
 />
    <glyph glyph-name="uni000D.1.1.1.1.1.1.1.1.1.1.1.1.1" horiz-adv-x="250" 
 />
    <glyph glyph-name="uni0627.short" horiz-adv-x="248" 
d="M162 676v-676h-76v676h76z" />
    <glyph glyph-name="uniFE8E.short" horiz-adv-x="278" 
d="M290 90l7 -8v-75l-7 -7h-204v676h76v-586h128z" />
    <glyph glyph-name="dotlessbeh_alefMaksouraar.fina" horiz-adv-x="892" 
d="M754 192q21 -54 50.5 -78t84.5 -24h15l6 -7v-77l-6 -6h-40q-42 0 -74.5 16.5t-51.5 39t-34 60.5t-21.5 65t-14.5 68l-1 8q-159 -34 -159 -114q0 -87 157 -174q5 -3 27 -15.5t34 -20.5l1 -1l-20 -85l-2 -1q-158 -75 -334 -75q-66 0 -120.5 12t-100.5 39t-72 76.5
t-26 117.5q0 73 28 146l1 2l67 11l-2 -5q-22 -58 -22 -130q0 -45 16 -78t41 -52t61.5 -30.5t71.5 -15.5t78 -4q61 0 137 10.5t118 30.5q-69 28 -140 98.5t-71 134.5q0 152 250 213q18 5 36 5h3v-3q8 -103 29 -157z" />
    <glyph glyph-name="uni06330626" horiz-adv-x="1349" 
d="M449 -423q-19 0 -33.5 13.5t-14.5 32.5q0 18 14.5 31.5t33.5 13.5t32.5 -13.5t13.5 -31.5t-13.5 -32t-32.5 -14zM297 -423q-18 0 -31.5 14t-13.5 32t13 31.5t32 13.5t32.5 -13.5t13.5 -31.5t-13.5 -32t-32.5 -14zM1004 57l-6 4l-43 -60q-27 -8 -62 -8q-44 0 -79.5 17
t-58 42t-40 62.5t-26.5 70t-17 73.5q-163 -34 -163 -115q0 -33 21 -65t61.5 -61.5t66.5 -45t69 -38.5l2 -2l-21 -84l-2 -1q-157 -76 -333 -76q-66 0 -120.5 12.5t-100.5 39.5t-72 76.5t-26 117.5q0 73 28 146l1 2l62 10l-1 -5q-19 -61 -19 -129q0 -44 16 -77t40.5 -52.5
t61.5 -31t72 -15.5t78 -4q59 0 139 11t117 31h-3l-1 1q-75 38 -141.5 105.5t-66.5 133.5q0 49 27 89t71 64.5t90 39t93 20.5h3v-4q19 -157 61 -212q26 -33 59 -44.5t82 -11.5q5 0 15 2l29 249l77 9l3 -3l-29 -223q12 -12 77.5 -19.5t103.5 -7.5h11l-1 8q-29 193 -45 282v3
l74 18l1 -3q33 -172 48 -302v-1l-60 -95h-2q-128 0 -221 57zM228 319l4 -41l-2 -1q-47 -10 -101 -10h-90v42l57 -3q-26 37 -26 60q0 32 16 64l2 2q36 13 69 13q26 0 52 -6l2 -1l-3 -37h-3q-29 3 -56 3t-39 -4q-2 -6 -2 -13q-1 -6 -1 -15q0 -42 24 -66h3q59 0 90 12z" />
    <glyph glyph-name="uni06340626" horiz-adv-x="1349" 
d="M1064 498q-19 0 -32.5 13.5t-13.5 31.5q0 19 13 33.5t33 14.5t32.5 -14.5t12.5 -33.5q0 -18 -13 -31.5t-32 -13.5zM914 498q-20 0 -34 13t-14 32q0 20 14 34t34 14t33 -14.5t13 -33.5q0 -18 -13.5 -31.5t-32.5 -13.5zM989 608q-19 0 -32.5 14t-13.5 32q0 19 13.5 33.5
t32.5 14.5t32.5 -14.5t13.5 -33.5q0 -18 -13.5 -32t-32.5 -14zM448 -411q-19 0 -33.5 13.5t-14.5 32.5q0 18 14.5 31.5t33.5 13.5t32.5 -13.5t13.5 -31.5t-13.5 -32t-32.5 -14zM296 -411q-18 0 -31.5 14t-13.5 32t13 31.5t32 13.5t32.5 -13.5t13.5 -31.5t-13.5 -32
t-32.5 -14zM1004 57l-6 4l-43 -60q-27 -8 -62 -8q-44 0 -79.5 17t-58 42t-40 62.5t-26.5 70t-17 73.5q-163 -34 -163 -115q0 -33 21 -65t61.5 -61.5t66.5 -45t69 -38.5l2 -2l-21 -84l-2 -1q-157 -76 -333 -76q-66 0 -120.5 12.5t-100.5 39.5t-72 76.5t-26 117.5q0 73 28 146
l1 2l62 10l-1 -5q-19 -61 -19 -129q0 -44 16 -77t40.5 -52.5t61.5 -31t72 -15.5t78 -4q59 0 139 11t117 31h-3l-1 1q-75 38 -141.5 105.5t-66.5 133.5q0 49 27 89t71 64.5t90 39t93 20.5h3v-4q19 -157 61 -212q26 -33 59 -44.5t82 -11.5q5 0 15 2l29 249l77 9l3 -3l-29 -223
q12 -12 77.5 -19.5t103.5 -7.5h11l-1 8q-29 193 -45 282v3l74 18l1 -3q33 -172 48 -302v-1l-60 -95h-2q-128 0 -221 57zM228 318l4 -41l-2 -1q-47 -10 -100 -10h-91v41l59 -1q-28 32 -28 59q0 36 16 64l2 2q32 13 69 13q24 0 52 -5l2 -1l-4 -38h-3q-27 3 -55 3q-27 0 -39 -4
q0 -2 -1 -4q0 -1 -0.5 -4t-0.5 -5q-1 -6 -1 -15q0 -42 24 -66h3q58 0 90 12z" />
    <glyph glyph-name="uni06350626" horiz-adv-x="1300" 
d="M445 -411q-19 0 -33.5 13.5t-14.5 32.5q0 18 14.5 31.5t33.5 13.5t32.5 -13.5t13.5 -31.5t-13.5 -32t-32.5 -14zM293 -411q-18 0 -31.5 14t-13.5 32t13 31.5t32 13.5t32.5 -13.5t13.5 -31.5t-13.5 -32t-32.5 -14zM229 319l4 -41l-2 -1q-41 -10 -100 -10h-91v40l59 -1
q-1 2 -3.5 5.5t-4.5 4.5q-1 2 -5 7t-5 8q-9 18 -9 35q0 34 16 64l2 2q27 13 68 13q26 0 52 -6l2 -1l-3 -37h-3q-19 2 -56 2q-27 0 -39 -4q-2 -4 -2 -12q0 -58 23 -81h3q40 0 66 5q5 1 13.5 3.5t10.5 3.5zM84 164l62 10l-1 -5q-19 -61 -19 -129q0 -44 16 -77t40.5 -52.5
t61.5 -31t72 -15.5t78 -4q58 0 139 11t117 30q-1 0 -2 1h-2q-75 38 -141.5 105.5t-66.5 133.5q0 40 19.5 73.5t49 56t69 40t75.5 27t73 14.5h3v-3q3 -33 11 -110q74 63 163 116.5t151 53.5q56 0 101 -47q93 -92 93 -266v-1l-66 -95h-275q-51 0 -89 13t-61.5 33t-40.5 54.5
t-25.5 67t-16.5 81.5l-1 8q-161 -34 -161 -114q0 -88 153 -173q12 -7 66 -37l1 -2l-21 -84l-2 -1q-157 -76 -334 -76q-66 0 -120.5 12.5t-100.5 39.5t-71.5 76.5t-25.5 117.5q0 77 28 146zM922 90h252v6q0 16 -3 31q-36 193 -139 193q-62 0 -144 -48q-20 -12 -130 -88l-5 -3
l1 -2l1 -1v-1v-2q19 -52 59.5 -68.5t107.5 -16.5z" />
    <glyph glyph-name="uni06360626" horiz-adv-x="1344" 
d="M447 -411q-19 0 -33.5 13.5t-14.5 32.5q0 18 14.5 31.5t33.5 13.5t32.5 -13.5t13.5 -31.5t-13.5 -32t-32.5 -14zM295 -411q-18 0 -31.5 14t-13.5 32t13 31.5t32 13.5t32.5 -13.5t13.5 -31.5t-13.5 -32t-32.5 -14zM941 547q-19 0 -33.5 15t-14.5 33q0 19 14.5 32.5
t33.5 13.5t32.5 -14t13.5 -32q0 -19 -13.5 -33.5t-32.5 -14.5zM228 318l4 -41l-2 -1q-57 -10 -101 -10h-90v41l58 -1q-2 2 -4.5 5.5t-3.5 4.5q-1 2 -4.5 7t-5.5 8q-9 18 -9 35q0 33 16 63l2 2q38 14 69 14q26 0 52 -6l2 -1l-4 -38h-3q-27 3 -55 3q-27 0 -39 -4q-2 -6 -2 -13
q-1 -6 -1 -15q0 -20 8 -40q8 -26 20 -26q55 0 89 12zM84 164l62 10l-1 -5q-19 -61 -19 -129q0 -44 16 -77t40.5 -52.5t61.5 -31t72 -15.5t78 -4q58 0 139 11t117 30q-1 0 -2 1h-2q-75 38 -141.5 105.5t-66.5 133.5q0 40 19.5 73.5t49 56t69 40t75.5 27t73 14.5h3v-3
q3 -33 11 -110q74 63 163 116.5t151 53.5q56 0 101 -47q93 -92 93 -266v-1l-66 -95h-275q-51 0 -89 13t-61.5 33t-40.5 54.5t-25.5 67t-16.5 81.5l-1 8q-161 -34 -161 -114q0 -88 153 -173q12 -7 66 -37l1 -2l-21 -84l-2 -1q-157 -76 -334 -76q-66 0 -120.5 12.5
t-100.5 39.5t-71.5 76.5t-25.5 117.5q0 77 28 146zM922 90h252v6q0 16 -3 31q-36 193 -139 193q-62 0 -144 -48q-20 -12 -130 -88l-5 -3l1 -2l1 -1v-1v-2q19 -52 59.5 -68.5t107.5 -16.5z" />
    <glyph glyph-name="uni06410626" horiz-adv-x="1092" 
d="M448 -442q-19 0 -33.5 15t-14.5 33q0 19 14.5 32.5t33.5 13.5t32.5 -14t13.5 -32q0 -19 -13.5 -33.5t-32.5 -14.5zM296 -442q-19 0 -32 14.5t-13 33.5q0 18 13.5 32t31.5 14q19 0 32.5 -14t13.5 -32q0 -19 -13.5 -33.5t-32.5 -14.5zM770 648q-20 0 -33 14.5t-13 33.5
q0 18 13.5 31.5t32.5 13.5t32.5 -13.5t13.5 -31.5q0 -19 -13 -33.5t-33 -14.5zM226 316l6 -39l-2 -1q-47 -10 -100 -10h-91v41l59 -1q-1 2 -3.5 5.5t-4.5 4.5q-2 2 -5 7t-5 8q-9 18 -9 35q0 34 15 63l2 2q38 14 69 14q26 0 52 -6l2 -1l-4 -38h-3q-54 3 -55 3q-27 0 -39 -4
q-2 -4 -2 -13q0 -57 24 -81h3q54 0 88 10zM436 67l28 72l3 -1q99 -48 216 -48h251l2 59q-194 0 -300 91l-1 1v1q4 38 17 81.5t34.5 88.5t57 74.5t77.5 29.5q39 0 72 -23t53 -57.5t34 -77.5t20 -81.5t6 -71.5q0 -107 -20 -203l-1 -2h-246q-25 0 -52 8q-5 1 -21 6.5t-25 7.5
l-10 -17q1 0 1 -0.5t1 -0.5l3 -3q66 -57 99 -99l1 -1l-23 -83l-2 -1q-147 -72 -339 -72q-316 0 -316 245q0 77 27 146l1 2l63 10l-1 -5q-19 -61 -19 -129q0 -55 22 -92.5t62 -55.5t82.5 -25t98.5 -7q163 0 272 41l2 1l1 1q1 1 2 1h1l2 1q-95 116 -233 186zM811 424
q-23 0 -41.5 -13.5t-32 -39.5t-20 -44t-14.5 -45l-1 -4q52 -35 102.5 -44.5t130.5 -9.5q-32 200 -124 200z" />
    <glyph glyph-name="dotlessfeh_alefMaksouraar" horiz-adv-x="1070" 
d="M434 67l28 72l3 -1q99 -48 217 -48h251l2 59q-194 0 -301 91l-1 1v1q5 38 17.5 81.5t34.5 88.5t57.5 74.5t77.5 29.5q53 0 96 -45q45 -46 66.5 -119.5t21.5 -146.5q0 -107 -20 -203l-1 -2h-246q-25 0 -51 8q-7 2 -22.5 7t-24.5 7l-10 -17q1 0 1 -0.5t1 -0.5l3 -3
q62 -51 99 -99l1 -1l-23 -83l-2 -1q-147 -72 -339 -72q-316 0 -316 245q0 77 27 146l1 2l63 10l-1 -5q-19 -61 -19 -129q0 -55 22 -92.5t62.5 -55.5t83 -25t97.5 -7q165 0 270 41l2 1l1 1q1 1 2 1h1l2 1q-52 63 -105 106t-126 80zM701 282l-1 -4q49 -34 103 -44t131 -10
q-5 32 -13 61t-22 63.5t-37.5 55t-52.5 20.5q-23 0 -41.5 -13.5t-32 -39.5t-20 -44t-14.5 -45z" />
    <glyph glyph-name="uni06420626" horiz-adv-x="1089" 
d="M447 -442q-19 0 -33.5 15t-14.5 33q0 19 14.5 32.5t33.5 13.5t32.5 -14t13.5 -32q0 -19 -13.5 -33.5t-32.5 -14.5zM295 -442q-19 0 -32 14.5t-13 33.5q0 18 13.5 32t31.5 14q19 0 32.5 -14t13.5 -32q0 -19 -13.5 -33.5t-32.5 -14.5zM836 629q-19 0 -32.5 14t-13.5 32
q0 19 13 33.5t33 14.5t33 -14.5t13 -33.5q0 -18 -13.5 -32t-32.5 -14zM686 629q-19 0 -33 13.5t-14 32.5q0 20 14 34t33 14q20 0 33 -14.5t13 -33.5q0 -18 -13.5 -32t-32.5 -14zM226 316l6 -39l-2 -1q-41 -10 -100 -10h-91v41l57 -1q-25 31 -25 59q0 35 15 64l2 2
q32 13 69 13q26 0 52 -6l2 -1l-3 -37h-3q-29 3 -56 3t-39 -4q-2 -4 -2 -13q0 -58 23 -81h3q58 0 89 10zM80 138l64 10l-1 -5q-19 -61 -19 -129q0 -55 22 -92.5t62 -55.5t82.5 -25t98.5 -7q156 0 270 41q6 2 10 4l-1 1q-86 109 -232 185l-3 2l29 73l3 -1q93 -49 215 -49h252
l2 59q-195 0 -301 91l-1 1v1q5 38 17.5 81t34.5 88.5t57 75t77 29.5q39 0 72 -23t53 -57.5t34 -77.5t20 -81.5t6 -71.5q0 -107 -20 -203l-1 -2h-247q-25 0 -51 8q-7 2 -22 7t-24 7l-10 -17l1 -1h1l3 -3q66 -57 99 -99l1 -1l-23 -83l-2 -1q-147 -72 -339 -72q-316 0 -316 245
q0 80 26 146zM808 424q-23 0 -41.5 -13.5t-32 -39.5t-20 -44t-14.5 -45l-1 -4q52 -35 102.5 -44.5t130.5 -9.5q-32 200 -124 200z" />
    <glyph glyph-name="uni06430626" horiz-adv-x="1226" 
d="M433 -442q-20 0 -34 14t-14 34q0 19 14 32.5t34 13.5q19 0 32.5 -14t13.5 -32q0 -19 -13.5 -33.5t-32.5 -14.5zM281 -442q-19 0 -32 14.5t-13 33.5q0 18 13.5 32t31.5 14q19 0 32.5 -14t13.5 -32q0 -19 -13.5 -33.5t-32.5 -14.5zM228 318l4 -41l-2 -1q-47 -10 -101 -10
h-90v41l56 -1q-10 14 -15 25q-10 17 -10 34q0 32 16 64l2 2q36 13 69 13q26 0 52 -6l2 -1l-3 -37h-3q-29 3 -56 3t-39 -4q-2 -6 -2 -13q-1 -6 -1 -15q0 -42 24 -66h3q59 0 90 12zM599 364l353 374l39 -73l-311 -310q83 14 92 15q53 8 102 8q283 0 295 -284v-1l-53 -93h-380
q-25 0 -51 8q-7 2 -22 7t-24 7l-10 -17q1 0 1 -0.5t1 -0.5l3 -3q66 -57 99 -99l1 -1l-23 -83l-2 -1q-147 -72 -339 -72q-316 0 -316 245q0 77 27 146l1 2l63 10l-1 -5q-19 -61 -19 -129q0 -55 22 -92.5t62 -55.5t82.5 -25t98.5 -7q151 0 270 41q6 2 10 4q-97 117 -233 186
l-3 2l28 72l3 -1q99 -48 216 -48h416v6q0 37 -16 79q-27 74 -89.5 100t-157.5 26q-98 0 -201 -14h-2z" />
    <glyph glyph-name="uni06440626" horiz-adv-x="967" 
d="M434 -444q-20 0 -34 14t-14 34q0 19 14 32.5t34 13.5q19 0 32.5 -14t13.5 -32q0 -19 -13.5 -33.5t-32.5 -14.5zM282 -444q-19 0 -32 14.5t-13 33.5q0 18 13.5 32t31.5 14q19 0 32.5 -14t13.5 -32q0 -19 -13.5 -33.5t-32.5 -14.5zM228 306l4 -40l-2 -1q-47 -10 -101 -10
h-90v42l57 -2q-26 32 -26 59q0 32 16 64l2 2q35 11 69 11q24 0 52 -5l2 -1l-3 -36h-3q-29 3 -56 3t-39 -4q-1 -3 -3 -13q0 -56 24 -81h3q55 0 90 11zM434 67l28 72l3 -1q99 -48 216 -48h120v654h80v-744h-144q-25 0 -52 8q-5 1 -21 6.5t-25 7.5l-10 -17q1 0 1 -0.5t1 -0.5
l3 -3q66 -57 99 -99l1 -1l-23 -83l-2 -1q-147 -72 -339 -72q-316 0 -316 245q0 77 27 146l1 2l63 10l-1 -5q-19 -61 -19 -129q0 -55 22 -92.5t62 -55.5t82.5 -25t98.5 -7q155 0 270 41q6 2 10 4q-96 117 -233 186z" />
    <glyph glyph-name="uni062A0626.fina" horiz-adv-x="893" 
d="M696 486q-18 0 -32.5 13.5t-14.5 31.5t14.5 33t32.5 15q19 0 32.5 -14.5t13.5 -33.5q0 -17 -14 -31t-32 -14zM545 486q-19 0 -32.5 14t-13.5 31q0 19 13.5 33.5t32.5 14.5t32.5 -14.5t13.5 -33.5q0 -17 -13.5 -31t-32.5 -14zM454 -412q-19 0 -33.5 13.5t-14.5 32.5
q0 18 14.5 31.5t33.5 13.5t32.5 -13.5t13.5 -31.5t-13.5 -32t-32.5 -14zM302 -412q-19 0 -32.5 14t-13.5 32t13.5 31.5t32.5 13.5t32.5 -13.5t13.5 -31.5t-13.5 -32t-32.5 -14zM754 192q21 -54 50.5 -78t84.5 -24h16l7 -7v-77l-7 -6h-41q-42 0 -74.5 16.5t-51.5 39
t-33.5 59.5t-21 65t-13.5 69l-1 8q-161 -34 -161 -114q0 -29 13.5 -55t40.5 -48.5t47 -36t51 -31.5q8 -5 31.5 -18.5t34.5 -20.5l1 -1l-20 -85l-2 -1q-158 -75 -334 -75q-66 0 -120.5 12t-100.5 39t-72 76.5t-26 117.5q0 73 28 146l1 2l67 11l-2 -5q-22 -58 -22 -130
q0 -55 22.5 -92.5t63.5 -55.5t84 -25t98 -7q61 0 137 10.5t118 30.5q-69 28 -140 98.5t-71 134.5q0 41 19.5 76t52 59.5t68 41t74.5 27.5q24 6 35 9q20 5 37 5h3v-3q8 -103 29 -157zM228 319l4 -41l-2 -1q-47 -10 -101 -10h-90v42l57 -3q-26 37 -26 60q0 32 16 64l2 2
q36 13 69 13q26 0 52 -6l2 -1l-3 -37h-3q-29 3 -56 3t-39 -4q-2 -6 -2 -13q-1 -6 -1 -15q0 -42 24 -66h3q59 0 90 12z" />
    <glyph glyph-name="uni062B0626.fina" horiz-adv-x="894" 
d="M670 473q-20 0 -34 13.5t-14 32.5t14 33t34 14q18 0 31.5 -14.5t13.5 -32.5t-13.5 -32t-31.5 -14zM518 473q-19 0 -32.5 14t-13.5 32t13.5 32.5t32.5 14.5t32.5 -14.5t13.5 -32.5t-13.5 -32t-32.5 -14zM593 583q-19 0 -32.5 14t-13.5 32t13.5 32t32.5 14t32.5 -14
t13.5 -32t-13.5 -32t-32.5 -14zM449 -411q-19 0 -33.5 13.5t-14.5 32.5q0 18 14.5 31.5t33.5 13.5t32.5 -13.5t13.5 -31.5t-13.5 -32t-32.5 -14zM297 -411q-18 0 -31.5 14t-13.5 32t13 31.5t32 13.5t32.5 -13.5t13.5 -31.5t-13.5 -32t-32.5 -14zM754 192q21 -54 50.5 -78
t84.5 -24h23l7 -7v-77l-7 -6h-48q-42 0 -74.5 16.5t-51.5 39t-33.5 59.5t-21 65t-13.5 69l-1 8q-161 -34 -161 -114q0 -29 13.5 -55t40.5 -48.5t47 -36t51 -31.5q8 -5 31.5 -18.5t34.5 -20.5l1 -1l-20 -85l-2 -1q-158 -75 -334 -75q-66 0 -120.5 12t-100.5 39t-72 76.5
t-26 117.5q0 73 28 146l1 2l67 11l-2 -5q-22 -58 -22 -130q0 -55 22.5 -92.5t63.5 -55.5t84 -25t98 -7q61 0 137 10.5t118 30.5q-69 28 -140 98.5t-71 134.5q0 41 19.5 76t52 59.5t68 41t74.5 27.5q24 6 35 9q20 5 37 5h3v-3q8 -103 29 -157zM228 319l4 -41l-2 -1
q-47 -10 -101 -10h-90v42l57 -3q-26 37 -26 60q0 32 16 64l2 2q36 13 69 13q26 0 52 -6l2 -1l-3 -37h-3q-29 3 -56 3t-39 -4q-2 -6 -2 -13q-1 -6 -1 -15q0 -42 24 -66h3q59 0 90 12z" />
    <glyph glyph-name="uni06330626.fina" horiz-adv-x="1396" 
d="M448 -411q-19 0 -33.5 13.5t-14.5 32.5q0 18 14.5 31.5t33.5 13.5t32.5 -13.5t13.5 -31.5t-13.5 -32t-32.5 -14zM296 -411q-18 0 -31.5 14t-13.5 32t13 31.5t32 13.5t32.5 -13.5t13.5 -31.5t-13.5 -32t-32.5 -14zM83 164l62 10l-1 -5q-19 -61 -19 -129q0 -180 268 -180
q61 0 139.5 10.5t116.5 31.5h-3l-1 1q-75 38 -141.5 105t-66.5 134q0 49 27 89t71 64.5t90 39t93 20.5h3v-4q19 -157 61 -212q26 -33 59 -44.5t82 -11.5q5 0 15 2l29 249l77 9l3 -3l-29 -223q12 -12 77.5 -19.5t103.5 -7.5h11l-1 8q-29 193 -45 282v3l74 18l1 -3
q38 -197 45 -278v-3h1l2 -1q33 -18 54.5 -22t64.5 -4h1l8 -7v-78l-8 -5h-25q-46 0 -94 38l-24 21l-37 -59h-2q-126 0 -221 56q-5 5 -6 5l-43 -60q-27 -8 -62 -8q-44 0 -79.5 17t-58 42t-40 62.5t-26.5 70t-17 73.5q-163 -34 -163 -115q0 -29 14 -55t40 -49t46.5 -36.5
t51.5 -31.5q15 -10 67 -38l1 -2l-21 -84l-2 -1q-157 -76 -333 -76q-66 0 -120.5 12.5t-100.5 39.5t-72 76.5t-26 117.5q0 73 28 146zM228 318l4 -41l-2 -1q-57 -10 -101 -10h-90v41l58 -1q-2 2 -4.5 5.5t-3.5 4.5q-1 2 -4.5 7t-5.5 8q-9 18 -9 35q0 33 16 63l2 2
q37 14 68 14q26 0 53 -6l2 -1l-4 -38h-3q-6 0 -17.5 1t-21 1.5t-17.5 0.5q-27 0 -38 -4q-2 -6 -2 -13q-1 -6 -1 -15q0 -42 24 -66h3q58 0 90 12z" />
    <glyph glyph-name="uni06340626.fina" horiz-adv-x="1394" 
d="M1067 498q-19 0 -32.5 13.5t-13.5 31.5q0 19 13 33.5t33 14.5t33 -14.5t13 -33.5q0 -18 -13.5 -31.5t-32.5 -13.5zM915 498q-19 0 -32.5 13.5t-13.5 31.5q0 19 13 33.5t33 14.5t34 -14t14 -34q0 -19 -14 -32t-34 -13zM992 608q-19 0 -32.5 14t-13.5 32q0 19 13.5 33.5
t32.5 14.5t32.5 -14.5t13.5 -33.5q0 -18 -13.5 -32t-32.5 -14zM448 -411q-20 0 -34 13.5t-14 32.5t14 32t34 13q19 0 32.5 -13.5t13.5 -31.5t-13.5 -32t-32.5 -14zM296 -411q-18 0 -31.5 14t-13.5 32t13 31.5t32 13.5t32.5 -13.5t13.5 -31.5t-13.5 -32t-32.5 -14zM83 164
l62 10l-1 -5q-19 -61 -19 -129q0 -180 268 -180q61 0 139.5 10.5t116.5 31.5h-3l-1 1q-75 38 -141.5 105t-66.5 134q0 49 27 89t71 64.5t90 39t93 20.5h3v-4q19 -157 61 -212q25 -32 58 -44t81 -12q7 0 17 2l29 249l77 9l3 -3l-29 -223q12 -12 77.5 -19.5t103.5 -7.5h11
l-1 8q-27 186 -47 282l-1 3l77 18l1 -3q38 -197 45 -278q0 -2 1 -3q0 -1 3 -1q33 -20 59 -23q21 -3 64 -3h1l6 -7v-77l-6 -6h-30q-46 0 -94 38q-3 3 -7 6.5t-9 8t-8 6.5l-37 -59h-2q-126 0 -221 56q-5 5 -6 5l-43 -60q-27 -8 -62 -8q-171 0 -223 265q-161 -34 -161 -115
q0 -90 152 -172q23 -14 67 -38l1 -2l-21 -84l-2 -1q-157 -76 -333 -76q-66 0 -120.5 12.5t-100.5 39.5t-72 76.5t-26 117.5q0 73 28 146zM244 318l4 -41l-2 -1q-57 -10 -101 -10h-90v41l58 -1q-1 2 -3.5 5.5t-4.5 4.5q-2 2 -5 7t-5 8q-9 18 -9 35q0 33 16 63l2 2
q37 14 68 14q26 0 53 -6l2 -1l-4 -38h-3q-6 0 -17.5 1t-21 1.5t-17.5 0.5q-27 0 -38 -4q-2 -6 -2 -13q-1 -6 -1 -15q0 -42 24 -66h3q58 0 90 12z" />
    <glyph glyph-name="uni06350626.fina" horiz-adv-x="1350" 
d="M447 -412q-19 0 -33.5 13.5t-14.5 32.5q0 18 14.5 31.5t33.5 13.5t32.5 -13.5t13.5 -31.5t-13.5 -32t-32.5 -14zM295 -412q-18 0 -31.5 14t-13.5 32t13 31.5t32 13.5t32.5 -13.5t13.5 -31.5t-13.5 -32t-32.5 -14zM229 319l4 -41l-2 -1q-49 -9 -100 -9h-91v41l58 -2
q-6 8 -8 10t-5 7t-5 8q-9 18 -9 35q0 35 16 63l2 2q29 14 69 14q26 0 52 -6l2 -1l-3 -37h-3q-19 2 -56 2q-27 0 -39 -4q0 -2 -1 -4q0 -1 -0.5 -3.5t-0.5 -4.5q-1 -7 -1 -15q0 -19 7 -41q10 -26 21 -26q55 0 89 12zM84 164l62 10l-1 -5q-19 -61 -19 -129q0 -44 16 -77
t40.5 -52.5t61.5 -31t72 -15.5t78 -4q58 0 139 11t117 30q-1 0 -2 1h-2q-75 38 -141.5 105.5t-66.5 133.5q0 40 19.5 73.5t49 56t69 40t75.5 27t73 14.5h3v-3q3 -33 11 -110q74 63 163 116.5t151 53.5q49 0 87.5 -30t60 -77t32.5 -94t13 -91v-4q1 0 3 -1q49 -22 111 -22h1
l6 -7v-77l-6 -6h-22q-58 0 -118 58l-40 -58h-275q-51 0 -89 13t-61.5 33t-40.5 54.5t-25.5 67t-16.5 81.5l-1 8q-161 -34 -161 -114q0 -88 153 -173q12 -7 66 -37l1 -2l-21 -84l-2 -1q-157 -76 -334 -76q-66 0 -120.5 12.5t-100.5 39.5t-71.5 76.5t-25.5 117.5q0 77 28 146z
M922 90h252v6q0 16 -3 31q-36 193 -139 193q-62 0 -144 -48q-20 -12 -130 -88l-5 -3l1 -2l1 -1v-1v-2q19 -52 59.5 -68.5t107.5 -16.5z" />
    <glyph glyph-name="uni06360626.fina" horiz-adv-x="1350" 
d="M446 -411q-20 0 -34 13.5t-14 32.5t14 32t34 13q19 0 32.5 -13.5t13.5 -31.5t-13.5 -32t-32.5 -14zM294 -411q-18 0 -31.5 14t-13.5 32t13 31.5t32 13.5t32.5 -13.5t13.5 -31.5t-13.5 -32t-32.5 -14zM941 547q-20 0 -34 14t-14 34q0 19 14 32.5t34 13.5q19 0 32.5 -14
t13.5 -32q0 -19 -13.5 -33.5t-32.5 -14.5zM239 316l6 -39l-2 -1q-49 -9 -100 -9h-91v40l59 -1q-2 2 -4.5 5.5t-3.5 4.5q-1 2 -5 7t-5 8q-9 18 -9 35q0 34 15 63l2 2q33 14 69 14q26 0 52 -6l2 -1l-3 -37h-3q-19 2 -56 2q-27 0 -39 -4q-2 -4 -2 -12q0 -60 24 -82h3
q54 0 88 10zM84 164l62 10l-1 -5q-19 -61 -19 -129q0 -44 16 -77t41 -52.5t61.5 -31t71.5 -15.5t78 -4q58 0 139 11t117 30q-1 0 -2 1h-2q-75 38 -141.5 105.5t-66.5 133.5q0 40 19.5 73.5t49 56t69 40t75.5 27t73 14.5h3v-3q3 -33 11 -110q74 63 163 116.5t151 53.5
q49 0 87.5 -30t60 -77t32.5 -94t13 -91v-4q1 0 3 -1q32 -15 54 -18.5t63 -3.5h1l6 -7v-77l-6 -6h-28q-58 0 -118 58l-40 -58h-275q-51 0 -89 13t-62 33t-41 54.5t-25.5 67t-17.5 81.5l-1 8q-27 -5 -51.5 -13.5t-50.5 -21.5t-41.5 -33.5t-15.5 -45.5q0 -33 21 -65t61.5 -61.5
t66.5 -45t69 -38.5l2 -2l-21 -84l-2 -1q-157 -76 -334 -76q-66 0 -120.5 12.5t-100.5 39.5t-71.5 76.5t-25.5 117.5q0 77 28 146zM920 90h253v6q0 16 -3 31q-5 28 -10.5 50t-17 50.5t-25 47t-36 32t-49.5 13.5q-62 0 -144 -48q-20 -12 -130 -88l-5 -3l1 -2l1 -1v-1v-2
q9 -27 26 -45t40.5 -26t46 -11t52.5 -3z" />
    <glyph glyph-name="uni06430626.fina" horiz-adv-x="1274" 
d="M433 -442q-19 0 -33.5 15t-14.5 33q0 19 14.5 32.5t33.5 13.5t32.5 -14t13.5 -32q0 -19 -13.5 -33.5t-32.5 -14.5zM281 -442q-19 0 -32 14.5t-13 33.5q0 18 13.5 32t31.5 14q19 0 32.5 -14t13.5 -32q0 -19 -13.5 -33.5t-32.5 -14.5zM221 306l4 -40l-2 -1
q-41 -10 -100 -10h-91v42l57 -2q-26 32 -26 59q0 36 16 64l2 2q30 11 69 11q24 0 52 -5l2 -1l-3 -36h-3q-28 3 -56 3q-27 0 -39 -4q0 -2 -1 -4q0 -2 -0.5 -5t-0.5 -4q-1 -6 -1 -15q0 -41 24 -66h3q55 0 90 11zM599 364l353 374l39 -73l-311 -310q83 14 92 15q53 8 102 8
q133 0 208.5 -65.5t85.5 -194.5v-4h1q1 -1 2 -1q33 -16 53.5 -19.5t62.5 -3.5h1l6 -7v-77l-6 -6h-26q-41 0 -87 33l-15 12q-3 1 -7.5 4t-6.5 5l-30 -54h-380q-25 0 -51 8q-7 2 -22 7t-24 7l-10 -17q1 0 1 -0.5t1 -0.5l3 -3q66 -57 99 -99l1 -1l-23 -83l-2 -1
q-147 -72 -339 -72q-316 0 -316 245q0 77 27 146l1 2l63 10l-1 -5q-19 -61 -19 -129q0 -55 22 -92.5t62 -55.5t82.5 -25t98.5 -7q168 0 272 41l2 1l1 1q1 1 2 1h1l2 1q-95 116 -233 186l-3 2l28 72l3 -1q99 -48 216 -48h416v6q0 32 -14 71q-27 80 -88.5 107t-160.5 27
q-98 0 -201 -14h-2z" />
    <glyph glyph-name="uni06440626.fina" horiz-adv-x="992" 
d="M222 306l4 -40l-2 -1q-47 -10 -101 -10h-90v42l57 -2q-26 32 -26 59q0 32 16 64l2 2q35 11 69 11q24 0 52 -5l2 -1l-3 -36h-3q-29 3 -56 3t-39 -4q-1 -3 -3 -13q0 -56 24 -81h3q55 0 90 11zM886 744v-626l1 -1q28 -27 124 -27h1l6 -7v-77l-6 -6h-26q-60 0 -121 56
q-2 1 -6 5l-37 -61h-85q-25 0 -52 8q-5 1 -21 6.5t-25 7.5l-10 -17q1 0 1 -0.5t1 -0.5l3 -3q66 -57 99 -99l1 -1l-23 -83l-2 -1q-147 -72 -339 -72q-316 0 -316 245q0 77 27 146l1 2l63 10l-1 -5q-19 -61 -19 -129q0 -55 22 -92.5t62 -55.5t82.5 -25t98.5 -7q170 0 272 41
l2 1l1 1q1 1 2 1h1l2 1q-95 116 -233 186l-3 2l28 72l3 -1q99 -48 216 -48h128v654h77zM435 -444q-19 0 -33.5 15t-14.5 33q0 19 14.5 32.5t33.5 13.5t32.5 -14t13.5 -32q0 -19 -13.5 -33.5t-32.5 -14.5zM283 -444q-19 0 -32 14.5t-13 33.5q0 18 13.5 32t31.5 14
q19 0 32.5 -14t13.5 -32q0 -19 -13.5 -33.5t-32.5 -14.5z" />
    <glyph glyph-name="uni06460626.fina" horiz-adv-x="997" 
d="M529 -411q-19 0 -32.5 14t-13.5 32t13.5 31.5t32.5 13.5t32.5 -13.5t13.5 -31.5t-13.5 -32t-32.5 -14zM377 -411q-18 0 -31.5 14t-13.5 32t13 31.5t32 13.5t32.5 -13.5t13.5 -31.5t-13.5 -32t-32.5 -14zM684 486q-19 0 -33.5 13.5t-14.5 31.5t14.5 33t33.5 15t32.5 -14.5
t13.5 -33.5q0 -17 -14 -31t-32 -14zM1010 90l6 -7v-77l-6 -6h-41q-42 0 -74.5 16t-52 39t-34.5 59.5t-21.5 65.5t-13.5 69l-1 8q-161 -34 -161 -114q0 -64 81 -124q18 -13 72 -47q9 -5 31.5 -18.5t33.5 -20.5l1 -1l-20 -85l-2 -1q-153 -75 -332 -75q-66 0 -120.5 12t-101 39
t-72.5 76t-26 118q0 70 29 146l1 2l67 11l-2 -5q-22 -58 -22 -130q0 -44 16 -77t40.5 -52.5t61.5 -31t72 -15.5t78 -4q58 0 136.5 11t118.5 30q-70 28 -141.5 99t-71.5 134q0 50 27.5 90.5t72.5 66t91.5 40.5t94.5 21h3v-3q9 -105 29 -157q21 -54 51.5 -78t86.5 -24h15z
M322 319l4 -41l-2 -1q-47 -10 -99 -10h-92v42l59 -3q-26 37 -26 60q0 32 16 64l2 2q36 13 69 13q26 0 50 -6l2 -1l-3 -37h-3q-27 3 -54 3t-39 -4q-2 -6 -2 -13q-1 -6 -1 -15q0 -42 24 -66h3q57 0 88 12z" />
    <glyph glyph-name="uni06260626.fina" horiz-adv-x="894" 
d="M454 -411q-19 0 -32.5 14t-13.5 32t13.5 31.5t32.5 13.5t32.5 -13.5t13.5 -31.5t-13.5 -32t-32.5 -14zM302 -411q-19 0 -32.5 14t-13.5 32t13.5 31.5t32.5 13.5t32.5 -13.5t13.5 -31.5t-13.5 -32t-32.5 -14zM754 192q21 -54 50.5 -78t84.5 -24h21l6 -7v-77l-6 -6h-46
q-42 0 -74.5 16.5t-51.5 39t-33.5 59.5t-21 65t-13.5 69l-1 8q-161 -34 -161 -114q0 -29 13.5 -55t40.5 -48.5t47 -36t51 -31.5q8 -5 31.5 -18.5t34.5 -20.5l1 -1l-20 -85l-2 -1q-158 -75 -334 -75q-66 0 -120.5 12t-100.5 39t-72 76.5t-26 117.5q0 73 28 146l1 2l67 11
l-2 -5q-22 -58 -22 -130q0 -55 22.5 -92.5t63.5 -55.5t84 -25t98 -7q61 0 137 10.5t118 30.5q-69 28 -140 98.5t-71 134.5q0 150 249 213q20 5 37 5h3v-3q8 -103 29 -157zM222 319l4 -41l-2 -1q-47 -10 -101 -10h-90v42l57 -3q-26 37 -26 60q0 32 16 64l2 2q36 13 69 13
q27 0 52 -6l2 -1l-3 -37h-3q-29 3 -56 3t-39 -4q-2 -6 -2 -13q-1 -6 -1 -15q0 -42 24 -66h3q59 0 90 12zM693 495l4 -40l-2 -1q-46 -10 -100 -10h-90v42l57 -2q-1 2 -3.5 5t-3.5 4l-9 15q-10 17 -10 33q0 37 16 66l2 2q35 11 69 11q23 0 51 -5l2 -1l-3 -36h-2q-28 3 -56 3
q-27 0 -39 -4q-1 -4 -3 -14q0 -54 24 -80h3q55 0 89 11z" />
    <glyph glyph-name="dotcenterar" 
d="M267 34q-28 0 -47.5 18.5t-19.5 46.5q0 30 22 51t52 21q26 0 45.5 -19.5t19.5 -46.5q0 -29 -21.5 -50t-50.5 -21z" />
    <glyph glyph-name="waslaar" 
d="M94 841q24 0 40.5 -17t16.5 -42q0 -35 -28 -58.5t-63 -23.5q-50 0 -89 44q-30 -18 -70 -53h-6l-20 44q36 35 87 67h7q24 -24 45 -35q42 74 80 74zM68 754q39 0 39 17q0 6 -6.5 10t-15.5 4q-18 0 -38 -29q18 -2 21 -2z" />
    <glyph glyph-name="hamzacenterar" 
d="M373 410l5 -2l8 -51q-54 -12 -110 -12h-97v56l50 -1q-19 22 -19 51q0 36 18 70q42 14 76 14q17 0 59 -7l-5 -50q-48 3 -62 3q-15 0 -33 -3q-2 -8 -2 -22q0 -37 21 -58q59 1 91 12z" />
    <glyph glyph-name="shaddaAlefabovear" 
d="M-29 973l-35 -6l-12 123l42 18l5 -1v-134zM9 941l37 16q15 -37 15 -66q0 -37 -20 -59.5t-50 -22.5q-25 0 -48 18q-25 -31 -60 -31q-22 0 -36 14.5t-14 42.5q0 25 18 65l33 10l5 -4q-14 -33 -14 -53q0 -23 21 -23q16 0 27 18.5t12 50.5l32 12l5 -3q1 -26 -5 -55
q13 -10 32 -10q9 0 15.5 6.5t6.5 17.5q0 31 -12 56z" />
    <glyph glyph-name="shaddaDammaar" 
d="M48 1088q0 -57 -48 -94.5t-130 -47.5l-16 45l5 6q85 7 118 30q-27 1 -45 13t-18 31q0 28 26 60.5t53 32.5q23 0 39 -23.5t16 -52.5zM-42 1082q0 -19 46 -19q2 14 2 15q0 13 -7 24t-15 11q-9 0 -17.5 -10t-8.5 -21zM10 937l37 16q15 -37 15 -66q0 -37 -20 -59.5t-50 -22.5
q-26 0 -48 18q-25 -31 -60 -31q-22 0 -36 14.5t-14 42.5q0 24 18 66l33 9l5 -4q-15 -31 -14 -53t21 -22q16 0 27 18t12 50l32 13l5 -4q1 -33 -5 -54q13 -10 32 -10q9 0 15.5 6t6.5 17q0 31 -12 56z" />
    <glyph glyph-name="shaddaDammatanar" 
d="M-153 944l-6 -2l-27 29q10 30 65 107h38q-1 -47 9.5 -63.5t37.5 -16.5q20 0 38 12q-56 2 -56 46q0 31 24.5 60.5t54.5 29.5q22 0 35.5 -19.5t13.5 -48.5q0 -48 -37 -89.5t-85 -41.5q-26 0 -43.5 22.5t-19.5 54.5q-40 -72 -42 -80zM-13 1065q0 -21 43 -21q3 9 3 20
q0 29 -20 29q-8 0 -17 -9t-9 -19zM9 927l37 16q15 -37 15 -66q0 -37 -20 -59.5t-50 -22.5q-25 0 -48 18q-25 -31 -60 -31q-22 0 -36 14.5t-14 42.5q0 25 18 65l33 10l5 -4q-14 -33 -14 -53q0 -23 21 -23q16 0 27 18.5t12 50.5l32 12l5 -3q1 -26 -5 -55q13 -10 32 -10
q9 0 15.5 6.5t6.5 17.5q0 31 -12 56z" />
    <glyph glyph-name="shaddaFathaar" 
d="M-172 989l233 89v-49l-233 -87v47zM9 938l37 16q15 -38 15 -66q0 -37 -20 -59.5t-50 -22.5q-25 0 -48 18q-25 -31 -60 -31q-22 0 -36 14.5t-14 42.5q0 24 18 66l33 9l5 -4q-15 -31 -14 -53t21 -22q16 0 27 18t12 50l32 13l5 -4q1 -33 -5 -54q13 -10 32 -10q9 0 15.5 6
t6.5 17q0 30 -12 56z" />
    <glyph glyph-name="shaddaFathatanar" 
d="M-117 796q-22 0 -36 14.5t-14 42.5q0 25 18 65l33 10l5 -4q-14 -33 -14 -53q0 -23 21 -23q16 0 27 18.5t12 50.5l32 12l5 -3q1 -26 -5 -55q13 -10 32 -10q9 0 15.5 6.5t6.5 17.5q0 31 -12 56l37 16q15 -37 15 -66q0 -37 -20 -59.5t-50 -22.5q-25 0 -48 18
q-25 -31 -60 -31zM59 1126l-233 -88v47l233 89v-48zM-173 992l232 89v-48l-232 -88v47z" />
    <glyph glyph-name="shaddaKasraar" 
d="M-114 883q-22 0 -36 14.5t-14 42.5q0 24 18 66l33 9l4 -4q-13 -30 -13 -53q0 -22 21 -22q15 0 26.5 18.5t12.5 49.5l31 13l6 -4q1 -27 -5 -54q13 -10 31 -10q9 0 16 7t7 16q0 30 -12 56l36 16q16 -36 16 -66q0 -37 -20 -59.5t-50 -22.5q-26 0 -49 18q-25 -31 -59 -31z
M-159 791l233 89v-48l-233 -88v47z" />
    <glyph glyph-name="shaddaKasratanar" 
d="M-109 982q-22 0 -36 14.5t-14 42.5q0 25 18 65l33 10l4 -4q-13 -30 -13 -53t21 -23q15 0 26.5 18.5t12.5 50.5l31 12l6 -3q1 -31 -6 -55q16 -10 32 -10q9 0 15.5 6.5t6.5 17.5q0 28 -11 56l36 16q16 -39 16 -66q0 -37 -20 -59.5t-50 -22.5q-27 0 -49 18q-25 -31 -59 -31z
M-156 892l233 90v-49l-233 -88v47zM-159 752v47l232 90v-49z" />
    <glyph glyph-name="connect01" horiz-adv-x="182" 
d="M31 70l37 59q34 -27 98 -27h15l10 -11v-81l-10 -10h-19q-37 0 -65 16t-66 54z" />
    <glyph glyph-name=".notdef.5" horiz-adv-x="500" 
 />
    </font>
</defs>
</svg>
